  0
SECTION
  2
HEADER
  9
$ANGBASE
  50
0.0
  9
$ANGDIR
  70
1
  9
$MEASUREMENT
  70
1
  0
ENDSEC
  0
SECTION
  2
TABLES
  0
TABLE
  2
LTYPE
  70
4
  0
LTYPE
  5
40F
  2
CONTINUOUS
  70
0
  3
Solid line
  72
65
  73
0
  40
0.0
  0
LTYPE
  5
410
  2
DASHDOT
 70
0
  3
Dash Dot ____ _ ____ _
 72
65
 73
4
 40
2.0
 49
1.25
 49
-0.25
 49
0.25
 49
-0.25
  0
LTYPE
  5
411
  2
DASHED
 70
0
  3
Dashed __ __ __ __ __
 72
65
 73
2
 40
0.75
 49
0.5
 49
-0.25
  0
LTYPE
  5
43B
  2
DOTTED
 70
0
  3
Dotted .  .  .  .
 72
65
 73
2
 40
0.2
 49
0.0
 49
-0.2
  0
ENDTAB
  0
TABLE
  2
STYLE
  70
4
  0
STYLE
  2
KICAD
  70
0
  40
0
  41
1
  42
1
  50
0
  71
0
  3
isocp.shx
  0
STYLE
  2
KICADB
  70
0
  40
0
  41
1
  42
1
  50
0
  71
0
  3
isocp.shx
  0
STYLE
  2
KICADI
  70
0
  40
0
  41
1
  42
1
  50
15
  71
0
  3
isocp.shx
  0
STYLE
  2
KICADBI
  70
0
  40
0
  41
1
  42
1
  50
15
  71
0
  3
isocp.shx
  0
ENDTAB
  0
TABLE
  2
LAYER
  70
1
  0
LAYER
  2
BLACK
  70
0
  62
7
  6
CONTINUOUS
  0
ENDTAB
  0
ENDSEC
  0
SECTION
  2
ENTITIES
0
LINE
8
BLACK
6
CONTINUOUS
10
172.368
20
-96.5459
11
172.603
21
-96.6263
0
LINE
8
BLACK
6
CONTINUOUS
10
172.603
20
-96.6263
11
172.82
21
-96.7442
0
LINE
8
BLACK
6
CONTINUOUS
10
172.82
20
-96.7442
11
173.016
21
-96.8964
0
LINE
8
BLACK
6
CONTINUOUS
10
173.016
20
-96.8964
11
173.184
21
-97.0787
0
LINE
8
BLACK
6
CONTINUOUS
10
173.184
20
-97.0787
11
173.319
21
-97.2861
0
LINE
8
BLACK
6
CONTINUOUS
10
173.319
20
-97.2861
11
173.419
21
-97.513
0
LINE
8
BLACK
6
CONTINUOUS
10
173.419
20
-97.513
11
173.48
21
-97.7531
0
LINE
8
BLACK
6
CONTINUOUS
10
173.48
20
-97.7531
11
173.5
21
-98
0
LINE
8
BLACK
6
CONTINUOUS
10
173.5
20
-98
11
173.48
21
-98.2469
0
LINE
8
BLACK
6
CONTINUOUS
10
173.48
20
-98.2469
11
173.419
21
-98.487
0
LINE
8
BLACK
6
CONTINUOUS
10
173.419
20
-98.487
11
173.319
21
-98.7139
0
LINE
8
BLACK
6
CONTINUOUS
10
173.319
20
-98.7139
11
173.184
21
-98.9213
0
LINE
8
BLACK
6
CONTINUOUS
10
173.184
20
-98.9213
11
173.016
21
-99.1036
0
LINE
8
BLACK
6
CONTINUOUS
10
173.016
20
-99.1036
11
172.82
21
-99.2557
0
LINE
8
BLACK
6
CONTINUOUS
10
172.82
20
-99.2557
11
172.603
21
-99.3737
0
LINE
8
BLACK
6
CONTINUOUS
10
172.603
20
-99.3737
11
172.368
21
-99.4541
0
LINE
8
BLACK
6
CONTINUOUS
10
172.368
20
-99.4541
11
172.124
21
-99.4949
0
LINE
8
BLACK
6
CONTINUOUS
10
172.124
20
-99.4949
11
171.876
21
-99.4949
0
LINE
8
BLACK
6
CONTINUOUS
10
171.876
20
-99.4949
11
171.632
21
-99.4541
0
LINE
8
BLACK
6
CONTINUOUS
10
171.632
20
-99.4541
11
171.397
21
-99.3737
0
LINE
8
BLACK
6
CONTINUOUS
10
171.397
20
-99.3737
11
171.18
21
-99.2557
0
LINE
8
BLACK
6
CONTINUOUS
10
171.18
20
-99.2557
11
170.984
21
-99.1036
0
LINE
8
BLACK
6
CONTINUOUS
10
170.984
20
-99.1036
11
170.816
21
-98.9213
0
LINE
8
BLACK
6
CONTINUOUS
10
170.816
20
-98.9213
11
170.681
21
-98.7139
0
LINE
8
BLACK
6
CONTINUOUS
10
170.681
20
-98.7139
11
170.581
21
-98.487
0
LINE
8
BLACK
6
CONTINUOUS
10
170.581
20
-98.487
11
170.52
21
-98.2469
0
LINE
8
BLACK
6
CONTINUOUS
10
170.52
20
-98.2469
11
170.5
21
-98
0
LINE
8
BLACK
6
CONTINUOUS
10
170.5
20
-98
11
170.52
21
-97.7531
0
LINE
8
BLACK
6
CONTINUOUS
10
170.52
20
-97.7531
11
170.581
21
-97.513
0
LINE
8
BLACK
6
CONTINUOUS
10
170.581
20
-97.513
11
170.681
21
-97.2861
0
LINE
8
BLACK
6
CONTINUOUS
10
170.681
20
-97.2861
11
170.816
21
-97.0787
0
LINE
8
BLACK
6
CONTINUOUS
10
170.816
20
-97.0787
11
170.984
21
-96.8964
0
LINE
8
BLACK
6
CONTINUOUS
10
170.984
20
-96.8964
11
171.18
21
-96.7442
0
LINE
8
BLACK
6
CONTINUOUS
10
171.18
20
-96.7442
11
171.397
21
-96.6263
0
LINE
8
BLACK
6
CONTINUOUS
10
171.397
20
-96.6263
11
171.632
21
-96.5459
0
LINE
8
BLACK
6
CONTINUOUS
10
171.632
20
-96.5459
11
171.876
21
-96.5051
0
LINE
8
BLACK
6
CONTINUOUS
10
171.876
20
-96.5051
11
172.124
21
-96.5051
0
LINE
8
BLACK
6
CONTINUOUS
10
172.124
20
-96.5051
11
172.368
21
-96.5459
0
LINE
8
BLACK
6
CONTINUOUS
10
228.368
20
-96.5459
11
228.603
21
-96.6263
0
LINE
8
BLACK
6
CONTINUOUS
10
228.603
20
-96.6263
11
228.82
21
-96.7442
0
LINE
8
BLACK
6
CONTINUOUS
10
228.82
20
-96.7442
11
229.016
21
-96.8964
0
LINE
8
BLACK
6
CONTINUOUS
10
229.016
20
-96.8964
11
229.184
21
-97.0787
0
LINE
8
BLACK
6
CONTINUOUS
10
229.184
20
-97.0787
11
229.319
21
-97.2861
0
LINE
8
BLACK
6
CONTINUOUS
10
229.319
20
-97.2861
11
229.419
21
-97.513
0
LINE
8
BLACK
6
CONTINUOUS
10
229.419
20
-97.513
11
229.48
21
-97.7531
0
LINE
8
BLACK
6
CONTINUOUS
10
229.48
20
-97.7531
11
229.5
21
-98
0
LINE
8
BLACK
6
CONTINUOUS
10
229.5
20
-98
11
229.48
21
-98.2469
0
LINE
8
BLACK
6
CONTINUOUS
10
229.48
20
-98.2469
11
229.419
21
-98.487
0
LINE
8
BLACK
6
CONTINUOUS
10
229.419
20
-98.487
11
229.319
21
-98.7139
0
LINE
8
BLACK
6
CONTINUOUS
10
229.319
20
-98.7139
11
229.184
21
-98.9213
0
LINE
8
BLACK
6
CONTINUOUS
10
229.184
20
-98.9213
11
229.016
21
-99.1036
0
LINE
8
BLACK
6
CONTINUOUS
10
229.016
20
-99.1036
11
228.82
21
-99.2557
0
LINE
8
BLACK
6
CONTINUOUS
10
228.82
20
-99.2557
11
228.603
21
-99.3737
0
LINE
8
BLACK
6
CONTINUOUS
10
228.603
20
-99.3737
11
228.368
21
-99.4541
0
LINE
8
BLACK
6
CONTINUOUS
10
228.368
20
-99.4541
11
228.124
21
-99.4949
0
LINE
8
BLACK
6
CONTINUOUS
10
228.124
20
-99.4949
11
227.876
21
-99.4949
0
LINE
8
BLACK
6
CONTINUOUS
10
227.876
20
-99.4949
11
227.632
21
-99.4541
0
LINE
8
BLACK
6
CONTINUOUS
10
227.632
20
-99.4541
11
227.397
21
-99.3737
0
LINE
8
BLACK
6
CONTINUOUS
10
227.397
20
-99.3737
11
227.18
21
-99.2557
0
LINE
8
BLACK
6
CONTINUOUS
10
227.18
20
-99.2557
11
226.984
21
-99.1036
0
LINE
8
BLACK
6
CONTINUOUS
10
226.984
20
-99.1036
11
226.816
21
-98.9213
0
LINE
8
BLACK
6
CONTINUOUS
10
226.816
20
-98.9213
11
226.681
21
-98.7139
0
LINE
8
BLACK
6
CONTINUOUS
10
226.681
20
-98.7139
11
226.581
21
-98.487
0
LINE
8
BLACK
6
CONTINUOUS
10
226.581
20
-98.487
11
226.52
21
-98.2469
0
LINE
8
BLACK
6
CONTINUOUS
10
226.52
20
-98.2469
11
226.5
21
-98
0
LINE
8
BLACK
6
CONTINUOUS
10
226.5
20
-98
11
226.52
21
-97.7531
0
LINE
8
BLACK
6
CONTINUOUS
10
226.52
20
-97.7531
11
226.581
21
-97.513
0
LINE
8
BLACK
6
CONTINUOUS
10
226.581
20
-97.513
11
226.681
21
-97.2861
0
LINE
8
BLACK
6
CONTINUOUS
10
226.681
20
-97.2861
11
226.816
21
-97.0787
0
LINE
8
BLACK
6
CONTINUOUS
10
226.816
20
-97.0787
11
226.984
21
-96.8964
0
LINE
8
BLACK
6
CONTINUOUS
10
226.984
20
-96.8964
11
227.18
21
-96.7442
0
LINE
8
BLACK
6
CONTINUOUS
10
227.18
20
-96.7442
11
227.397
21
-96.6263
0
LINE
8
BLACK
6
CONTINUOUS
10
227.397
20
-96.6263
11
227.632
21
-96.5459
0
LINE
8
BLACK
6
CONTINUOUS
10
227.632
20
-96.5459
11
227.876
21
-96.5051
0
LINE
8
BLACK
6
CONTINUOUS
10
227.876
20
-96.5051
11
228.124
21
-96.5051
0
LINE
8
BLACK
6
CONTINUOUS
10
228.124
20
-96.5051
11
228.368
21
-96.5459
0
LINE
8
BLACK
6
CONTINUOUS
10
209.11
20
-45.83
11
214.11
21
-45.83
0
LINE
8
BLACK
6
CONTINUOUS
10
214.11
20
-45.83
11
214.11
21
-45.77
0
LINE
8
BLACK
6
CONTINUOUS
10
214.11
20
-45.77
11
215.81
21
-45.77
0
LINE
8
BLACK
6
CONTINUOUS
10
215.81
20
-45.77
11
215.81
21
-45.87
0
LINE
8
BLACK
6
CONTINUOUS
10
215.81
20
-45.87
11
219.76
21
-45.87
0
LINE
8
BLACK
6
CONTINUOUS
10
219.76
20
-45.87
11
219.814
21
-45.8732
0
LINE
8
BLACK
6
CONTINUOUS
10
219.814
20
-45.8732
11
219.825
21
-45.8729
0
LINE
8
BLACK
6
CONTINUOUS
10
219.825
20
-45.8729
11
219.832
21
-45.8742
0
LINE
8
BLACK
6
CONTINUOUS
10
219.832
20
-45.8742
11
219.847
21
-45.8751
0
LINE
8
BLACK
6
CONTINUOUS
10
219.847
20
-45.8751
11
219.921
21
-45.8927
0
LINE
8
BLACK
6
CONTINUOUS
10
219.921
20
-45.8927
11
219.996
21
-45.9081
0
LINE
8
BLACK
6
CONTINUOUS
10
219.996
20
-45.9081
11
220.006
21
-45.9127
0
LINE
8
BLACK
6
CONTINUOUS
10
220.006
20
-45.9127
11
220.017
21
-45.9152
0
LINE
8
BLACK
6
CONTINUOUS
10
220.017
20
-45.9152
11
220.085
21
-45.9494
0
LINE
8
BLACK
6
CONTINUOUS
10
220.085
20
-45.9494
11
220.154
21
-45.9817
0
LINE
8
BLACK
6
CONTINUOUS
10
220.154
20
-45.9817
11
220.162
21
-45.9885
0
LINE
8
BLACK
6
CONTINUOUS
10
220.162
20
-45.9885
11
220.172
21
-45.9934
0
LINE
8
BLACK
6
CONTINUOUS
10
220.172
20
-45.9934
11
220.231
21
-46.0424
0
LINE
8
BLACK
6
CONTINUOUS
10
220.231
20
-46.0424
11
220.29
21
-46.0897
0
LINE
8
BLACK
6
CONTINUOUS
10
220.29
20
-46.0897
11
222.19
21
-47.9897
0
LINE
8
BLACK
6
CONTINUOUS
10
222.19
20
-47.9897
11
222.227
21
-48.0304
0
LINE
8
BLACK
6
CONTINUOUS
10
222.227
20
-48.0304
11
222.235
21
-48.0379
0
LINE
8
BLACK
6
CONTINUOUS
10
222.235
20
-48.0379
11
222.238
21
-48.0434
0
LINE
8
BLACK
6
CONTINUOUS
10
222.238
20
-48.0434
11
222.248
21
-48.0548
0
LINE
8
BLACK
6
CONTINUOUS
10
222.248
20
-48.0548
11
222.288
21
-48.1197
0
LINE
8
BLACK
6
CONTINUOUS
10
222.288
20
-48.1197
11
222.33
21
-48.1834
0
LINE
8
BLACK
6
CONTINUOUS
10
222.33
20
-48.1834
11
222.334
21
-48.1937
0
LINE
8
BLACK
6
CONTINUOUS
10
222.334
20
-48.1937
11
222.34
21
-48.203
0
LINE
8
BLACK
6
CONTINUOUS
10
222.34
20
-48.203
11
222.364
21
-48.2754
0
LINE
8
BLACK
6
CONTINUOUS
10
222.364
20
-48.2754
11
222.39
21
-48.347
0
LINE
8
BLACK
6
CONTINUOUS
10
222.39
20
-48.347
11
222.391
21
-48.3579
0
LINE
8
BLACK
6
CONTINUOUS
10
222.391
20
-48.3579
11
222.395
21
-48.3683
0
LINE
8
BLACK
6
CONTINUOUS
10
222.395
20
-48.3683
11
222.401
21
-48.4443
0
LINE
8
BLACK
6
CONTINUOUS
10
222.401
20
-48.4443
11
222.41
21
-48.52
0
LINE
8
BLACK
6
CONTINUOUS
10
222.41
20
-48.52
11
222.41
21
-56.3093
0
LINE
8
BLACK
6
CONTINUOUS
10
222.41
20
-56.3093
11
225.09
21
-58.9897
0
LINE
8
BLACK
6
CONTINUOUS
10
225.09
20
-58.9897
11
225.127
21
-59.0304
0
LINE
8
BLACK
6
CONTINUOUS
10
225.127
20
-59.0304
11
225.135
21
-59.0379
0
LINE
8
BLACK
6
CONTINUOUS
10
225.135
20
-59.0379
11
225.138
21
-59.0434
0
LINE
8
BLACK
6
CONTINUOUS
10
225.138
20
-59.0434
11
225.148
21
-59.0548
0
LINE
8
BLACK
6
CONTINUOUS
10
225.148
20
-59.0548
11
225.188
21
-59.1197
0
LINE
8
BLACK
6
CONTINUOUS
10
225.188
20
-59.1197
11
225.23
21
-59.1834
0
LINE
8
BLACK
6
CONTINUOUS
10
225.23
20
-59.1834
11
225.234
21
-59.1937
0
LINE
8
BLACK
6
CONTINUOUS
10
225.234
20
-59.1937
11
225.24
21
-59.203
0
LINE
8
BLACK
6
CONTINUOUS
10
225.24
20
-59.203
11
225.264
21
-59.2754
0
LINE
8
BLACK
6
CONTINUOUS
10
225.264
20
-59.2754
11
225.29
21
-59.347
0
LINE
8
BLACK
6
CONTINUOUS
10
225.29
20
-59.347
11
225.291
21
-59.3579
0
LINE
8
BLACK
6
CONTINUOUS
10
225.291
20
-59.3579
11
225.295
21
-59.3683
0
LINE
8
BLACK
6
CONTINUOUS
10
225.295
20
-59.3683
11
225.301
21
-59.4443
0
LINE
8
BLACK
6
CONTINUOUS
10
225.301
20
-59.4443
11
225.31
21
-59.52
0
LINE
8
BLACK
6
CONTINUOUS
10
225.31
20
-59.52
11
225.31
21
-64.06
0
LINE
8
BLACK
6
CONTINUOUS
10
225.31
20
-64.06
11
225.512
21
-64.06
0
LINE
8
BLACK
6
CONTINUOUS
10
225.512
20
-64.06
11
225.512
21
-64.9518
0
LINE
8
BLACK
6
CONTINUOUS
10
225.512
20
-64.9518
11
226.185
21
-65.6246
0
LINE
8
BLACK
6
CONTINUOUS
10
226.185
20
-65.6246
11
226.221
21
-65.6653
0
LINE
8
BLACK
6
CONTINUOUS
10
226.221
20
-65.6653
11
226.229
21
-65.6728
0
LINE
8
BLACK
6
CONTINUOUS
10
226.229
20
-65.6728
11
226.233
21
-65.6783
0
LINE
8
BLACK
6
CONTINUOUS
10
226.233
20
-65.6783
11
226.243
21
-65.6897
0
LINE
8
BLACK
6
CONTINUOUS
10
226.243
20
-65.6897
11
226.283
21
-65.7546
0
LINE
8
BLACK
6
CONTINUOUS
10
226.283
20
-65.7546
11
226.325
21
-65.8183
0
LINE
8
BLACK
6
CONTINUOUS
10
226.325
20
-65.8183
11
226.329
21
-65.8286
0
LINE
8
BLACK
6
CONTINUOUS
10
226.329
20
-65.8286
11
226.335
21
-65.8379
0
LINE
8
BLACK
6
CONTINUOUS
10
226.335
20
-65.8379
11
226.359
21
-65.9103
0
LINE
8
BLACK
6
CONTINUOUS
10
226.359
20
-65.9103
11
226.385
21
-65.9819
0
LINE
8
BLACK
6
CONTINUOUS
10
226.385
20
-65.9819
11
226.386
21
-65.9928
0
LINE
8
BLACK
6
CONTINUOUS
10
226.386
20
-65.9928
11
226.389
21
-66.0032
0
LINE
8
BLACK
6
CONTINUOUS
10
226.389
20
-66.0032
11
226.396
21
-66.0791
0
LINE
8
BLACK
6
CONTINUOUS
10
226.396
20
-66.0791
11
226.405
21
-66.1549
0
LINE
8
BLACK
6
CONTINUOUS
10
226.405
20
-66.1549
11
226.405
21
-88.4364
0
LINE
8
BLACK
6
CONTINUOUS
10
226.405
20
-88.4364
11
226.435
21
-88.522
0
LINE
8
BLACK
6
CONTINUOUS
10
226.435
20
-88.522
11
226.455
21
-88.7
0
LINE
8
BLACK
6
CONTINUOUS
10
226.455
20
-88.7
11
226.435
21
-88.878
0
LINE
8
BLACK
6
CONTINUOUS
10
226.435
20
-88.878
11
226.405
21
-88.9636
0
LINE
8
BLACK
6
CONTINUOUS
10
226.405
20
-88.9636
11
226.405
21
-90.8826
0
LINE
8
BLACK
6
CONTINUOUS
10
226.405
20
-90.8826
11
226.402
21
-90.937
0
LINE
8
BLACK
6
CONTINUOUS
10
226.402
20
-90.937
11
226.402
21
-90.9479
0
LINE
8
BLACK
6
CONTINUOUS
10
226.402
20
-90.9479
11
226.401
21
-90.9543
0
LINE
8
BLACK
6
CONTINUOUS
10
226.401
20
-90.9543
11
226.4
21
-90.9696
0
LINE
8
BLACK
6
CONTINUOUS
10
226.4
20
-90.9696
11
226.382
21
-91.0438
0
LINE
8
BLACK
6
CONTINUOUS
10
226.382
20
-91.0438
11
226.367
21
-91.1185
0
LINE
8
BLACK
6
CONTINUOUS
10
226.367
20
-91.1185
11
226.362
21
-91.1284
0
LINE
8
BLACK
6
CONTINUOUS
10
226.362
20
-91.1284
11
226.36
21
-91.1391
0
LINE
8
BLACK
6
CONTINUOUS
10
226.36
20
-91.1391
11
226.325
21
-91.2072
0
LINE
8
BLACK
6
CONTINUOUS
10
226.325
20
-91.2072
11
226.293
21
-91.2763
0
LINE
8
BLACK
6
CONTINUOUS
10
226.293
20
-91.2763
11
226.286
21
-91.2849
0
LINE
8
BLACK
6
CONTINUOUS
10
226.286
20
-91.2849
11
226.282
21
-91.2947
0
LINE
8
BLACK
6
CONTINUOUS
10
226.282
20
-91.2947
11
226.233
21
-91.3531
0
LINE
8
BLACK
6
CONTINUOUS
10
226.233
20
-91.3531
11
226.185
21
-91.4129
0
LINE
8
BLACK
6
CONTINUOUS
10
226.185
20
-91.4129
11
225.168
21
-92.4303
0
LINE
8
BLACK
6
CONTINUOUS
10
225.168
20
-92.4303
11
225.127
21
-92.4666
0
LINE
8
BLACK
6
CONTINUOUS
10
225.127
20
-92.4666
11
225.12
21
-92.4745
0
LINE
8
BLACK
6
CONTINUOUS
10
225.12
20
-92.4745
11
225.114
21
-92.4781
0
LINE
8
BLACK
6
CONTINUOUS
10
225.114
20
-92.4781
11
225.103
21
-92.4883
0
LINE
8
BLACK
6
CONTINUOUS
10
225.103
20
-92.4883
11
225.038
21
-92.5283
0
LINE
8
BLACK
6
CONTINUOUS
10
225.038
20
-92.5283
11
224.974
21
-92.5702
0
LINE
8
BLACK
6
CONTINUOUS
10
224.974
20
-92.5702
11
224.964
21
-92.574
0
LINE
8
BLACK
6
CONTINUOUS
10
224.964
20
-92.574
11
224.954
21
-92.5797
0
LINE
8
BLACK
6
CONTINUOUS
10
224.954
20
-92.5797
11
224.882
21
-92.6037
0
LINE
8
BLACK
6
CONTINUOUS
10
224.882
20
-92.6037
11
224.81
21
-92.6298
0
LINE
8
BLACK
6
CONTINUOUS
10
224.81
20
-92.6298
11
224.8
21
-92.6311
0
LINE
8
BLACK
6
CONTINUOUS
10
224.8
20
-92.6311
11
224.789
21
-92.6345
0
LINE
8
BLACK
6
CONTINUOUS
10
224.789
20
-92.6345
11
224.713
21
-92.6411
0
LINE
8
BLACK
6
CONTINUOUS
10
224.713
20
-92.6411
11
224.637
21
-92.65
0
LINE
8
BLACK
6
CONTINUOUS
10
224.637
20
-92.65
11
218.2
21
-92.65
0
LINE
8
BLACK
6
CONTINUOUS
10
218.2
20
-92.65
11
218.182
21
-92.6768
0
LINE
8
BLACK
6
CONTINUOUS
10
218.182
20
-92.6768
11
218.101
21
-92.731
0
LINE
8
BLACK
6
CONTINUOUS
10
218.101
20
-92.731
11
218.005
21
-92.75
0
LINE
8
BLACK
6
CONTINUOUS
10
218.005
20
-92.75
11
216.505
21
-92.75
0
LINE
8
BLACK
6
CONTINUOUS
10
216.505
20
-92.75
11
216.409
21
-92.731
0
LINE
8
BLACK
6
CONTINUOUS
10
216.409
20
-92.731
11
216.328
21
-92.6768
0
LINE
8
BLACK
6
CONTINUOUS
10
216.328
20
-92.6768
11
216.31
21
-92.65
0
LINE
8
BLACK
6
CONTINUOUS
10
216.31
20
-92.65
11
210.855
21
-92.65
0
LINE
8
BLACK
6
CONTINUOUS
10
210.855
20
-92.65
11
210.8
21
-92.6468
0
LINE
8
BLACK
6
CONTINUOUS
10
210.8
20
-92.6468
11
210.79
21
-92.6471
0
LINE
8
BLACK
6
CONTINUOUS
10
210.79
20
-92.6471
11
210.783
21
-92.6458
0
LINE
8
BLACK
6
CONTINUOUS
10
210.783
20
-92.6458
11
210.768
21
-92.6449
0
LINE
8
BLACK
6
CONTINUOUS
10
210.768
20
-92.6449
11
210.694
21
-92.6273
0
LINE
8
BLACK
6
CONTINUOUS
10
210.694
20
-92.6273
11
210.619
21
-92.6119
0
LINE
8
BLACK
6
CONTINUOUS
10
210.619
20
-92.6119
11
210.609
21
-92.6073
0
LINE
8
BLACK
6
CONTINUOUS
10
210.609
20
-92.6073
11
210.598
21
-92.6048
0
LINE
8
BLACK
6
CONTINUOUS
10
210.598
20
-92.6048
11
210.53
21
-92.5706
0
LINE
8
BLACK
6
CONTINUOUS
10
210.53
20
-92.5706
11
210.461
21
-92.5383
0
LINE
8
BLACK
6
CONTINUOUS
10
210.461
20
-92.5383
11
210.453
21
-92.5315
0
LINE
8
BLACK
6
CONTINUOUS
10
210.453
20
-92.5315
11
210.443
21
-92.5266
0
LINE
8
BLACK
6
CONTINUOUS
10
210.443
20
-92.5266
11
210.384
21
-92.4776
0
LINE
8
BLACK
6
CONTINUOUS
10
210.384
20
-92.4776
11
210.325
21
-92.4303
0
LINE
8
BLACK
6
CONTINUOUS
10
210.325
20
-92.4303
11
209.13
21
-91.2354
0
LINE
8
BLACK
6
CONTINUOUS
10
209.13
20
-91.2354
11
209.093
21
-91.1947
0
LINE
8
BLACK
6
CONTINUOUS
10
209.093
20
-91.1947
11
209.085
21
-91.1872
0
LINE
8
BLACK
6
CONTINUOUS
10
209.085
20
-91.1872
11
209.082
21
-91.1817
0
LINE
8
BLACK
6
CONTINUOUS
10
209.082
20
-91.1817
11
209.072
21
-91.1703
0
LINE
8
BLACK
6
CONTINUOUS
10
209.072
20
-91.1703
11
209.032
21
-91.1054
0
LINE
8
BLACK
6
CONTINUOUS
10
209.032
20
-91.1054
11
208.99
21
-91.0417
0
LINE
8
BLACK
6
CONTINUOUS
10
208.99
20
-91.0417
11
208.986
21
-91.0314
0
LINE
8
BLACK
6
CONTINUOUS
10
208.986
20
-91.0314
11
208.98
21
-91.0221
0
LINE
8
BLACK
6
CONTINUOUS
10
208.98
20
-91.0221
11
208.956
21
-90.9497
0
LINE
8
BLACK
6
CONTINUOUS
10
208.956
20
-90.9497
11
208.93
21
-90.8781
0
LINE
8
BLACK
6
CONTINUOUS
10
208.93
20
-90.8781
11
208.929
21
-90.8672
0
LINE
8
BLACK
6
CONTINUOUS
10
208.929
20
-90.8672
11
208.925
21
-90.8568
0
LINE
8
BLACK
6
CONTINUOUS
10
208.925
20
-90.8568
11
208.919
21
-90.7808
0
LINE
8
BLACK
6
CONTINUOUS
10
208.919
20
-90.7808
11
208.91
21
-90.7051
0
LINE
8
BLACK
6
CONTINUOUS
10
208.91
20
-90.7051
11
208.91
21
-89.85
0
LINE
8
BLACK
6
CONTINUOUS
10
208.91
20
-89.85
11
202.1
21
-89.85
0
LINE
8
BLACK
6
CONTINUOUS
10
202.1
20
-89.85
11
202.046
21
-89.8468
0
LINE
8
BLACK
6
CONTINUOUS
10
202.046
20
-89.8468
11
202.035
21
-89.8471
0
LINE
8
BLACK
6
CONTINUOUS
10
202.035
20
-89.8471
11
202.028
21
-89.8458
0
LINE
8
BLACK
6
CONTINUOUS
10
202.028
20
-89.8458
11
202.013
21
-89.8449
0
LINE
8
BLACK
6
CONTINUOUS
10
202.013
20
-89.8449
11
201.939
21
-89.8273
0
LINE
8
BLACK
6
CONTINUOUS
10
201.939
20
-89.8273
11
201.864
21
-89.8119
0
LINE
8
BLACK
6
CONTINUOUS
10
201.864
20
-89.8119
11
201.854
21
-89.8073
0
LINE
8
BLACK
6
CONTINUOUS
10
201.854
20
-89.8073
11
201.843
21
-89.8048
0
LINE
8
BLACK
6
CONTINUOUS
10
201.843
20
-89.8048
11
201.775
21
-89.7706
0
LINE
8
BLACK
6
CONTINUOUS
10
201.775
20
-89.7706
11
201.706
21
-89.7383
0
LINE
8
BLACK
6
CONTINUOUS
10
201.706
20
-89.7383
11
201.698
21
-89.7315
0
LINE
8
BLACK
6
CONTINUOUS
10
201.698
20
-89.7315
11
201.688
21
-89.7266
0
LINE
8
BLACK
6
CONTINUOUS
10
201.688
20
-89.7266
11
201.629
21
-89.6776
0
LINE
8
BLACK
6
CONTINUOUS
10
201.629
20
-89.6776
11
201.57
21
-89.6303
0
LINE
8
BLACK
6
CONTINUOUS
10
201.57
20
-89.6303
11
199.33
21
-87.3903
0
LINE
8
BLACK
6
CONTINUOUS
10
199.33
20
-87.3903
11
199.293
21
-87.3496
0
LINE
8
BLACK
6
CONTINUOUS
10
199.293
20
-87.3496
11
199.285
21
-87.3421
0
LINE
8
BLACK
6
CONTINUOUS
10
199.285
20
-87.3421
11
199.282
21
-87.3366
0
LINE
8
BLACK
6
CONTINUOUS
10
199.282
20
-87.3366
11
199.272
21
-87.3252
0
LINE
8
BLACK
6
CONTINUOUS
10
199.272
20
-87.3252
11
199.232
21
-87.2603
0
LINE
8
BLACK
6
CONTINUOUS
10
199.232
20
-87.2603
11
199.19
21
-87.1966
0
LINE
8
BLACK
6
CONTINUOUS
10
199.19
20
-87.1966
11
199.186
21
-87.1863
0
LINE
8
BLACK
6
CONTINUOUS
10
199.186
20
-87.1863
11
199.18
21
-87.177
0
LINE
8
BLACK
6
CONTINUOUS
10
199.18
20
-87.177
11
199.156
21
-87.1046
0
LINE
8
BLACK
6
CONTINUOUS
10
199.156
20
-87.1046
11
199.13
21
-87.033
0
LINE
8
BLACK
6
CONTINUOUS
10
199.13
20
-87.033
11
199.129
21
-87.0221
0
LINE
8
BLACK
6
CONTINUOUS
10
199.129
20
-87.0221
11
199.125
21
-87.0117
0
LINE
8
BLACK
6
CONTINUOUS
10
199.125
20
-87.0117
11
199.119
21
-86.9357
0
LINE
8
BLACK
6
CONTINUOUS
10
199.119
20
-86.9357
11
199.11
21
-86.86
0
LINE
8
BLACK
6
CONTINUOUS
10
199.11
20
-86.86
11
199.11
21
-83.46
0
LINE
8
BLACK
6
CONTINUOUS
10
199.11
20
-83.46
11
199.113
21
-83.4055
0
LINE
8
BLACK
6
CONTINUOUS
10
199.113
20
-83.4055
11
199.113
21
-83.3946
0
LINE
8
BLACK
6
CONTINUOUS
10
199.113
20
-83.3946
11
199.114
21
-83.3882
0
LINE
8
BLACK
6
CONTINUOUS
10
199.114
20
-83.3882
11
199.115
21
-83.3729
0
LINE
8
BLACK
6
CONTINUOUS
10
199.115
20
-83.3729
11
199.133
21
-83.2987
0
LINE
8
BLACK
6
CONTINUOUS
10
199.133
20
-83.2987
11
199.148
21
-83.2241
0
LINE
8
BLACK
6
CONTINUOUS
10
199.148
20
-83.2241
11
199.153
21
-83.2142
0
LINE
8
BLACK
6
CONTINUOUS
10
199.153
20
-83.2142
11
199.155
21
-83.2035
0
LINE
8
BLACK
6
CONTINUOUS
10
199.155
20
-83.2035
11
199.189
21
-83.1354
0
LINE
8
BLACK
6
CONTINUOUS
10
199.189
20
-83.1354
11
199.222
21
-83.0663
0
LINE
8
BLACK
6
CONTINUOUS
10
199.222
20
-83.0663
11
199.228
21
-83.0577
0
LINE
8
BLACK
6
CONTINUOUS
10
199.228
20
-83.0577
11
199.233
21
-83.0479
0
LINE
8
BLACK
6
CONTINUOUS
10
199.233
20
-83.0479
11
199.282
21
-82.9895
0
LINE
8
BLACK
6
CONTINUOUS
10
199.282
20
-82.9895
11
199.33
21
-82.9297
0
LINE
8
BLACK
6
CONTINUOUS
10
199.33
20
-82.9297
11
200.63
21
-81.6297
0
LINE
8
BLACK
6
CONTINUOUS
10
200.63
20
-81.6297
11
200.67
21
-81.5934
0
LINE
8
BLACK
6
CONTINUOUS
10
200.67
20
-81.5934
11
200.678
21
-81.5855
0
LINE
8
BLACK
6
CONTINUOUS
10
200.678
20
-81.5855
11
200.683
21
-81.5819
0
LINE
8
BLACK
6
CONTINUOUS
10
200.683
20
-81.5819
11
200.695
21
-81.5717
0
LINE
8
BLACK
6
CONTINUOUS
10
200.695
20
-81.5717
11
200.76
21
-81.5317
0
LINE
8
BLACK
6
CONTINUOUS
10
200.76
20
-81.5317
11
200.823
21
-81.4898
0
LINE
8
BLACK
6
CONTINUOUS
10
200.823
20
-81.4898
11
200.834
21
-81.486
0
LINE
8
BLACK
6
CONTINUOUS
10
200.834
20
-81.486
11
200.843
21
-81.4803
0
LINE
8
BLACK
6
CONTINUOUS
10
200.843
20
-81.4803
11
200.915
21
-81.4563
0
LINE
8
BLACK
6
CONTINUOUS
10
200.915
20
-81.4563
11
200.987
21
-81.4302
0
LINE
8
BLACK
6
CONTINUOUS
10
200.987
20
-81.4302
11
200.998
21
-81.4289
0
LINE
8
BLACK
6
CONTINUOUS
10
200.998
20
-81.4289
11
201.008
21
-81.4255
0
LINE
8
BLACK
6
CONTINUOUS
10
201.008
20
-81.4255
11
201.084
21
-81.4188
0
LINE
8
BLACK
6
CONTINUOUS
10
201.084
20
-81.4188
11
201.16
21
-81.41
0
LINE
8
BLACK
6
CONTINUOUS
10
201.16
20
-81.41
11
203.345
21
-81.41
0
LINE
8
BLACK
6
CONTINUOUS
10
203.345
20
-81.41
11
203.444
21
-81.3285
0
LINE
8
BLACK
6
CONTINUOUS
10
203.444
20
-81.3285
11
203.617
21
-81.2361
0
LINE
8
BLACK
6
CONTINUOUS
10
203.617
20
-81.2361
11
203.805
21
-81.1792
0
LINE
8
BLACK
6
CONTINUOUS
10
203.805
20
-81.1792
11
204
21
-81.16
0
LINE
8
BLACK
6
CONTINUOUS
10
204
20
-81.16
11
204.195
21
-81.1792
0
LINE
8
BLACK
6
CONTINUOUS
10
204.195
20
-81.1792
11
204.383
21
-81.2361
0
LINE
8
BLACK
6
CONTINUOUS
10
204.383
20
-81.2361
11
204.556
21
-81.3285
0
LINE
8
BLACK
6
CONTINUOUS
10
204.556
20
-81.3285
11
204.655
21
-81.41
0
LINE
8
BLACK
6
CONTINUOUS
10
204.655
20
-81.41
11
208.232
21
-81.41
0
LINE
8
BLACK
6
CONTINUOUS
10
208.232
20
-81.41
11
208.313
21
-81.3592
0
LINE
8
BLACK
6
CONTINUOUS
10
208.313
20
-81.3592
11
208.482
21
-81.3001
0
LINE
8
BLACK
6
CONTINUOUS
10
208.482
20
-81.3001
11
208.66
21
-81.28
0
LINE
8
BLACK
6
CONTINUOUS
10
208.66
20
-81.28
11
208.838
21
-81.3001
0
LINE
8
BLACK
6
CONTINUOUS
10
208.838
20
-81.3001
11
209.007
21
-81.3592
0
LINE
8
BLACK
6
CONTINUOUS
10
209.007
20
-81.3592
11
209.159
21
-81.4545
0
LINE
8
BLACK
6
CONTINUOUS
10
209.159
20
-81.4545
11
209.285
21
-81.5812
0
LINE
8
BLACK
6
CONTINUOUS
10
209.285
20
-81.5812
11
209.381
21
-81.7329
0
LINE
8
BLACK
6
CONTINUOUS
10
209.381
20
-81.7329
11
209.44
21
-81.902
0
LINE
8
BLACK
6
CONTINUOUS
10
209.44
20
-81.902
11
209.46
21
-82.08
0
LINE
8
BLACK
6
CONTINUOUS
10
209.46
20
-82.08
11
209.44
21
-82.258
0
LINE
8
BLACK
6
CONTINUOUS
10
209.44
20
-82.258
11
209.381
21
-82.4271
0
LINE
8
BLACK
6
CONTINUOUS
10
209.381
20
-82.4271
11
209.285
21
-82.5788
0
LINE
8
BLACK
6
CONTINUOUS
10
209.285
20
-82.5788
11
209.159
21
-82.7055
0
LINE
8
BLACK
6
CONTINUOUS
10
209.159
20
-82.7055
11
209.007
21
-82.8008
0
LINE
8
BLACK
6
CONTINUOUS
10
209.007
20
-82.8008
11
208.899
21
-82.8388
0
LINE
8
BLACK
6
CONTINUOUS
10
208.899
20
-82.8388
11
208.897
21
-82.8397
0
LINE
8
BLACK
6
CONTINUOUS
10
208.897
20
-82.8397
11
208.875
21
-82.8471
0
LINE
8
BLACK
6
CONTINUOUS
10
208.875
20
-82.8471
11
208.838
21
-82.8599
0
LINE
8
BLACK
6
CONTINUOUS
10
208.838
20
-82.8599
11
208.835
21
-82.8603
0
LINE
8
BLACK
6
CONTINUOUS
10
208.835
20
-82.8603
11
208.825
21
-82.8637
0
LINE
8
BLACK
6
CONTINUOUS
10
208.825
20
-82.8637
11
208.753
21
-82.8898
0
LINE
8
BLACK
6
CONTINUOUS
10
208.753
20
-82.8898
11
208.742
21
-82.8911
0
LINE
8
BLACK
6
CONTINUOUS
10
208.742
20
-82.8911
11
208.732
21
-82.8945
0
LINE
8
BLACK
6
CONTINUOUS
10
208.732
20
-82.8945
11
208.656
21
-82.9011
0
LINE
8
BLACK
6
CONTINUOUS
10
208.656
20
-82.9011
11
208.58
21
-82.91
0
LINE
8
BLACK
6
CONTINUOUS
10
208.58
20
-82.91
11
204.655
21
-82.91
0
LINE
8
BLACK
6
CONTINUOUS
10
204.655
20
-82.91
11
204.556
21
-82.9915
0
LINE
8
BLACK
6
CONTINUOUS
10
204.556
20
-82.9915
11
204.383
21
-83.0839
0
LINE
8
BLACK
6
CONTINUOUS
10
204.383
20
-83.0839
11
204.195
21
-83.1408
0
LINE
8
BLACK
6
CONTINUOUS
10
204.195
20
-83.1408
11
204
21
-83.16
0
LINE
8
BLACK
6
CONTINUOUS
10
204
20
-83.16
11
203.805
21
-83.1408
0
LINE
8
BLACK
6
CONTINUOUS
10
203.805
20
-83.1408
11
203.617
21
-83.0839
0
LINE
8
BLACK
6
CONTINUOUS
10
203.617
20
-83.0839
11
203.444
21
-82.9915
0
LINE
8
BLACK
6
CONTINUOUS
10
203.444
20
-82.9915
11
203.345
21
-82.91
0
LINE
8
BLACK
6
CONTINUOUS
10
203.345
20
-82.91
11
201.471
21
-82.91
0
LINE
8
BLACK
6
CONTINUOUS
10
201.471
20
-82.91
11
200.61
21
-83.7707
0
LINE
8
BLACK
6
CONTINUOUS
10
200.61
20
-83.7707
11
200.61
21
-86.5493
0
LINE
8
BLACK
6
CONTINUOUS
10
200.61
20
-86.5493
11
202.411
21
-88.35
0
LINE
8
BLACK
6
CONTINUOUS
10
202.411
20
-88.35
11
209.396
21
-88.35
0
LINE
8
BLACK
6
CONTINUOUS
10
209.396
20
-88.35
11
209.482
21
-88.3201
0
LINE
8
BLACK
6
CONTINUOUS
10
209.482
20
-88.3201
11
209.66
21
-88.3
0
LINE
8
BLACK
6
CONTINUOUS
10
209.66
20
-88.3
11
209.838
21
-88.3201
0
LINE
8
BLACK
6
CONTINUOUS
10
209.838
20
-88.3201
11
210.007
21
-88.3792
0
LINE
8
BLACK
6
CONTINUOUS
10
210.007
20
-88.3792
11
210.159
21
-88.4745
0
LINE
8
BLACK
6
CONTINUOUS
10
210.159
20
-88.4745
11
210.285
21
-88.6012
0
LINE
8
BLACK
6
CONTINUOUS
10
210.285
20
-88.6012
11
210.381
21
-88.7529
0
LINE
8
BLACK
6
CONTINUOUS
10
210.381
20
-88.7529
11
210.44
21
-88.922
0
LINE
8
BLACK
6
CONTINUOUS
10
210.44
20
-88.922
11
210.46
21
-89.1
0
LINE
8
BLACK
6
CONTINUOUS
10
210.46
20
-89.1
11
210.44
21
-89.278
0
LINE
8
BLACK
6
CONTINUOUS
10
210.44
20
-89.278
11
210.41
21
-89.3636
0
LINE
8
BLACK
6
CONTINUOUS
10
210.41
20
-89.3636
11
210.41
21
-90.3945
0
LINE
8
BLACK
6
CONTINUOUS
10
210.41
20
-90.3945
11
211.166
21
-91.15
0
LINE
8
BLACK
6
CONTINUOUS
10
211.166
20
-91.15
11
216.31
21
-91.15
0
LINE
8
BLACK
6
CONTINUOUS
10
216.31
20
-91.15
11
216.328
21
-91.1232
0
LINE
8
BLACK
6
CONTINUOUS
10
216.328
20
-91.1232
11
216.409
21
-91.069
0
LINE
8
BLACK
6
CONTINUOUS
10
216.409
20
-91.069
11
216.505
21
-91.05
0
LINE
8
BLACK
6
CONTINUOUS
10
216.505
20
-91.05
11
218.005
21
-91.05
0
LINE
8
BLACK
6
CONTINUOUS
10
218.005
20
-91.05
11
218.101
21
-91.069
0
LINE
8
BLACK
6
CONTINUOUS
10
218.101
20
-91.069
11
218.182
21
-91.1232
0
LINE
8
BLACK
6
CONTINUOUS
10
218.182
20
-91.1232
11
218.2
21
-91.15
0
LINE
8
BLACK
6
CONTINUOUS
10
218.2
20
-91.15
11
224.327
21
-91.15
0
LINE
8
BLACK
6
CONTINUOUS
10
224.327
20
-91.15
11
224.905
21
-90.5719
0
LINE
8
BLACK
6
CONTINUOUS
10
224.905
20
-90.5719
11
224.905
21
-88.9636
0
LINE
8
BLACK
6
CONTINUOUS
10
224.905
20
-88.9636
11
224.875
21
-88.878
0
LINE
8
BLACK
6
CONTINUOUS
10
224.875
20
-88.878
11
224.855
21
-88.7
0
LINE
8
BLACK
6
CONTINUOUS
10
224.855
20
-88.7
11
224.875
21
-88.522
0
LINE
8
BLACK
6
CONTINUOUS
10
224.875
20
-88.522
11
224.905
21
-88.4364
0
LINE
8
BLACK
6
CONTINUOUS
10
224.905
20
-88.4364
11
224.905
21
-66.4655
0
LINE
8
BLACK
6
CONTINUOUS
10
224.905
20
-66.4655
11
224.499
21
-66.06
0
LINE
8
BLACK
6
CONTINUOUS
10
224.499
20
-66.06
11
223.607
21
-66.06
0
LINE
8
BLACK
6
CONTINUOUS
10
223.607
20
-66.06
11
223.607
21
-64.06
0
LINE
8
BLACK
6
CONTINUOUS
10
223.607
20
-64.06
11
223.81
21
-64.06
0
LINE
8
BLACK
6
CONTINUOUS
10
223.81
20
-64.06
11
223.81
21
-59.8307
0
LINE
8
BLACK
6
CONTINUOUS
10
223.81
20
-59.8307
11
221.13
21
-57.1503
0
LINE
8
BLACK
6
CONTINUOUS
10
221.13
20
-57.1503
11
221.093
21
-57.1096
0
LINE
8
BLACK
6
CONTINUOUS
10
221.093
20
-57.1096
11
221.085
21
-57.1021
0
LINE
8
BLACK
6
CONTINUOUS
10
221.085
20
-57.1021
11
221.082
21
-57.0966
0
LINE
8
BLACK
6
CONTINUOUS
10
221.082
20
-57.0966
11
221.072
21
-57.0852
0
LINE
8
BLACK
6
CONTINUOUS
10
221.072
20
-57.0852
11
221.032
21
-57.0203
0
LINE
8
BLACK
6
CONTINUOUS
10
221.032
20
-57.0203
11
220.99
21
-56.9566
0
LINE
8
BLACK
6
CONTINUOUS
10
220.99
20
-56.9566
11
220.986
21
-56.9463
0
LINE
8
BLACK
6
CONTINUOUS
10
220.986
20
-56.9463
11
220.98
21
-56.937
0
LINE
8
BLACK
6
CONTINUOUS
10
220.98
20
-56.937
11
220.956
21
-56.8646
0
LINE
8
BLACK
6
CONTINUOUS
10
220.956
20
-56.8646
11
220.93
21
-56.793
0
LINE
8
BLACK
6
CONTINUOUS
10
220.93
20
-56.793
11
220.929
21
-56.7821
0
LINE
8
BLACK
6
CONTINUOUS
10
220.929
20
-56.7821
11
220.925
21
-56.7717
0
LINE
8
BLACK
6
CONTINUOUS
10
220.925
20
-56.7717
11
220.919
21
-56.6957
0
LINE
8
BLACK
6
CONTINUOUS
10
220.919
20
-56.6957
11
220.91
21
-56.62
0
LINE
8
BLACK
6
CONTINUOUS
10
220.91
20
-56.62
11
220.91
21
-48.8307
0
LINE
8
BLACK
6
CONTINUOUS
10
220.91
20
-48.8307
11
219.449
21
-47.37
0
LINE
8
BLACK
6
CONTINUOUS
10
219.449
20
-47.37
11
215.81
21
-47.37
0
LINE
8
BLACK
6
CONTINUOUS
10
215.81
20
-47.37
11
215.81
21
-47.47
0
LINE
8
BLACK
6
CONTINUOUS
10
215.81
20
-47.47
11
214.11
21
-47.47
0
LINE
8
BLACK
6
CONTINUOUS
10
214.11
20
-47.47
11
214.11
21
-47.33
0
LINE
8
BLACK
6
CONTINUOUS
10
214.11
20
-47.33
11
209.11
21
-47.33
0
LINE
8
BLACK
6
CONTINUOUS
10
209.11
20
-47.33
11
209.11
21
-47.43
0
LINE
8
BLACK
6
CONTINUOUS
10
209.11
20
-47.43
11
207.41
21
-47.43
0
LINE
8
BLACK
6
CONTINUOUS
10
207.41
20
-47.43
11
207.41
21
-45.73
0
LINE
8
BLACK
6
CONTINUOUS
10
207.41
20
-45.73
11
209.11
21
-45.73
0
LINE
8
BLACK
6
CONTINUOUS
10
209.11
20
-45.73
11
209.11
21
-45.83
0
LINE
8
BLACK
6
CONTINUOUS
10
219.624
20
-64.071
11
219.811
21
-64.1193
0
LINE
8
BLACK
6
CONTINUOUS
10
219.811
20
-64.1193
11
219.984
21
-64.2042
0
LINE
8
BLACK
6
CONTINUOUS
10
219.984
20
-64.2042
11
220.136
21
-64.3221
0
LINE
8
BLACK
6
CONTINUOUS
10
220.136
20
-64.3221
11
220.262
21
-64.4684
0
LINE
8
BLACK
6
CONTINUOUS
10
220.262
20
-64.4684
11
220.355
21
-64.6369
0
LINE
8
BLACK
6
CONTINUOUS
10
220.355
20
-64.6369
11
220.413
21
-64.8208
0
LINE
8
BLACK
6
CONTINUOUS
10
220.413
20
-64.8208
11
220.432
21
-65.0125
0
LINE
8
BLACK
6
CONTINUOUS
10
220.432
20
-65.0125
11
220.432
21
-65.1075
0
LINE
8
BLACK
6
CONTINUOUS
10
220.432
20
-65.1075
11
220.428
21
-65.2039
0
LINE
8
BLACK
6
CONTINUOUS
10
220.428
20
-65.2039
11
220.389
21
-65.3926
0
LINE
8
BLACK
6
CONTINUOUS
10
220.389
20
-65.3926
11
220.313
21
-65.5697
0
LINE
8
BLACK
6
CONTINUOUS
10
220.313
20
-65.5697
11
220.23
21
-65.6887
0
LINE
8
BLACK
6
CONTINUOUS
10
220.23
20
-65.6887
11
220.23
21
-76.44
0
LINE
8
BLACK
6
CONTINUOUS
10
220.23
20
-76.44
11
220.227
21
-76.4945
0
LINE
8
BLACK
6
CONTINUOUS
10
220.227
20
-76.4945
11
220.227
21
-76.5054
0
LINE
8
BLACK
6
CONTINUOUS
10
220.227
20
-76.5054
11
220.226
21
-76.5118
0
LINE
8
BLACK
6
CONTINUOUS
10
220.226
20
-76.5118
11
220.225
21
-76.5271
0
LINE
8
BLACK
6
CONTINUOUS
10
220.225
20
-76.5271
11
220.207
21
-76.6013
0
LINE
8
BLACK
6
CONTINUOUS
10
220.207
20
-76.6013
11
220.192
21
-76.6759
0
LINE
8
BLACK
6
CONTINUOUS
10
220.192
20
-76.6759
11
220.187
21
-76.6858
0
LINE
8
BLACK
6
CONTINUOUS
10
220.187
20
-76.6858
11
220.185
21
-76.6965
0
LINE
8
BLACK
6
CONTINUOUS
10
220.185
20
-76.6965
11
220.151
21
-76.7646
0
LINE
8
BLACK
6
CONTINUOUS
10
220.151
20
-76.7646
11
220.118
21
-76.8337
0
LINE
8
BLACK
6
CONTINUOUS
10
220.118
20
-76.8337
11
220.112
21
-76.8423
0
LINE
8
BLACK
6
CONTINUOUS
10
220.112
20
-76.8423
11
220.107
21
-76.8521
0
LINE
8
BLACK
6
CONTINUOUS
10
220.107
20
-76.8521
11
220.058
21
-76.9105
0
LINE
8
BLACK
6
CONTINUOUS
10
220.058
20
-76.9105
11
220.01
21
-76.9703
0
LINE
8
BLACK
6
CONTINUOUS
10
220.01
20
-76.9703
11
219.277
21
-77.704
0
LINE
8
BLACK
6
CONTINUOUS
10
219.277
20
-77.704
11
219.238
21
-77.7505
0
LINE
8
BLACK
6
CONTINUOUS
10
219.238
20
-77.7505
11
219.19
21
-77.8103
0
LINE
8
BLACK
6
CONTINUOUS
10
219.19
20
-77.8103
11
214.61
21
-82.3907
0
LINE
8
BLACK
6
CONTINUOUS
10
214.61
20
-82.3907
11
214.61
21
-82.5745
0
LINE
8
BLACK
6
CONTINUOUS
10
214.61
20
-82.5745
11
217.179
21
-85.1434
0
LINE
8
BLACK
6
CONTINUOUS
10
217.179
20
-85.1434
11
217.225
21
-85.1824
0
LINE
8
BLACK
6
CONTINUOUS
10
217.225
20
-85.1824
11
217.285
21
-85.2297
0
LINE
8
BLACK
6
CONTINUOUS
10
217.285
20
-85.2297
11
217.785
21
-85.7297
0
LINE
8
BLACK
6
CONTINUOUS
10
217.785
20
-85.7297
11
217.821
21
-85.7704
0
LINE
8
BLACK
6
CONTINUOUS
10
217.821
20
-85.7704
11
217.829
21
-85.7779
0
LINE
8
BLACK
6
CONTINUOUS
10
217.829
20
-85.7779
11
217.833
21
-85.7834
0
LINE
8
BLACK
6
CONTINUOUS
10
217.833
20
-85.7834
11
217.843
21
-85.7948
0
LINE
8
BLACK
6
CONTINUOUS
10
217.843
20
-85.7948
11
217.883
21
-85.8597
0
LINE
8
BLACK
6
CONTINUOUS
10
217.883
20
-85.8597
11
217.925
21
-85.9234
0
LINE
8
BLACK
6
CONTINUOUS
10
217.925
20
-85.9234
11
217.929
21
-85.9337
0
LINE
8
BLACK
6
CONTINUOUS
10
217.929
20
-85.9337
11
217.935
21
-85.943
0
LINE
8
BLACK
6
CONTINUOUS
10
217.935
20
-85.943
11
217.959
21
-86.0154
0
LINE
8
BLACK
6
CONTINUOUS
10
217.959
20
-86.0154
11
217.985
21
-86.087
0
LINE
8
BLACK
6
CONTINUOUS
10
217.985
20
-86.087
11
217.986
21
-86.0979
0
LINE
8
BLACK
6
CONTINUOUS
10
217.986
20
-86.0979
11
217.989
21
-86.1083
0
LINE
8
BLACK
6
CONTINUOUS
10
217.989
20
-86.1083
11
217.996
21
-86.1843
0
LINE
8
BLACK
6
CONTINUOUS
10
217.996
20
-86.1843
11
218.005
21
-86.26
0
LINE
8
BLACK
6
CONTINUOUS
10
218.005
20
-86.26
11
218.005
21
-87.95
0
LINE
8
BLACK
6
CONTINUOUS
10
218.005
20
-87.95
11
222.355
21
-87.95
0
LINE
8
BLACK
6
CONTINUOUS
10
222.355
20
-87.95
11
222.355
21
-87.9
0
LINE
8
BLACK
6
CONTINUOUS
10
222.355
20
-87.9
11
223.955
21
-87.9
0
LINE
8
BLACK
6
CONTINUOUS
10
223.955
20
-87.9
11
223.955
21
-89.5
0
LINE
8
BLACK
6
CONTINUOUS
10
223.955
20
-89.5
11
222.355
21
-89.5
0
LINE
8
BLACK
6
CONTINUOUS
10
222.355
20
-89.5
11
222.355
21
-89.45
0
LINE
8
BLACK
6
CONTINUOUS
10
222.355
20
-89.45
11
218.266
21
-89.45
0
LINE
8
BLACK
6
CONTINUOUS
10
218.266
20
-89.45
11
218.251
21
-89.465
0
LINE
8
BLACK
6
CONTINUOUS
10
218.251
20
-89.465
11
218.224
21
-89.6274
0
LINE
8
BLACK
6
CONTINUOUS
10
218.224
20
-89.6274
11
218.156
21
-89.7981
0
LINE
8
BLACK
6
CONTINUOUS
10
218.156
20
-89.7981
11
218.053
21
-89.9503
0
LINE
8
BLACK
6
CONTINUOUS
10
218.053
20
-89.9503
11
217.919
21
-90.0767
0
LINE
8
BLACK
6
CONTINUOUS
10
217.919
20
-90.0767
11
217.762
21
-90.1714
0
LINE
8
BLACK
6
CONTINUOUS
10
217.762
20
-90.1714
11
217.588
21
-90.2301
0
LINE
8
BLACK
6
CONTINUOUS
10
217.588
20
-90.2301
11
217.405
21
-90.25
0
LINE
8
BLACK
6
CONTINUOUS
10
217.405
20
-90.25
11
217.105
21
-90.25
0
LINE
8
BLACK
6
CONTINUOUS
10
217.105
20
-90.25
11
217.013
21
-90.245
0
LINE
8
BLACK
6
CONTINUOUS
10
217.013
20
-90.245
11
216.833
21
-90.2055
0
LINE
8
BLACK
6
CONTINUOUS
10
216.833
20
-90.2055
11
216.667
21
-90.1283
0
LINE
8
BLACK
6
CONTINUOUS
10
216.667
20
-90.1283
11
216.52
21
-90.0171
0
LINE
8
BLACK
6
CONTINUOUS
10
216.52
20
-90.0171
11
216.401
21
-89.877
0
LINE
8
BLACK
6
CONTINUOUS
10
216.401
20
-89.877
11
216.315
21
-89.7146
0
LINE
8
BLACK
6
CONTINUOUS
10
216.315
20
-89.7146
11
216.266
21
-89.5375
0
LINE
8
BLACK
6
CONTINUOUS
10
216.266
20
-89.5375
11
216.256
21
-89.354
0
LINE
8
BLACK
6
CONTINUOUS
10
216.256
20
-89.354
11
216.286
21
-89.1726
0
LINE
8
BLACK
6
CONTINUOUS
10
216.286
20
-89.1726
11
216.354
21
-89.0019
0
LINE
8
BLACK
6
CONTINUOUS
10
216.354
20
-89.0019
11
216.457
21
-88.8497
0
LINE
8
BLACK
6
CONTINUOUS
10
216.457
20
-88.8497
11
216.505
21
-88.8044
0
LINE
8
BLACK
6
CONTINUOUS
10
216.505
20
-88.8044
11
216.505
21
-86.5707
0
LINE
8
BLACK
6
CONTINUOUS
10
216.505
20
-86.5707
11
216.311
21
-86.3766
0
LINE
8
BLACK
6
CONTINUOUS
10
216.311
20
-86.3766
11
216.264
21
-86.3376
0
LINE
8
BLACK
6
CONTINUOUS
10
216.264
20
-86.3376
11
216.205
21
-86.2903
0
LINE
8
BLACK
6
CONTINUOUS
10
216.205
20
-86.2903
11
213.33
21
-83.4154
0
LINE
8
BLACK
6
CONTINUOUS
10
213.33
20
-83.4154
11
213.293
21
-83.3747
0
LINE
8
BLACK
6
CONTINUOUS
10
213.293
20
-83.3747
11
213.285
21
-83.3672
0
LINE
8
BLACK
6
CONTINUOUS
10
213.285
20
-83.3672
11
213.282
21
-83.3617
0
LINE
8
BLACK
6
CONTINUOUS
10
213.282
20
-83.3617
11
213.272
21
-83.3503
0
LINE
8
BLACK
6
CONTINUOUS
10
213.272
20
-83.3503
11
213.232
21
-83.2854
0
LINE
8
BLACK
6
CONTINUOUS
10
213.232
20
-83.2854
11
213.19
21
-83.2217
0
LINE
8
BLACK
6
CONTINUOUS
10
213.19
20
-83.2217
11
213.186
21
-83.2114
0
LINE
8
BLACK
6
CONTINUOUS
10
213.186
20
-83.2114
11
213.18
21
-83.2021
0
LINE
8
BLACK
6
CONTINUOUS
10
213.18
20
-83.2021
11
213.156
21
-83.1297
0
LINE
8
BLACK
6
CONTINUOUS
10
213.156
20
-83.1297
11
213.13
21
-83.0581
0
LINE
8
BLACK
6
CONTINUOUS
10
213.13
20
-83.0581
11
213.129
21
-83.0472
0
LINE
8
BLACK
6
CONTINUOUS
10
213.129
20
-83.0472
11
213.125
21
-83.0368
0
LINE
8
BLACK
6
CONTINUOUS
10
213.125
20
-83.0368
11
213.119
21
-82.9608
0
LINE
8
BLACK
6
CONTINUOUS
10
213.119
20
-82.9608
11
213.11
21
-82.8851
0
LINE
8
BLACK
6
CONTINUOUS
10
213.11
20
-82.8851
11
213.11
21
-82.3436
0
LINE
8
BLACK
6
CONTINUOUS
10
213.11
20
-82.3436
11
213.08
21
-82.258
0
LINE
8
BLACK
6
CONTINUOUS
10
213.08
20
-82.258
11
213.06
21
-82.08
0
LINE
8
BLACK
6
CONTINUOUS
10
213.06
20
-82.08
11
213.08
21
-81.902
0
LINE
8
BLACK
6
CONTINUOUS
10
213.08
20
-81.902
11
213.139
21
-81.7329
0
LINE
8
BLACK
6
CONTINUOUS
10
213.139
20
-81.7329
11
213.235
21
-81.5812
0
LINE
8
BLACK
6
CONTINUOUS
10
213.235
20
-81.5812
11
213.361
21
-81.4545
0
LINE
8
BLACK
6
CONTINUOUS
10
213.361
20
-81.4545
11
213.513
21
-81.3592
0
LINE
8
BLACK
6
CONTINUOUS
10
213.513
20
-81.3592
11
213.524
21
-81.3553
0
LINE
8
BLACK
6
CONTINUOUS
10
213.524
20
-81.3553
11
218.043
21
-76.836
0
LINE
8
BLACK
6
CONTINUOUS
10
218.043
20
-76.836
11
218.082
21
-76.7895
0
LINE
8
BLACK
6
CONTINUOUS
10
218.082
20
-76.7895
11
218.13
21
-76.7297
0
LINE
8
BLACK
6
CONTINUOUS
10
218.13
20
-76.7297
11
218.73
21
-76.1293
0
LINE
8
BLACK
6
CONTINUOUS
10
218.73
20
-76.1293
11
218.73
21
-65.6886
0
LINE
8
BLACK
6
CONTINUOUS
10
218.73
20
-65.6886
11
218.698
21
-65.6516
0
LINE
8
BLACK
6
CONTINUOUS
10
218.698
20
-65.6516
11
218.605
21
-65.4831
0
LINE
8
BLACK
6
CONTINUOUS
10
218.605
20
-65.4831
11
218.547
21
-65.2992
0
LINE
8
BLACK
6
CONTINUOUS
10
218.547
20
-65.2992
11
218.528
21
-65.1075
0
LINE
8
BLACK
6
CONTINUOUS
10
218.528
20
-65.1075
11
218.528
21
-65.0125
0
LINE
8
BLACK
6
CONTINUOUS
10
218.528
20
-65.0125
11
218.532
21
-64.9161
0
LINE
8
BLACK
6
CONTINUOUS
10
218.532
20
-64.9161
11
218.571
21
-64.7274
0
LINE
8
BLACK
6
CONTINUOUS
10
218.571
20
-64.7274
11
218.647
21
-64.5502
0
LINE
8
BLACK
6
CONTINUOUS
10
218.647
20
-64.5502
11
218.757
21
-64.3921
0
LINE
8
BLACK
6
CONTINUOUS
10
218.757
20
-64.3921
11
218.897
21
-64.2593
0
LINE
8
BLACK
6
CONTINUOUS
10
218.897
20
-64.2593
11
219.061
21
-64.1573
0
LINE
8
BLACK
6
CONTINUOUS
10
219.061
20
-64.1573
11
219.241
21
-64.0904
0
LINE
8
BLACK
6
CONTINUOUS
10
219.241
20
-64.0904
11
219.432
21
-64.0612
0
LINE
8
BLACK
6
CONTINUOUS
10
219.432
20
-64.0612
11
219.624
21
-64.071
0
LINE
8
BLACK
6
CONTINUOUS
10
208.523
20
-48.3116
11
208.654
21
-48.37
0
LINE
8
BLACK
6
CONTINUOUS
10
208.654
20
-48.37
11
214.656
21
-48.37
0
LINE
8
BLACK
6
CONTINUOUS
10
214.656
20
-48.37
11
214.697
21
-48.3516
0
LINE
8
BLACK
6
CONTINUOUS
10
214.697
20
-48.3516
11
214.871
21
-48.3147
0
LINE
8
BLACK
6
CONTINUOUS
10
214.871
20
-48.3147
11
215.049
21
-48.3147
0
LINE
8
BLACK
6
CONTINUOUS
10
215.049
20
-48.3147
11
215.223
21
-48.3516
0
LINE
8
BLACK
6
CONTINUOUS
10
215.223
20
-48.3516
11
215.354
21
-48.41
0
LINE
8
BLACK
6
CONTINUOUS
10
215.354
20
-48.41
11
217.9
21
-48.41
0
LINE
8
BLACK
6
CONTINUOUS
10
217.9
20
-48.41
11
217.954
21
-48.4132
0
LINE
8
BLACK
6
CONTINUOUS
10
217.954
20
-48.4132
11
217.965
21
-48.4129
0
LINE
8
BLACK
6
CONTINUOUS
10
217.965
20
-48.4129
11
217.972
21
-48.4142
0
LINE
8
BLACK
6
CONTINUOUS
10
217.972
20
-48.4142
11
217.987
21
-48.4151
0
LINE
8
BLACK
6
CONTINUOUS
10
217.987
20
-48.4151
11
218.061
21
-48.4327
0
LINE
8
BLACK
6
CONTINUOUS
10
218.061
20
-48.4327
11
218.136
21
-48.4481
0
LINE
8
BLACK
6
CONTINUOUS
10
218.136
20
-48.4481
11
218.146
21
-48.4527
0
LINE
8
BLACK
6
CONTINUOUS
10
218.146
20
-48.4527
11
218.157
21
-48.4552
0
LINE
8
BLACK
6
CONTINUOUS
10
218.157
20
-48.4552
11
218.225
21
-48.4894
0
LINE
8
BLACK
6
CONTINUOUS
10
218.225
20
-48.4894
11
218.294
21
-48.5217
0
LINE
8
BLACK
6
CONTINUOUS
10
218.294
20
-48.5217
11
218.302
21
-48.5285
0
LINE
8
BLACK
6
CONTINUOUS
10
218.302
20
-48.5285
11
218.312
21
-48.5334
0
LINE
8
BLACK
6
CONTINUOUS
10
218.312
20
-48.5334
11
218.371
21
-48.5824
0
LINE
8
BLACK
6
CONTINUOUS
10
218.371
20
-48.5824
11
218.43
21
-48.6297
0
LINE
8
BLACK
6
CONTINUOUS
10
218.43
20
-48.6297
11
219.29
21
-49.4897
0
LINE
8
BLACK
6
CONTINUOUS
10
219.29
20
-49.4897
11
219.327
21
-49.5304
0
LINE
8
BLACK
6
CONTINUOUS
10
219.327
20
-49.5304
11
219.335
21
-49.5379
0
LINE
8
BLACK
6
CONTINUOUS
10
219.335
20
-49.5379
11
219.338
21
-49.5434
0
LINE
8
BLACK
6
CONTINUOUS
10
219.338
20
-49.5434
11
219.348
21
-49.5548
0
LINE
8
BLACK
6
CONTINUOUS
10
219.348
20
-49.5548
11
219.388
21
-49.6197
0
LINE
8
BLACK
6
CONTINUOUS
10
219.388
20
-49.6197
11
219.43
21
-49.6834
0
LINE
8
BLACK
6
CONTINUOUS
10
219.43
20
-49.6834
11
219.434
21
-49.6937
0
LINE
8
BLACK
6
CONTINUOUS
10
219.434
20
-49.6937
11
219.44
21
-49.703
0
LINE
8
BLACK
6
CONTINUOUS
10
219.44
20
-49.703
11
219.464
21
-49.7754
0
LINE
8
BLACK
6
CONTINUOUS
10
219.464
20
-49.7754
11
219.49
21
-49.847
0
LINE
8
BLACK
6
CONTINUOUS
10
219.49
20
-49.847
11
219.491
21
-49.8579
0
LINE
8
BLACK
6
CONTINUOUS
10
219.491
20
-49.8579
11
219.495
21
-49.8683
0
LINE
8
BLACK
6
CONTINUOUS
10
219.495
20
-49.8683
11
219.501
21
-49.9443
0
LINE
8
BLACK
6
CONTINUOUS
10
219.501
20
-49.9443
11
219.51
21
-50.02
0
LINE
8
BLACK
6
CONTINUOUS
10
219.51
20
-50.02
11
219.51
21
-60.0493
0
LINE
8
BLACK
6
CONTINUOUS
10
219.51
20
-60.0493
11
222.55
21
-63.0897
0
LINE
8
BLACK
6
CONTINUOUS
10
222.55
20
-63.0897
11
222.587
21
-63.1304
0
LINE
8
BLACK
6
CONTINUOUS
10
222.587
20
-63.1304
11
222.595
21
-63.1379
0
LINE
8
BLACK
6
CONTINUOUS
10
222.595
20
-63.1379
11
222.598
21
-63.1434
0
LINE
8
BLACK
6
CONTINUOUS
10
222.598
20
-63.1434
11
222.608
21
-63.1548
0
LINE
8
BLACK
6
CONTINUOUS
10
222.608
20
-63.1548
11
222.648
21
-63.2197
0
LINE
8
BLACK
6
CONTINUOUS
10
222.648
20
-63.2197
11
222.69
21
-63.2834
0
LINE
8
BLACK
6
CONTINUOUS
10
222.69
20
-63.2834
11
222.694
21
-63.2937
0
LINE
8
BLACK
6
CONTINUOUS
10
222.694
20
-63.2937
11
222.7
21
-63.303
0
LINE
8
BLACK
6
CONTINUOUS
10
222.7
20
-63.303
11
222.724
21
-63.3754
0
LINE
8
BLACK
6
CONTINUOUS
10
222.724
20
-63.3754
11
222.75
21
-63.447
0
LINE
8
BLACK
6
CONTINUOUS
10
222.75
20
-63.447
11
222.751
21
-63.4579
0
LINE
8
BLACK
6
CONTINUOUS
10
222.751
20
-63.4579
11
222.755
21
-63.4683
0
LINE
8
BLACK
6
CONTINUOUS
10
222.755
20
-63.4683
11
222.761
21
-63.5443
0
LINE
8
BLACK
6
CONTINUOUS
10
222.761
20
-63.5443
11
222.77
21
-63.62
0
LINE
8
BLACK
6
CONTINUOUS
10
222.77
20
-63.62
11
222.77
21
-64.4314
0
LINE
8
BLACK
6
CONTINUOUS
10
222.77
20
-64.4314
11
222.802
21
-64.4684
0
LINE
8
BLACK
6
CONTINUOUS
10
222.802
20
-64.4684
11
222.895
21
-64.6369
0
LINE
8
BLACK
6
CONTINUOUS
10
222.895
20
-64.6369
11
222.953
21
-64.8208
0
LINE
8
BLACK
6
CONTINUOUS
10
222.953
20
-64.8208
11
222.972
21
-65.0125
0
LINE
8
BLACK
6
CONTINUOUS
10
222.972
20
-65.0125
11
222.972
21
-65.1075
0
LINE
8
BLACK
6
CONTINUOUS
10
222.972
20
-65.1075
11
222.968
21
-65.2039
0
LINE
8
BLACK
6
CONTINUOUS
10
222.968
20
-65.2039
11
222.929
21
-65.3926
0
LINE
8
BLACK
6
CONTINUOUS
10
222.929
20
-65.3926
11
222.853
21
-65.5697
0
LINE
8
BLACK
6
CONTINUOUS
10
222.853
20
-65.5697
11
222.743
21
-65.7279
0
LINE
8
BLACK
6
CONTINUOUS
10
222.743
20
-65.7279
11
222.603
21
-65.8607
0
LINE
8
BLACK
6
CONTINUOUS
10
222.603
20
-65.8607
11
222.439
21
-65.9627
0
LINE
8
BLACK
6
CONTINUOUS
10
222.439
20
-65.9627
11
222.259
21
-66.0296
0
LINE
8
BLACK
6
CONTINUOUS
10
222.259
20
-66.0296
11
222.068
21
-66.0588
0
LINE
8
BLACK
6
CONTINUOUS
10
222.068
20
-66.0588
11
221.876
21
-66.049
0
LINE
8
BLACK
6
CONTINUOUS
10
221.876
20
-66.049
11
221.689
21
-66.0007
0
LINE
8
BLACK
6
CONTINUOUS
10
221.689
20
-66.0007
11
221.516
21
-65.9158
0
LINE
8
BLACK
6
CONTINUOUS
10
221.516
20
-65.9158
11
221.364
21
-65.7979
0
LINE
8
BLACK
6
CONTINUOUS
10
221.364
20
-65.7979
11
221.238
21
-65.6516
0
LINE
8
BLACK
6
CONTINUOUS
10
221.238
20
-65.6516
11
221.145
21
-65.4831
0
LINE
8
BLACK
6
CONTINUOUS
10
221.145
20
-65.4831
11
221.087
21
-65.2992
0
LINE
8
BLACK
6
CONTINUOUS
10
221.087
20
-65.2992
11
221.067
21
-65.1075
0
LINE
8
BLACK
6
CONTINUOUS
10
221.067
20
-65.1075
11
221.067
21
-65.0125
0
LINE
8
BLACK
6
CONTINUOUS
10
221.067
20
-65.0125
11
221.072
21
-64.9161
0
LINE
8
BLACK
6
CONTINUOUS
10
221.072
20
-64.9161
11
221.111
21
-64.7274
0
LINE
8
BLACK
6
CONTINUOUS
10
221.111
20
-64.7274
11
221.187
21
-64.5502
0
LINE
8
BLACK
6
CONTINUOUS
10
221.187
20
-64.5502
11
221.27
21
-64.4313
0
LINE
8
BLACK
6
CONTINUOUS
10
221.27
20
-64.4313
11
221.27
21
-63.9307
0
LINE
8
BLACK
6
CONTINUOUS
10
221.27
20
-63.9307
11
218.76
21
-61.4207
0
LINE
8
BLACK
6
CONTINUOUS
10
218.76
20
-61.4207
11
217.51
21
-62.6707
0
LINE
8
BLACK
6
CONTINUOUS
10
217.51
20
-62.6707
11
217.51
21
-68.86
0
LINE
8
BLACK
6
CONTINUOUS
10
217.51
20
-68.86
11
217.507
21
-68.9145
0
LINE
8
BLACK
6
CONTINUOUS
10
217.507
20
-68.9145
11
217.507
21
-68.9254
0
LINE
8
BLACK
6
CONTINUOUS
10
217.507
20
-68.9254
11
217.506
21
-68.9318
0
LINE
8
BLACK
6
CONTINUOUS
10
217.506
20
-68.9318
11
217.505
21
-68.9471
0
LINE
8
BLACK
6
CONTINUOUS
10
217.505
20
-68.9471
11
217.487
21
-69.0213
0
LINE
8
BLACK
6
CONTINUOUS
10
217.487
20
-69.0213
11
217.472
21
-69.0959
0
LINE
8
BLACK
6
CONTINUOUS
10
217.472
20
-69.0959
11
217.467
21
-69.1058
0
LINE
8
BLACK
6
CONTINUOUS
10
217.467
20
-69.1058
11
217.465
21
-69.1165
0
LINE
8
BLACK
6
CONTINUOUS
10
217.465
20
-69.1165
11
217.431
21
-69.1846
0
LINE
8
BLACK
6
CONTINUOUS
10
217.431
20
-69.1846
11
217.398
21
-69.2537
0
LINE
8
BLACK
6
CONTINUOUS
10
217.398
20
-69.2537
11
217.392
21
-69.2623
0
LINE
8
BLACK
6
CONTINUOUS
10
217.392
20
-69.2623
11
217.387
21
-69.2721
0
LINE
8
BLACK
6
CONTINUOUS
10
217.387
20
-69.2721
11
217.338
21
-69.3305
0
LINE
8
BLACK
6
CONTINUOUS
10
217.338
20
-69.3305
11
217.29
21
-69.3903
0
LINE
8
BLACK
6
CONTINUOUS
10
217.29
20
-69.3903
11
212.01
21
-74.6707
0
LINE
8
BLACK
6
CONTINUOUS
10
212.01
20
-74.6707
11
212.01
21
-83.9349
0
LINE
8
BLACK
6
CONTINUOUS
10
212.01
20
-83.9349
11
212.007
21
-83.9893
0
LINE
8
BLACK
6
CONTINUOUS
10
212.007
20
-83.9893
11
212.007
21
-84.0003
0
LINE
8
BLACK
6
CONTINUOUS
10
212.007
20
-84.0003
11
212.006
21
-84.0067
0
LINE
8
BLACK
6
CONTINUOUS
10
212.006
20
-84.0067
11
212.005
21
-84.022
0
LINE
8
BLACK
6
CONTINUOUS
10
212.005
20
-84.022
11
211.987
21
-84.0962
0
LINE
8
BLACK
6
CONTINUOUS
10
211.987
20
-84.0962
11
211.972
21
-84.1708
0
LINE
8
BLACK
6
CONTINUOUS
10
211.972
20
-84.1708
11
211.967
21
-84.1807
0
LINE
8
BLACK
6
CONTINUOUS
10
211.967
20
-84.1807
11
211.965
21
-84.1914
0
LINE
8
BLACK
6
CONTINUOUS
10
211.965
20
-84.1914
11
211.931
21
-84.2595
0
LINE
8
BLACK
6
CONTINUOUS
10
211.931
20
-84.2595
11
211.898
21
-84.3286
0
LINE
8
BLACK
6
CONTINUOUS
10
211.898
20
-84.3286
11
211.892
21
-84.3372
0
LINE
8
BLACK
6
CONTINUOUS
10
211.892
20
-84.3372
11
211.887
21
-84.347
0
LINE
8
BLACK
6
CONTINUOUS
10
211.887
20
-84.347
11
211.838
21
-84.4054
0
LINE
8
BLACK
6
CONTINUOUS
10
211.838
20
-84.4054
11
211.79
21
-84.4652
0
LINE
8
BLACK
6
CONTINUOUS
10
211.79
20
-84.4652
11
211.556
21
-84.7
0
LINE
8
BLACK
6
CONTINUOUS
10
211.556
20
-84.7
11
212.69
21
-85.8348
0
LINE
8
BLACK
6
CONTINUOUS
10
212.69
20
-85.8348
11
212.727
21
-85.8755
0
LINE
8
BLACK
6
CONTINUOUS
10
212.727
20
-85.8755
11
212.735
21
-85.883
0
LINE
8
BLACK
6
CONTINUOUS
10
212.735
20
-85.883
11
212.738
21
-85.8885
0
LINE
8
BLACK
6
CONTINUOUS
10
212.738
20
-85.8885
11
212.748
21
-85.8999
0
LINE
8
BLACK
6
CONTINUOUS
10
212.748
20
-85.8999
11
212.788
21
-85.9648
0
LINE
8
BLACK
6
CONTINUOUS
10
212.788
20
-85.9648
11
212.83
21
-86.0285
0
LINE
8
BLACK
6
CONTINUOUS
10
212.83
20
-86.0285
11
212.834
21
-86.0388
0
LINE
8
BLACK
6
CONTINUOUS
10
212.834
20
-86.0388
11
212.84
21
-86.0481
0
LINE
8
BLACK
6
CONTINUOUS
10
212.84
20
-86.0481
11
212.864
21
-86.1205
0
LINE
8
BLACK
6
CONTINUOUS
10
212.864
20
-86.1205
11
212.89
21
-86.1922
0
LINE
8
BLACK
6
CONTINUOUS
10
212.89
20
-86.1922
11
212.891
21
-86.203
0
LINE
8
BLACK
6
CONTINUOUS
10
212.891
20
-86.203
11
212.895
21
-86.2134
0
LINE
8
BLACK
6
CONTINUOUS
10
212.895
20
-86.2134
11
212.901
21
-86.2894
0
LINE
8
BLACK
6
CONTINUOUS
10
212.901
20
-86.2894
11
212.91
21
-86.3651
0
LINE
8
BLACK
6
CONTINUOUS
10
212.91
20
-86.3651
11
212.91
21
-88.3
0
LINE
8
BLACK
6
CONTINUOUS
10
212.91
20
-88.3
11
212.96
21
-88.3
0
LINE
8
BLACK
6
CONTINUOUS
10
212.96
20
-88.3
11
212.96
21
-89.9
0
LINE
8
BLACK
6
CONTINUOUS
10
212.96
20
-89.9
11
211.36
21
-89.9
0
LINE
8
BLACK
6
CONTINUOUS
10
211.36
20
-89.9
11
211.36
21
-88.3
0
LINE
8
BLACK
6
CONTINUOUS
10
211.36
20
-88.3
11
211.41
21
-88.3
0
LINE
8
BLACK
6
CONTINUOUS
10
211.41
20
-88.3
11
211.41
21
-86.6758
0
LINE
8
BLACK
6
CONTINUOUS
10
211.41
20
-86.6758
11
210.184
21
-85.45
0
LINE
8
BLACK
6
CONTINUOUS
10
210.184
20
-85.45
11
205
21
-85.45
0
LINE
8
BLACK
6
CONTINUOUS
10
205
20
-85.45
11
205
21
-85.7
0
LINE
8
BLACK
6
CONTINUOUS
10
205
20
-85.7
11
203
21
-85.7
0
LINE
8
BLACK
6
CONTINUOUS
10
203
20
-85.7
11
203
21
-83.7
0
LINE
8
BLACK
6
CONTINUOUS
10
203
20
-83.7
11
205
21
-83.7
0
LINE
8
BLACK
6
CONTINUOUS
10
205
20
-83.7
11
205
21
-83.95
0
LINE
8
BLACK
6
CONTINUOUS
10
205
20
-83.95
11
210.184
21
-83.95
0
LINE
8
BLACK
6
CONTINUOUS
10
210.184
20
-83.95
11
210.51
21
-83.6242
0
LINE
8
BLACK
6
CONTINUOUS
10
210.51
20
-83.6242
11
210.51
21
-74.36
0
LINE
8
BLACK
6
CONTINUOUS
10
210.51
20
-74.36
11
210.513
21
-74.3055
0
LINE
8
BLACK
6
CONTINUOUS
10
210.513
20
-74.3055
11
210.513
21
-74.2946
0
LINE
8
BLACK
6
CONTINUOUS
10
210.513
20
-74.2946
11
210.514
21
-74.2882
0
LINE
8
BLACK
6
CONTINUOUS
10
210.514
20
-74.2882
11
210.515
21
-74.2729
0
LINE
8
BLACK
6
CONTINUOUS
10
210.515
20
-74.2729
11
210.533
21
-74.1987
0
LINE
8
BLACK
6
CONTINUOUS
10
210.533
20
-74.1987
11
210.548
21
-74.1241
0
LINE
8
BLACK
6
CONTINUOUS
10
210.548
20
-74.1241
11
210.553
21
-74.1142
0
LINE
8
BLACK
6
CONTINUOUS
10
210.553
20
-74.1142
11
210.555
21
-74.1035
0
LINE
8
BLACK
6
CONTINUOUS
10
210.555
20
-74.1035
11
210.589
21
-74.0354
0
LINE
8
BLACK
6
CONTINUOUS
10
210.589
20
-74.0354
11
210.622
21
-73.9663
0
LINE
8
BLACK
6
CONTINUOUS
10
210.622
20
-73.9663
11
210.628
21
-73.9577
0
LINE
8
BLACK
6
CONTINUOUS
10
210.628
20
-73.9577
11
210.633
21
-73.9479
0
LINE
8
BLACK
6
CONTINUOUS
10
210.633
20
-73.9479
11
210.682
21
-73.8895
0
LINE
8
BLACK
6
CONTINUOUS
10
210.682
20
-73.8895
11
210.73
21
-73.8297
0
LINE
8
BLACK
6
CONTINUOUS
10
210.73
20
-73.8297
11
216.01
21
-68.5493
0
LINE
8
BLACK
6
CONTINUOUS
10
216.01
20
-68.5493
11
216.01
21
-62.36
0
LINE
8
BLACK
6
CONTINUOUS
10
216.01
20
-62.36
11
216.013
21
-62.3055
0
LINE
8
BLACK
6
CONTINUOUS
10
216.013
20
-62.3055
11
216.013
21
-62.2946
0
LINE
8
BLACK
6
CONTINUOUS
10
216.013
20
-62.2946
11
216.014
21
-62.2882
0
LINE
8
BLACK
6
CONTINUOUS
10
216.014
20
-62.2882
11
216.015
21
-62.2729
0
LINE
8
BLACK
6
CONTINUOUS
10
216.015
20
-62.2729
11
216.033
21
-62.1987
0
LINE
8
BLACK
6
CONTINUOUS
10
216.033
20
-62.1987
11
216.048
21
-62.1241
0
LINE
8
BLACK
6
CONTINUOUS
10
216.048
20
-62.1241
11
216.053
21
-62.1142
0
LINE
8
BLACK
6
CONTINUOUS
10
216.053
20
-62.1142
11
216.055
21
-62.1035
0
LINE
8
BLACK
6
CONTINUOUS
10
216.055
20
-62.1035
11
216.089
21
-62.0354
0
LINE
8
BLACK
6
CONTINUOUS
10
216.089
20
-62.0354
11
216.122
21
-61.9663
0
LINE
8
BLACK
6
CONTINUOUS
10
216.122
20
-61.9663
11
216.128
21
-61.9577
0
LINE
8
BLACK
6
CONTINUOUS
10
216.128
20
-61.9577
11
216.133
21
-61.9479
0
LINE
8
BLACK
6
CONTINUOUS
10
216.133
20
-61.9479
11
216.182
21
-61.8895
0
LINE
8
BLACK
6
CONTINUOUS
10
216.182
20
-61.8895
11
216.23
21
-61.8297
0
LINE
8
BLACK
6
CONTINUOUS
10
216.23
20
-61.8297
11
218.01
21
-60.0493
0
LINE
8
BLACK
6
CONTINUOUS
10
218.01
20
-60.0493
11
218.01
21
-50.3307
0
LINE
8
BLACK
6
CONTINUOUS
10
218.01
20
-50.3307
11
217.589
21
-49.91
0
LINE
8
BLACK
6
CONTINUOUS
10
217.589
20
-49.91
11
215.354
21
-49.91
0
LINE
8
BLACK
6
CONTINUOUS
10
215.354
20
-49.91
11
215.223
21
-49.9684
0
LINE
8
BLACK
6
CONTINUOUS
10
215.223
20
-49.9684
11
215.049
21
-50.0053
0
LINE
8
BLACK
6
CONTINUOUS
10
215.049
20
-50.0053
11
214.871
21
-50.0053
0
LINE
8
BLACK
6
CONTINUOUS
10
214.871
20
-50.0053
11
214.697
21
-49.9684
0
LINE
8
BLACK
6
CONTINUOUS
10
214.697
20
-49.9684
11
214.535
21
-49.8961
0
LINE
8
BLACK
6
CONTINUOUS
10
214.535
20
-49.8961
11
214.499
21
-49.87
0
LINE
8
BLACK
6
CONTINUOUS
10
214.499
20
-49.87
11
208.654
21
-49.87
0
LINE
8
BLACK
6
CONTINUOUS
10
208.654
20
-49.87
11
208.523
21
-49.9284
0
LINE
8
BLACK
6
CONTINUOUS
10
208.523
20
-49.9284
11
208.349
21
-49.9653
0
LINE
8
BLACK
6
CONTINUOUS
10
208.349
20
-49.9653
11
208.171
21
-49.9653
0
LINE
8
BLACK
6
CONTINUOUS
10
208.171
20
-49.9653
11
207.997
21
-49.9284
0
LINE
8
BLACK
6
CONTINUOUS
10
207.997
20
-49.9284
11
207.835
21
-49.8561
0
LINE
8
BLACK
6
CONTINUOUS
10
207.835
20
-49.8561
11
207.691
21
-49.7517
0
LINE
8
BLACK
6
CONTINUOUS
10
207.691
20
-49.7517
11
207.572
21
-49.6196
0
LINE
8
BLACK
6
CONTINUOUS
10
207.572
20
-49.6196
11
207.483
21
-49.4657
0
LINE
8
BLACK
6
CONTINUOUS
10
207.483
20
-49.4657
11
207.429
21
-49.2967
0
LINE
8
BLACK
6
CONTINUOUS
10
207.429
20
-49.2967
11
207.41
21
-49.12
0
LINE
8
BLACK
6
CONTINUOUS
10
207.41
20
-49.12
11
207.429
21
-48.9433
0
LINE
8
BLACK
6
CONTINUOUS
10
207.429
20
-48.9433
11
207.483
21
-48.7743
0
LINE
8
BLACK
6
CONTINUOUS
10
207.483
20
-48.7743
11
207.572
21
-48.6204
0
LINE
8
BLACK
6
CONTINUOUS
10
207.572
20
-48.6204
11
207.691
21
-48.4883
0
LINE
8
BLACK
6
CONTINUOUS
10
207.691
20
-48.4883
11
207.835
21
-48.3839
0
LINE
8
BLACK
6
CONTINUOUS
10
207.835
20
-48.3839
11
207.997
21
-48.3116
0
LINE
8
BLACK
6
CONTINUOUS
10
207.997
20
-48.3116
11
208.171
21
-48.2747
0
LINE
8
BLACK
6
CONTINUOUS
10
208.171
20
-48.2747
11
208.349
21
-48.2747
0
LINE
8
BLACK
6
CONTINUOUS
10
208.349
20
-48.2747
11
208.523
21
-48.3116
0
LINE
8
BLACK
6
CONTINUOUS
10
178.795
20
-83.7192
11
178.983
21
-83.7761
0
LINE
8
BLACK
6
CONTINUOUS
10
178.983
20
-83.7761
11
179.156
21
-83.8685
0
LINE
8
BLACK
6
CONTINUOUS
10
179.156
20
-83.8685
11
179.307
21
-83.9929
0
LINE
8
BLACK
6
CONTINUOUS
10
179.307
20
-83.9929
11
179.431
21
-84.1444
0
LINE
8
BLACK
6
CONTINUOUS
10
179.431
20
-84.1444
11
179.524
21
-84.3173
0
LINE
8
BLACK
6
CONTINUOUS
10
179.524
20
-84.3173
11
179.581
21
-84.5049
0
LINE
8
BLACK
6
CONTINUOUS
10
179.581
20
-84.5049
11
179.6
21
-84.7
0
LINE
8
BLACK
6
CONTINUOUS
10
179.6
20
-84.7
11
179.581
21
-84.8951
0
LINE
8
BLACK
6
CONTINUOUS
10
179.581
20
-84.8951
11
179.524
21
-85.0827
0
LINE
8
BLACK
6
CONTINUOUS
10
179.524
20
-85.0827
11
179.431
21
-85.2556
0
LINE
8
BLACK
6
CONTINUOUS
10
179.431
20
-85.2556
11
179.307
21
-85.4071
0
LINE
8
BLACK
6
CONTINUOUS
10
179.307
20
-85.4071
11
179.156
21
-85.5315
0
LINE
8
BLACK
6
CONTINUOUS
10
179.156
20
-85.5315
11
178.983
21
-85.6239
0
LINE
8
BLACK
6
CONTINUOUS
10
178.983
20
-85.6239
11
178.795
21
-85.6808
0
LINE
8
BLACK
6
CONTINUOUS
10
178.795
20
-85.6808
11
178.6
21
-85.7
0
LINE
8
BLACK
6
CONTINUOUS
10
178.6
20
-85.7
11
178.405
21
-85.6808
0
LINE
8
BLACK
6
CONTINUOUS
10
178.405
20
-85.6808
11
178.217
21
-85.6239
0
LINE
8
BLACK
6
CONTINUOUS
10
178.217
20
-85.6239
11
178.044
21
-85.5315
0
LINE
8
BLACK
6
CONTINUOUS
10
178.044
20
-85.5315
11
177.893
21
-85.4071
0
LINE
8
BLACK
6
CONTINUOUS
10
177.893
20
-85.4071
11
177.769
21
-85.2556
0
LINE
8
BLACK
6
CONTINUOUS
10
177.769
20
-85.2556
11
177.676
21
-85.0827
0
LINE
8
BLACK
6
CONTINUOUS
10
177.676
20
-85.0827
11
177.619
21
-84.8951
0
LINE
8
BLACK
6
CONTINUOUS
10
177.619
20
-84.8951
11
177.6
21
-84.7
0
LINE
8
BLACK
6
CONTINUOUS
10
177.6
20
-84.7
11
177.619
21
-84.5049
0
LINE
8
BLACK
6
CONTINUOUS
10
177.619
20
-84.5049
11
177.676
21
-84.3173
0
LINE
8
BLACK
6
CONTINUOUS
10
177.676
20
-84.3173
11
177.769
21
-84.1444
0
LINE
8
BLACK
6
CONTINUOUS
10
177.769
20
-84.1444
11
177.893
21
-83.9929
0
LINE
8
BLACK
6
CONTINUOUS
10
177.893
20
-83.9929
11
178.044
21
-83.8685
0
LINE
8
BLACK
6
CONTINUOUS
10
178.044
20
-83.8685
11
178.217
21
-83.7761
0
LINE
8
BLACK
6
CONTINUOUS
10
178.217
20
-83.7761
11
178.405
21
-83.7192
0
LINE
8
BLACK
6
CONTINUOUS
10
178.405
20
-83.7192
11
178.6
21
-83.7
0
LINE
8
BLACK
6
CONTINUOUS
10
178.6
20
-83.7
11
178.795
21
-83.7192
0
LINE
8
BLACK
6
CONTINUOUS
10
222.409
20
-80.0139
11
222.659
21
-80.091
0
LINE
8
BLACK
6
CONTINUOUS
10
222.659
20
-80.091
11
222.895
21
-80.2045
0
LINE
8
BLACK
6
CONTINUOUS
10
222.895
20
-80.2045
11
223.111
21
-80.3518
0
LINE
8
BLACK
6
CONTINUOUS
10
223.111
20
-80.3518
11
223.303
21
-80.5297
0
LINE
8
BLACK
6
CONTINUOUS
10
223.303
20
-80.5297
11
223.466
21
-80.7342
0
LINE
8
BLACK
6
CONTINUOUS
10
223.466
20
-80.7342
11
223.597
21
-80.9607
0
LINE
8
BLACK
6
CONTINUOUS
10
223.597
20
-80.9607
11
223.692
21
-81.2042
0
LINE
8
BLACK
6
CONTINUOUS
10
223.692
20
-81.2042
11
223.75
21
-81.4592
0
LINE
8
BLACK
6
CONTINUOUS
10
223.75
20
-81.4592
11
223.77
21
-81.72
0
LINE
8
BLACK
6
CONTINUOUS
10
223.77
20
-81.72
11
223.75
21
-81.9808
0
LINE
8
BLACK
6
CONTINUOUS
10
223.75
20
-81.9808
11
223.692
21
-82.2358
0
LINE
8
BLACK
6
CONTINUOUS
10
223.692
20
-82.2358
11
223.597
21
-82.4793
0
LINE
8
BLACK
6
CONTINUOUS
10
223.597
20
-82.4793
11
223.466
21
-82.7058
0
LINE
8
BLACK
6
CONTINUOUS
10
223.466
20
-82.7058
11
223.303
21
-82.9103
0
LINE
8
BLACK
6
CONTINUOUS
10
223.303
20
-82.9103
11
223.111
21
-83.0882
0
LINE
8
BLACK
6
CONTINUOUS
10
223.111
20
-83.0882
11
222.895
21
-83.2355
0
LINE
8
BLACK
6
CONTINUOUS
10
222.895
20
-83.2355
11
222.659
21
-83.349
0
LINE
8
BLACK
6
CONTINUOUS
10
222.659
20
-83.349
11
222.409
21
-83.4261
0
LINE
8
BLACK
6
CONTINUOUS
10
222.409
20
-83.4261
11
222.151
21
-83.4651
0
LINE
8
BLACK
6
CONTINUOUS
10
222.151
20
-83.4651
11
221.889
21
-83.4651
0
LINE
8
BLACK
6
CONTINUOUS
10
221.889
20
-83.4651
11
221.631
21
-83.4261
0
LINE
8
BLACK
6
CONTINUOUS
10
221.631
20
-83.4261
11
221.381
21
-83.349
0
LINE
8
BLACK
6
CONTINUOUS
10
221.381
20
-83.349
11
221.145
21
-83.2355
0
LINE
8
BLACK
6
CONTINUOUS
10
221.145
20
-83.2355
11
220.929
21
-83.0882
0
LINE
8
BLACK
6
CONTINUOUS
10
220.929
20
-83.0882
11
220.737
21
-82.9103
0
LINE
8
BLACK
6
CONTINUOUS
10
220.737
20
-82.9103
11
220.574
21
-82.7058
0
LINE
8
BLACK
6
CONTINUOUS
10
220.574
20
-82.7058
11
220.443
21
-82.4793
0
LINE
8
BLACK
6
CONTINUOUS
10
220.443
20
-82.4793
11
220.348
21
-82.2358
0
LINE
8
BLACK
6
CONTINUOUS
10
220.348
20
-82.2358
11
220.29
21
-81.9808
0
LINE
8
BLACK
6
CONTINUOUS
10
220.29
20
-81.9808
11
220.27
21
-81.72
0
LINE
8
BLACK
6
CONTINUOUS
10
220.27
20
-81.72
11
220.29
21
-81.4592
0
LINE
8
BLACK
6
CONTINUOUS
10
220.29
20
-81.4592
11
220.348
21
-81.2042
0
LINE
8
BLACK
6
CONTINUOUS
10
220.348
20
-81.2042
11
220.443
21
-80.9607
0
LINE
8
BLACK
6
CONTINUOUS
10
220.443
20
-80.9607
11
220.574
21
-80.7342
0
LINE
8
BLACK
6
CONTINUOUS
10
220.574
20
-80.7342
11
220.737
21
-80.5297
0
LINE
8
BLACK
6
CONTINUOUS
10
220.737
20
-80.5297
11
220.929
21
-80.3518
0
LINE
8
BLACK
6
CONTINUOUS
10
220.929
20
-80.3518
11
221.145
21
-80.2045
0
LINE
8
BLACK
6
CONTINUOUS
10
221.145
20
-80.2045
11
221.381
21
-80.091
0
LINE
8
BLACK
6
CONTINUOUS
10
221.381
20
-80.091
11
221.631
21
-80.0139
0
LINE
8
BLACK
6
CONTINUOUS
10
221.631
20
-80.0139
11
221.889
21
-79.9749
0
LINE
8
BLACK
6
CONTINUOUS
10
221.889
20
-79.9749
11
222.151
21
-79.9749
0
LINE
8
BLACK
6
CONTINUOUS
10
222.151
20
-79.9749
11
222.409
21
-80.0139
0
LINE
8
BLACK
6
CONTINUOUS
10
178.795
20
-81.1792
11
178.983
21
-81.2361
0
LINE
8
BLACK
6
CONTINUOUS
10
178.983
20
-81.2361
11
179.156
21
-81.3285
0
LINE
8
BLACK
6
CONTINUOUS
10
179.156
20
-81.3285
11
179.307
21
-81.4529
0
LINE
8
BLACK
6
CONTINUOUS
10
179.307
20
-81.4529
11
179.431
21
-81.6044
0
LINE
8
BLACK
6
CONTINUOUS
10
179.431
20
-81.6044
11
179.524
21
-81.7773
0
LINE
8
BLACK
6
CONTINUOUS
10
179.524
20
-81.7773
11
179.581
21
-81.9649
0
LINE
8
BLACK
6
CONTINUOUS
10
179.581
20
-81.9649
11
179.6
21
-82.16
0
LINE
8
BLACK
6
CONTINUOUS
10
179.6
20
-82.16
11
179.581
21
-82.3551
0
LINE
8
BLACK
6
CONTINUOUS
10
179.581
20
-82.3551
11
179.524
21
-82.5427
0
LINE
8
BLACK
6
CONTINUOUS
10
179.524
20
-82.5427
11
179.431
21
-82.7156
0
LINE
8
BLACK
6
CONTINUOUS
10
179.431
20
-82.7156
11
179.307
21
-82.8671
0
LINE
8
BLACK
6
CONTINUOUS
10
179.307
20
-82.8671
11
179.156
21
-82.9915
0
LINE
8
BLACK
6
CONTINUOUS
10
179.156
20
-82.9915
11
178.983
21
-83.0839
0
LINE
8
BLACK
6
CONTINUOUS
10
178.983
20
-83.0839
11
178.795
21
-83.1408
0
LINE
8
BLACK
6
CONTINUOUS
10
178.795
20
-83.1408
11
178.6
21
-83.16
0
LINE
8
BLACK
6
CONTINUOUS
10
178.6
20
-83.16
11
178.405
21
-83.1408
0
LINE
8
BLACK
6
CONTINUOUS
10
178.405
20
-83.1408
11
178.217
21
-83.0839
0
LINE
8
BLACK
6
CONTINUOUS
10
178.217
20
-83.0839
11
178.044
21
-82.9915
0
LINE
8
BLACK
6
CONTINUOUS
10
178.044
20
-82.9915
11
177.893
21
-82.8671
0
LINE
8
BLACK
6
CONTINUOUS
10
177.893
20
-82.8671
11
177.769
21
-82.7156
0
LINE
8
BLACK
6
CONTINUOUS
10
177.769
20
-82.7156
11
177.676
21
-82.5427
0
LINE
8
BLACK
6
CONTINUOUS
10
177.676
20
-82.5427
11
177.619
21
-82.3551
0
LINE
8
BLACK
6
CONTINUOUS
10
177.619
20
-82.3551
11
177.6
21
-82.16
0
LINE
8
BLACK
6
CONTINUOUS
10
177.6
20
-82.16
11
177.619
21
-81.9649
0
LINE
8
BLACK
6
CONTINUOUS
10
177.619
20
-81.9649
11
177.676
21
-81.7773
0
LINE
8
BLACK
6
CONTINUOUS
10
177.676
20
-81.7773
11
177.769
21
-81.6044
0
LINE
8
BLACK
6
CONTINUOUS
10
177.769
20
-81.6044
11
177.893
21
-81.4529
0
LINE
8
BLACK
6
CONTINUOUS
10
177.893
20
-81.4529
11
178.044
21
-81.3285
0
LINE
8
BLACK
6
CONTINUOUS
10
178.044
20
-81.3285
11
178.217
21
-81.2361
0
LINE
8
BLACK
6
CONTINUOUS
10
178.217
20
-81.2361
11
178.405
21
-81.1792
0
LINE
8
BLACK
6
CONTINUOUS
10
178.405
20
-81.1792
11
178.6
21
-81.16
0
LINE
8
BLACK
6
CONTINUOUS
10
178.6
20
-81.16
11
178.795
21
-81.1792
0
LINE
8
BLACK
6
CONTINUOUS
10
178.795
20
-78.6392
11
178.983
21
-78.6961
0
LINE
8
BLACK
6
CONTINUOUS
10
178.983
20
-78.6961
11
179.156
21
-78.7885
0
LINE
8
BLACK
6
CONTINUOUS
10
179.156
20
-78.7885
11
179.307
21
-78.9129
0
LINE
8
BLACK
6
CONTINUOUS
10
179.307
20
-78.9129
11
179.431
21
-79.0644
0
LINE
8
BLACK
6
CONTINUOUS
10
179.431
20
-79.0644
11
179.524
21
-79.2373
0
LINE
8
BLACK
6
CONTINUOUS
10
179.524
20
-79.2373
11
179.581
21
-79.4249
0
LINE
8
BLACK
6
CONTINUOUS
10
179.581
20
-79.4249
11
179.6
21
-79.62
0
LINE
8
BLACK
6
CONTINUOUS
10
179.6
20
-79.62
11
179.581
21
-79.8151
0
LINE
8
BLACK
6
CONTINUOUS
10
179.581
20
-79.8151
11
179.524
21
-80.0027
0
LINE
8
BLACK
6
CONTINUOUS
10
179.524
20
-80.0027
11
179.431
21
-80.1756
0
LINE
8
BLACK
6
CONTINUOUS
10
179.431
20
-80.1756
11
179.307
21
-80.3271
0
LINE
8
BLACK
6
CONTINUOUS
10
179.307
20
-80.3271
11
179.156
21
-80.4515
0
LINE
8
BLACK
6
CONTINUOUS
10
179.156
20
-80.4515
11
178.983
21
-80.5439
0
LINE
8
BLACK
6
CONTINUOUS
10
178.983
20
-80.5439
11
178.795
21
-80.6008
0
LINE
8
BLACK
6
CONTINUOUS
10
178.795
20
-80.6008
11
178.6
21
-80.62
0
LINE
8
BLACK
6
CONTINUOUS
10
178.6
20
-80.62
11
178.405
21
-80.6008
0
LINE
8
BLACK
6
CONTINUOUS
10
178.405
20
-80.6008
11
178.217
21
-80.5439
0
LINE
8
BLACK
6
CONTINUOUS
10
178.217
20
-80.5439
11
178.044
21
-80.4515
0
LINE
8
BLACK
6
CONTINUOUS
10
178.044
20
-80.4515
11
177.893
21
-80.3271
0
LINE
8
BLACK
6
CONTINUOUS
10
177.893
20
-80.3271
11
177.769
21
-80.1756
0
LINE
8
BLACK
6
CONTINUOUS
10
177.769
20
-80.1756
11
177.676
21
-80.0027
0
LINE
8
BLACK
6
CONTINUOUS
10
177.676
20
-80.0027
11
177.619
21
-79.8151
0
LINE
8
BLACK
6
CONTINUOUS
10
177.619
20
-79.8151
11
177.6
21
-79.62
0
LINE
8
BLACK
6
CONTINUOUS
10
177.6
20
-79.62
11
177.619
21
-79.4249
0
LINE
8
BLACK
6
CONTINUOUS
10
177.619
20
-79.4249
11
177.676
21
-79.2373
0
LINE
8
BLACK
6
CONTINUOUS
10
177.676
20
-79.2373
11
177.769
21
-79.0644
0
LINE
8
BLACK
6
CONTINUOUS
10
177.769
20
-79.0644
11
177.893
21
-78.9129
0
LINE
8
BLACK
6
CONTINUOUS
10
177.893
20
-78.9129
11
178.044
21
-78.7885
0
LINE
8
BLACK
6
CONTINUOUS
10
178.044
20
-78.7885
11
178.217
21
-78.6961
0
LINE
8
BLACK
6
CONTINUOUS
10
178.217
20
-78.6961
11
178.405
21
-78.6392
0
LINE
8
BLACK
6
CONTINUOUS
10
178.405
20
-78.6392
11
178.6
21
-78.62
0
LINE
8
BLACK
6
CONTINUOUS
10
178.6
20
-78.62
11
178.795
21
-78.6392
0
LINE
8
BLACK
6
CONTINUOUS
10
204.195
20
-78.6392
11
204.383
21
-78.6961
0
LINE
8
BLACK
6
CONTINUOUS
10
204.383
20
-78.6961
11
204.556
21
-78.7885
0
LINE
8
BLACK
6
CONTINUOUS
10
204.556
20
-78.7885
11
204.707
21
-78.9129
0
LINE
8
BLACK
6
CONTINUOUS
10
204.707
20
-78.9129
11
204.831
21
-79.0644
0
LINE
8
BLACK
6
CONTINUOUS
10
204.831
20
-79.0644
11
204.924
21
-79.2373
0
LINE
8
BLACK
6
CONTINUOUS
10
204.924
20
-79.2373
11
204.981
21
-79.4249
0
LINE
8
BLACK
6
CONTINUOUS
10
204.981
20
-79.4249
11
205
21
-79.62
0
LINE
8
BLACK
6
CONTINUOUS
10
205
20
-79.62
11
204.981
21
-79.8151
0
LINE
8
BLACK
6
CONTINUOUS
10
204.981
20
-79.8151
11
204.924
21
-80.0027
0
LINE
8
BLACK
6
CONTINUOUS
10
204.924
20
-80.0027
11
204.831
21
-80.1756
0
LINE
8
BLACK
6
CONTINUOUS
10
204.831
20
-80.1756
11
204.707
21
-80.3271
0
LINE
8
BLACK
6
CONTINUOUS
10
204.707
20
-80.3271
11
204.556
21
-80.4515
0
LINE
8
BLACK
6
CONTINUOUS
10
204.556
20
-80.4515
11
204.383
21
-80.5439
0
LINE
8
BLACK
6
CONTINUOUS
10
204.383
20
-80.5439
11
204.195
21
-80.6008
0
LINE
8
BLACK
6
CONTINUOUS
10
204.195
20
-80.6008
11
204
21
-80.62
0
LINE
8
BLACK
6
CONTINUOUS
10
204
20
-80.62
11
203.805
21
-80.6008
0
LINE
8
BLACK
6
CONTINUOUS
10
203.805
20
-80.6008
11
203.617
21
-80.5439
0
LINE
8
BLACK
6
CONTINUOUS
10
203.617
20
-80.5439
11
203.444
21
-80.4515
0
LINE
8
BLACK
6
CONTINUOUS
10
203.444
20
-80.4515
11
203.293
21
-80.3271
0
LINE
8
BLACK
6
CONTINUOUS
10
203.293
20
-80.3271
11
203.169
21
-80.1756
0
LINE
8
BLACK
6
CONTINUOUS
10
203.169
20
-80.1756
11
203.076
21
-80.0027
0
LINE
8
BLACK
6
CONTINUOUS
10
203.076
20
-80.0027
11
203.019
21
-79.8151
0
LINE
8
BLACK
6
CONTINUOUS
10
203.019
20
-79.8151
11
203
21
-79.62
0
LINE
8
BLACK
6
CONTINUOUS
10
203
20
-79.62
11
203.019
21
-79.4249
0
LINE
8
BLACK
6
CONTINUOUS
10
203.019
20
-79.4249
11
203.076
21
-79.2373
0
LINE
8
BLACK
6
CONTINUOUS
10
203.076
20
-79.2373
11
203.169
21
-79.0644
0
LINE
8
BLACK
6
CONTINUOUS
10
203.169
20
-79.0644
11
203.293
21
-78.9129
0
LINE
8
BLACK
6
CONTINUOUS
10
203.293
20
-78.9129
11
203.444
21
-78.7885
0
LINE
8
BLACK
6
CONTINUOUS
10
203.444
20
-78.7885
11
203.617
21
-78.6961
0
LINE
8
BLACK
6
CONTINUOUS
10
203.617
20
-78.6961
11
203.805
21
-78.6392
0
LINE
8
BLACK
6
CONTINUOUS
10
203.805
20
-78.6392
11
204
21
-78.62
0
LINE
8
BLACK
6
CONTINUOUS
10
204
20
-78.62
11
204.195
21
-78.6392
0
LINE
8
BLACK
6
CONTINUOUS
10
178.795
20
-76.0992
11
178.983
21
-76.1561
0
LINE
8
BLACK
6
CONTINUOUS
10
178.983
20
-76.1561
11
179.156
21
-76.2485
0
LINE
8
BLACK
6
CONTINUOUS
10
179.156
20
-76.2485
11
179.307
21
-76.3729
0
LINE
8
BLACK
6
CONTINUOUS
10
179.307
20
-76.3729
11
179.431
21
-76.5244
0
LINE
8
BLACK
6
CONTINUOUS
10
179.431
20
-76.5244
11
179.524
21
-76.6973
0
LINE
8
BLACK
6
CONTINUOUS
10
179.524
20
-76.6973
11
179.581
21
-76.8849
0
LINE
8
BLACK
6
CONTINUOUS
10
179.581
20
-76.8849
11
179.6
21
-77.08
0
LINE
8
BLACK
6
CONTINUOUS
10
179.6
20
-77.08
11
179.581
21
-77.2751
0
LINE
8
BLACK
6
CONTINUOUS
10
179.581
20
-77.2751
11
179.524
21
-77.4627
0
LINE
8
BLACK
6
CONTINUOUS
10
179.524
20
-77.4627
11
179.431
21
-77.6356
0
LINE
8
BLACK
6
CONTINUOUS
10
179.431
20
-77.6356
11
179.307
21
-77.7871
0
LINE
8
BLACK
6
CONTINUOUS
10
179.307
20
-77.7871
11
179.156
21
-77.9115
0
LINE
8
BLACK
6
CONTINUOUS
10
179.156
20
-77.9115
11
178.983
21
-78.0039
0
LINE
8
BLACK
6
CONTINUOUS
10
178.983
20
-78.0039
11
178.795
21
-78.0608
0
LINE
8
BLACK
6
CONTINUOUS
10
178.795
20
-78.0608
11
178.6
21
-78.08
0
LINE
8
BLACK
6
CONTINUOUS
10
178.6
20
-78.08
11
178.405
21
-78.0608
0
LINE
8
BLACK
6
CONTINUOUS
10
178.405
20
-78.0608
11
178.217
21
-78.0039
0
LINE
8
BLACK
6
CONTINUOUS
10
178.217
20
-78.0039
11
178.044
21
-77.9115
0
LINE
8
BLACK
6
CONTINUOUS
10
178.044
20
-77.9115
11
177.893
21
-77.7871
0
LINE
8
BLACK
6
CONTINUOUS
10
177.893
20
-77.7871
11
177.769
21
-77.6356
0
LINE
8
BLACK
6
CONTINUOUS
10
177.769
20
-77.6356
11
177.676
21
-77.4627
0
LINE
8
BLACK
6
CONTINUOUS
10
177.676
20
-77.4627
11
177.619
21
-77.2751
0
LINE
8
BLACK
6
CONTINUOUS
10
177.619
20
-77.2751
11
177.6
21
-77.08
0
LINE
8
BLACK
6
CONTINUOUS
10
177.6
20
-77.08
11
177.619
21
-76.8849
0
LINE
8
BLACK
6
CONTINUOUS
10
177.619
20
-76.8849
11
177.676
21
-76.6973
0
LINE
8
BLACK
6
CONTINUOUS
10
177.676
20
-76.6973
11
177.769
21
-76.5244
0
LINE
8
BLACK
6
CONTINUOUS
10
177.769
20
-76.5244
11
177.893
21
-76.3729
0
LINE
8
BLACK
6
CONTINUOUS
10
177.893
20
-76.3729
11
178.044
21
-76.2485
0
LINE
8
BLACK
6
CONTINUOUS
10
178.044
20
-76.2485
11
178.217
21
-76.1561
0
LINE
8
BLACK
6
CONTINUOUS
10
178.217
20
-76.1561
11
178.405
21
-76.0992
0
LINE
8
BLACK
6
CONTINUOUS
10
178.405
20
-76.0992
11
178.6
21
-76.08
0
LINE
8
BLACK
6
CONTINUOUS
10
178.6
20
-76.08
11
178.795
21
-76.0992
0
LINE
8
BLACK
6
CONTINUOUS
10
204.195
20
-76.0992
11
204.383
21
-76.1561
0
LINE
8
BLACK
6
CONTINUOUS
10
204.383
20
-76.1561
11
204.556
21
-76.2485
0
LINE
8
BLACK
6
CONTINUOUS
10
204.556
20
-76.2485
11
204.707
21
-76.3729
0
LINE
8
BLACK
6
CONTINUOUS
10
204.707
20
-76.3729
11
204.831
21
-76.5244
0
LINE
8
BLACK
6
CONTINUOUS
10
204.831
20
-76.5244
11
204.924
21
-76.6973
0
LINE
8
BLACK
6
CONTINUOUS
10
204.924
20
-76.6973
11
204.981
21
-76.8849
0
LINE
8
BLACK
6
CONTINUOUS
10
204.981
20
-76.8849
11
205
21
-77.08
0
LINE
8
BLACK
6
CONTINUOUS
10
205
20
-77.08
11
204.981
21
-77.2751
0
LINE
8
BLACK
6
CONTINUOUS
10
204.981
20
-77.2751
11
204.924
21
-77.4627
0
LINE
8
BLACK
6
CONTINUOUS
10
204.924
20
-77.4627
11
204.831
21
-77.6356
0
LINE
8
BLACK
6
CONTINUOUS
10
204.831
20
-77.6356
11
204.707
21
-77.7871
0
LINE
8
BLACK
6
CONTINUOUS
10
204.707
20
-77.7871
11
204.556
21
-77.9115
0
LINE
8
BLACK
6
CONTINUOUS
10
204.556
20
-77.9115
11
204.383
21
-78.0039
0
LINE
8
BLACK
6
CONTINUOUS
10
204.383
20
-78.0039
11
204.195
21
-78.0608
0
LINE
8
BLACK
6
CONTINUOUS
10
204.195
20
-78.0608
11
204
21
-78.08
0
LINE
8
BLACK
6
CONTINUOUS
10
204
20
-78.08
11
203.805
21
-78.0608
0
LINE
8
BLACK
6
CONTINUOUS
10
203.805
20
-78.0608
11
203.617
21
-78.0039
0
LINE
8
BLACK
6
CONTINUOUS
10
203.617
20
-78.0039
11
203.444
21
-77.9115
0
LINE
8
BLACK
6
CONTINUOUS
10
203.444
20
-77.9115
11
203.293
21
-77.7871
0
LINE
8
BLACK
6
CONTINUOUS
10
203.293
20
-77.7871
11
203.169
21
-77.6356
0
LINE
8
BLACK
6
CONTINUOUS
10
203.169
20
-77.6356
11
203.076
21
-77.4627
0
LINE
8
BLACK
6
CONTINUOUS
10
203.076
20
-77.4627
11
203.019
21
-77.2751
0
LINE
8
BLACK
6
CONTINUOUS
10
203.019
20
-77.2751
11
203
21
-77.08
0
LINE
8
BLACK
6
CONTINUOUS
10
203
20
-77.08
11
203.019
21
-76.8849
0
LINE
8
BLACK
6
CONTINUOUS
10
203.019
20
-76.8849
11
203.076
21
-76.6973
0
LINE
8
BLACK
6
CONTINUOUS
10
203.076
20
-76.6973
11
203.169
21
-76.5244
0
LINE
8
BLACK
6
CONTINUOUS
10
203.169
20
-76.5244
11
203.293
21
-76.3729
0
LINE
8
BLACK
6
CONTINUOUS
10
203.293
20
-76.3729
11
203.444
21
-76.2485
0
LINE
8
BLACK
6
CONTINUOUS
10
203.444
20
-76.2485
11
203.617
21
-76.1561
0
LINE
8
BLACK
6
CONTINUOUS
10
203.617
20
-76.1561
11
203.805
21
-76.0992
0
LINE
8
BLACK
6
CONTINUOUS
10
203.805
20
-76.0992
11
204
21
-76.08
0
LINE
8
BLACK
6
CONTINUOUS
10
204
20
-76.08
11
204.195
21
-76.0992
0
LINE
8
BLACK
6
CONTINUOUS
10
178.795
20
-73.5592
11
178.983
21
-73.6161
0
LINE
8
BLACK
6
CONTINUOUS
10
178.983
20
-73.6161
11
179.156
21
-73.7085
0
LINE
8
BLACK
6
CONTINUOUS
10
179.156
20
-73.7085
11
179.307
21
-73.8329
0
LINE
8
BLACK
6
CONTINUOUS
10
179.307
20
-73.8329
11
179.431
21
-73.9844
0
LINE
8
BLACK
6
CONTINUOUS
10
179.431
20
-73.9844
11
179.524
21
-74.1573
0
LINE
8
BLACK
6
CONTINUOUS
10
179.524
20
-74.1573
11
179.581
21
-74.3449
0
LINE
8
BLACK
6
CONTINUOUS
10
179.581
20
-74.3449
11
179.6
21
-74.54
0
LINE
8
BLACK
6
CONTINUOUS
10
179.6
20
-74.54
11
179.581
21
-74.7351
0
LINE
8
BLACK
6
CONTINUOUS
10
179.581
20
-74.7351
11
179.524
21
-74.9227
0
LINE
8
BLACK
6
CONTINUOUS
10
179.524
20
-74.9227
11
179.431
21
-75.0956
0
LINE
8
BLACK
6
CONTINUOUS
10
179.431
20
-75.0956
11
179.307
21
-75.2471
0
LINE
8
BLACK
6
CONTINUOUS
10
179.307
20
-75.2471
11
179.156
21
-75.3715
0
LINE
8
BLACK
6
CONTINUOUS
10
179.156
20
-75.3715
11
178.983
21
-75.4639
0
LINE
8
BLACK
6
CONTINUOUS
10
178.983
20
-75.4639
11
178.795
21
-75.5208
0
LINE
8
BLACK
6
CONTINUOUS
10
178.795
20
-75.5208
11
178.6
21
-75.54
0
LINE
8
BLACK
6
CONTINUOUS
10
178.6
20
-75.54
11
178.405
21
-75.5208
0
LINE
8
BLACK
6
CONTINUOUS
10
178.405
20
-75.5208
11
178.217
21
-75.4639
0
LINE
8
BLACK
6
CONTINUOUS
10
178.217
20
-75.4639
11
178.044
21
-75.3715
0
LINE
8
BLACK
6
CONTINUOUS
10
178.044
20
-75.3715
11
177.893
21
-75.2471
0
LINE
8
BLACK
6
CONTINUOUS
10
177.893
20
-75.2471
11
177.769
21
-75.0956
0
LINE
8
BLACK
6
CONTINUOUS
10
177.769
20
-75.0956
11
177.676
21
-74.9227
0
LINE
8
BLACK
6
CONTINUOUS
10
177.676
20
-74.9227
11
177.619
21
-74.7351
0
LINE
8
BLACK
6
CONTINUOUS
10
177.619
20
-74.7351
11
177.6
21
-74.54
0
LINE
8
BLACK
6
CONTINUOUS
10
177.6
20
-74.54
11
177.619
21
-74.3449
0
LINE
8
BLACK
6
CONTINUOUS
10
177.619
20
-74.3449
11
177.676
21
-74.1573
0
LINE
8
BLACK
6
CONTINUOUS
10
177.676
20
-74.1573
11
177.769
21
-73.9844
0
LINE
8
BLACK
6
CONTINUOUS
10
177.769
20
-73.9844
11
177.893
21
-73.8329
0
LINE
8
BLACK
6
CONTINUOUS
10
177.893
20
-73.8329
11
178.044
21
-73.7085
0
LINE
8
BLACK
6
CONTINUOUS
10
178.044
20
-73.7085
11
178.217
21
-73.6161
0
LINE
8
BLACK
6
CONTINUOUS
10
178.217
20
-73.6161
11
178.405
21
-73.5592
0
LINE
8
BLACK
6
CONTINUOUS
10
178.405
20
-73.5592
11
178.6
21
-73.54
0
LINE
8
BLACK
6
CONTINUOUS
10
178.6
20
-73.54
11
178.795
21
-73.5592
0
LINE
8
BLACK
6
CONTINUOUS
10
204.195
20
-73.5592
11
204.383
21
-73.6161
0
LINE
8
BLACK
6
CONTINUOUS
10
204.383
20
-73.6161
11
204.556
21
-73.7085
0
LINE
8
BLACK
6
CONTINUOUS
10
204.556
20
-73.7085
11
204.707
21
-73.8329
0
LINE
8
BLACK
6
CONTINUOUS
10
204.707
20
-73.8329
11
204.831
21
-73.9844
0
LINE
8
BLACK
6
CONTINUOUS
10
204.831
20
-73.9844
11
204.924
21
-74.1573
0
LINE
8
BLACK
6
CONTINUOUS
10
204.924
20
-74.1573
11
204.981
21
-74.3449
0
LINE
8
BLACK
6
CONTINUOUS
10
204.981
20
-74.3449
11
205
21
-74.54
0
LINE
8
BLACK
6
CONTINUOUS
10
205
20
-74.54
11
204.981
21
-74.7351
0
LINE
8
BLACK
6
CONTINUOUS
10
204.981
20
-74.7351
11
204.924
21
-74.9227
0
LINE
8
BLACK
6
CONTINUOUS
10
204.924
20
-74.9227
11
204.831
21
-75.0956
0
LINE
8
BLACK
6
CONTINUOUS
10
204.831
20
-75.0956
11
204.707
21
-75.2471
0
LINE
8
BLACK
6
CONTINUOUS
10
204.707
20
-75.2471
11
204.556
21
-75.3715
0
LINE
8
BLACK
6
CONTINUOUS
10
204.556
20
-75.3715
11
204.383
21
-75.4639
0
LINE
8
BLACK
6
CONTINUOUS
10
204.383
20
-75.4639
11
204.195
21
-75.5208
0
LINE
8
BLACK
6
CONTINUOUS
10
204.195
20
-75.5208
11
204
21
-75.54
0
LINE
8
BLACK
6
CONTINUOUS
10
204
20
-75.54
11
203.805
21
-75.5208
0
LINE
8
BLACK
6
CONTINUOUS
10
203.805
20
-75.5208
11
203.617
21
-75.4639
0
LINE
8
BLACK
6
CONTINUOUS
10
203.617
20
-75.4639
11
203.444
21
-75.3715
0
LINE
8
BLACK
6
CONTINUOUS
10
203.444
20
-75.3715
11
203.293
21
-75.2471
0
LINE
8
BLACK
6
CONTINUOUS
10
203.293
20
-75.2471
11
203.169
21
-75.0956
0
LINE
8
BLACK
6
CONTINUOUS
10
203.169
20
-75.0956
11
203.076
21
-74.9227
0
LINE
8
BLACK
6
CONTINUOUS
10
203.076
20
-74.9227
11
203.019
21
-74.7351
0
LINE
8
BLACK
6
CONTINUOUS
10
203.019
20
-74.7351
11
203
21
-74.54
0
LINE
8
BLACK
6
CONTINUOUS
10
203
20
-74.54
11
203.019
21
-74.3449
0
LINE
8
BLACK
6
CONTINUOUS
10
203.019
20
-74.3449
11
203.076
21
-74.1573
0
LINE
8
BLACK
6
CONTINUOUS
10
203.076
20
-74.1573
11
203.169
21
-73.9844
0
LINE
8
BLACK
6
CONTINUOUS
10
203.169
20
-73.9844
11
203.293
21
-73.8329
0
LINE
8
BLACK
6
CONTINUOUS
10
203.293
20
-73.8329
11
203.444
21
-73.7085
0
LINE
8
BLACK
6
CONTINUOUS
10
203.444
20
-73.7085
11
203.617
21
-73.6161
0
LINE
8
BLACK
6
CONTINUOUS
10
203.617
20
-73.6161
11
203.805
21
-73.5592
0
LINE
8
BLACK
6
CONTINUOUS
10
203.805
20
-73.5592
11
204
21
-73.54
0
LINE
8
BLACK
6
CONTINUOUS
10
204
20
-73.54
11
204.195
21
-73.5592
0
LINE
8
BLACK
6
CONTINUOUS
10
178.795
20
-71.0192
11
178.983
21
-71.0761
0
LINE
8
BLACK
6
CONTINUOUS
10
178.983
20
-71.0761
11
179.156
21
-71.1685
0
LINE
8
BLACK
6
CONTINUOUS
10
179.156
20
-71.1685
11
179.307
21
-71.2929
0
LINE
8
BLACK
6
CONTINUOUS
10
179.307
20
-71.2929
11
179.431
21
-71.4444
0
LINE
8
BLACK
6
CONTINUOUS
10
179.431
20
-71.4444
11
179.524
21
-71.6173
0
LINE
8
BLACK
6
CONTINUOUS
10
179.524
20
-71.6173
11
179.581
21
-71.8049
0
LINE
8
BLACK
6
CONTINUOUS
10
179.581
20
-71.8049
11
179.6
21
-72
0
LINE
8
BLACK
6
CONTINUOUS
10
179.6
20
-72
11
179.581
21
-72.1951
0
LINE
8
BLACK
6
CONTINUOUS
10
179.581
20
-72.1951
11
179.524
21
-72.3827
0
LINE
8
BLACK
6
CONTINUOUS
10
179.524
20
-72.3827
11
179.431
21
-72.5556
0
LINE
8
BLACK
6
CONTINUOUS
10
179.431
20
-72.5556
11
179.307
21
-72.7071
0
LINE
8
BLACK
6
CONTINUOUS
10
179.307
20
-72.7071
11
179.156
21
-72.8315
0
LINE
8
BLACK
6
CONTINUOUS
10
179.156
20
-72.8315
11
178.983
21
-72.9239
0
LINE
8
BLACK
6
CONTINUOUS
10
178.983
20
-72.9239
11
178.795
21
-72.9808
0
LINE
8
BLACK
6
CONTINUOUS
10
178.795
20
-72.9808
11
178.6
21
-73
0
LINE
8
BLACK
6
CONTINUOUS
10
178.6
20
-73
11
178.405
21
-72.9808
0
LINE
8
BLACK
6
CONTINUOUS
10
178.405
20
-72.9808
11
178.217
21
-72.9239
0
LINE
8
BLACK
6
CONTINUOUS
10
178.217
20
-72.9239
11
178.044
21
-72.8315
0
LINE
8
BLACK
6
CONTINUOUS
10
178.044
20
-72.8315
11
177.893
21
-72.7071
0
LINE
8
BLACK
6
CONTINUOUS
10
177.893
20
-72.7071
11
177.769
21
-72.5556
0
LINE
8
BLACK
6
CONTINUOUS
10
177.769
20
-72.5556
11
177.676
21
-72.3827
0
LINE
8
BLACK
6
CONTINUOUS
10
177.676
20
-72.3827
11
177.619
21
-72.1951
0
LINE
8
BLACK
6
CONTINUOUS
10
177.619
20
-72.1951
11
177.6
21
-72
0
LINE
8
BLACK
6
CONTINUOUS
10
177.6
20
-72
11
177.619
21
-71.8049
0
LINE
8
BLACK
6
CONTINUOUS
10
177.619
20
-71.8049
11
177.676
21
-71.6173
0
LINE
8
BLACK
6
CONTINUOUS
10
177.676
20
-71.6173
11
177.769
21
-71.4444
0
LINE
8
BLACK
6
CONTINUOUS
10
177.769
20
-71.4444
11
177.893
21
-71.2929
0
LINE
8
BLACK
6
CONTINUOUS
10
177.893
20
-71.2929
11
178.044
21
-71.1685
0
LINE
8
BLACK
6
CONTINUOUS
10
178.044
20
-71.1685
11
178.217
21
-71.0761
0
LINE
8
BLACK
6
CONTINUOUS
10
178.217
20
-71.0761
11
178.405
21
-71.0192
0
LINE
8
BLACK
6
CONTINUOUS
10
178.405
20
-71.0192
11
178.6
21
-71
0
LINE
8
BLACK
6
CONTINUOUS
10
178.6
20
-71
11
178.795
21
-71.0192
0
LINE
8
BLACK
6
CONTINUOUS
10
214.038
20
-66.0601
11
214.207
21
-66.1192
0
LINE
8
BLACK
6
CONTINUOUS
10
214.207
20
-66.1192
11
214.359
21
-66.2145
0
LINE
8
BLACK
6
CONTINUOUS
10
214.359
20
-66.2145
11
214.485
21
-66.3412
0
LINE
8
BLACK
6
CONTINUOUS
10
214.485
20
-66.3412
11
214.581
21
-66.4929
0
LINE
8
BLACK
6
CONTINUOUS
10
214.581
20
-66.4929
11
214.64
21
-66.662
0
LINE
8
BLACK
6
CONTINUOUS
10
214.64
20
-66.662
11
214.66
21
-66.84
0
LINE
8
BLACK
6
CONTINUOUS
10
214.66
20
-66.84
11
214.64
21
-67.018
0
LINE
8
BLACK
6
CONTINUOUS
10
214.64
20
-67.018
11
214.581
21
-67.1871
0
LINE
8
BLACK
6
CONTINUOUS
10
214.581
20
-67.1871
11
214.485
21
-67.3388
0
LINE
8
BLACK
6
CONTINUOUS
10
214.485
20
-67.3388
11
214.359
21
-67.4655
0
LINE
8
BLACK
6
CONTINUOUS
10
214.359
20
-67.4655
11
214.207
21
-67.5608
0
LINE
8
BLACK
6
CONTINUOUS
10
214.207
20
-67.5608
11
214.038
21
-67.6199
0
LINE
8
BLACK
6
CONTINUOUS
10
214.038
20
-67.6199
11
213.86
21
-67.64
0
LINE
8
BLACK
6
CONTINUOUS
10
213.86
20
-67.64
11
213.682
21
-67.6199
0
LINE
8
BLACK
6
CONTINUOUS
10
213.682
20
-67.6199
11
213.596
21
-67.59
0
LINE
8
BLACK
6
CONTINUOUS
10
213.596
20
-67.59
11
209.41
21
-67.59
0
LINE
8
BLACK
6
CONTINUOUS
10
209.41
20
-67.59
11
209.41
21
-70.16
0
LINE
8
BLACK
6
CONTINUOUS
10
209.41
20
-70.16
11
209.407
21
-70.2145
0
LINE
8
BLACK
6
CONTINUOUS
10
209.407
20
-70.2145
11
209.407
21
-70.2254
0
LINE
8
BLACK
6
CONTINUOUS
10
209.407
20
-70.2254
11
209.406
21
-70.2318
0
LINE
8
BLACK
6
CONTINUOUS
10
209.406
20
-70.2318
11
209.405
21
-70.2471
0
LINE
8
BLACK
6
CONTINUOUS
10
209.405
20
-70.2471
11
209.387
21
-70.3213
0
LINE
8
BLACK
6
CONTINUOUS
10
209.387
20
-70.3213
11
209.372
21
-70.3959
0
LINE
8
BLACK
6
CONTINUOUS
10
209.372
20
-70.3959
11
209.367
21
-70.4058
0
LINE
8
BLACK
6
CONTINUOUS
10
209.367
20
-70.4058
11
209.365
21
-70.4165
0
LINE
8
BLACK
6
CONTINUOUS
10
209.365
20
-70.4165
11
209.331
21
-70.4846
0
LINE
8
BLACK
6
CONTINUOUS
10
209.331
20
-70.4846
11
209.298
21
-70.5537
0
LINE
8
BLACK
6
CONTINUOUS
10
209.298
20
-70.5537
11
209.292
21
-70.5623
0
LINE
8
BLACK
6
CONTINUOUS
10
209.292
20
-70.5623
11
209.287
21
-70.5721
0
LINE
8
BLACK
6
CONTINUOUS
10
209.287
20
-70.5721
11
209.238
21
-70.6305
0
LINE
8
BLACK
6
CONTINUOUS
10
209.238
20
-70.6305
11
209.19
21
-70.6903
0
LINE
8
BLACK
6
CONTINUOUS
10
209.19
20
-70.6903
11
207.29
21
-72.5903
0
LINE
8
BLACK
6
CONTINUOUS
10
207.29
20
-72.5903
11
207.25
21
-72.6266
0
LINE
8
BLACK
6
CONTINUOUS
10
207.25
20
-72.6266
11
207.242
21
-72.6345
0
LINE
8
BLACK
6
CONTINUOUS
10
207.242
20
-72.6345
11
207.237
21
-72.6381
0
LINE
8
BLACK
6
CONTINUOUS
10
207.237
20
-72.6381
11
207.225
21
-72.6483
0
LINE
8
BLACK
6
CONTINUOUS
10
207.225
20
-72.6483
11
207.16
21
-72.6883
0
LINE
8
BLACK
6
CONTINUOUS
10
207.16
20
-72.6883
11
207.097
21
-72.7302
0
LINE
8
BLACK
6
CONTINUOUS
10
207.097
20
-72.7302
11
207.086
21
-72.734
0
LINE
8
BLACK
6
CONTINUOUS
10
207.086
20
-72.734
11
207.077
21
-72.7397
0
LINE
8
BLACK
6
CONTINUOUS
10
207.077
20
-72.7397
11
207.005
21
-72.7637
0
LINE
8
BLACK
6
CONTINUOUS
10
207.005
20
-72.7637
11
206.933
21
-72.7898
0
LINE
8
BLACK
6
CONTINUOUS
10
206.933
20
-72.7898
11
206.922
21
-72.7911
0
LINE
8
BLACK
6
CONTINUOUS
10
206.922
20
-72.7911
11
206.912
21
-72.7945
0
LINE
8
BLACK
6
CONTINUOUS
10
206.912
20
-72.7945
11
206.836
21
-72.8011
0
LINE
8
BLACK
6
CONTINUOUS
10
206.836
20
-72.8011
11
206.76
21
-72.81
0
LINE
8
BLACK
6
CONTINUOUS
10
206.76
20
-72.81
11
204.582
21
-72.81
0
LINE
8
BLACK
6
CONTINUOUS
10
204.582
20
-72.81
11
204.556
21
-72.8315
0
LINE
8
BLACK
6
CONTINUOUS
10
204.556
20
-72.8315
11
204.383
21
-72.9239
0
LINE
8
BLACK
6
CONTINUOUS
10
204.383
20
-72.9239
11
204.195
21
-72.9808
0
LINE
8
BLACK
6
CONTINUOUS
10
204.195
20
-72.9808
11
204
21
-73
0
LINE
8
BLACK
6
CONTINUOUS
10
204
20
-73
11
203.805
21
-72.9808
0
LINE
8
BLACK
6
CONTINUOUS
10
203.805
20
-72.9808
11
203.617
21
-72.9239
0
LINE
8
BLACK
6
CONTINUOUS
10
203.617
20
-72.9239
11
203.444
21
-72.8315
0
LINE
8
BLACK
6
CONTINUOUS
10
203.444
20
-72.8315
11
203.293
21
-72.7071
0
LINE
8
BLACK
6
CONTINUOUS
10
203.293
20
-72.7071
11
203.169
21
-72.5556
0
LINE
8
BLACK
6
CONTINUOUS
10
203.169
20
-72.5556
11
203.076
21
-72.3827
0
LINE
8
BLACK
6
CONTINUOUS
10
203.076
20
-72.3827
11
203.019
21
-72.1951
0
LINE
8
BLACK
6
CONTINUOUS
10
203.019
20
-72.1951
11
203
21
-72
0
LINE
8
BLACK
6
CONTINUOUS
10
203
20
-72
11
203.019
21
-71.8049
0
LINE
8
BLACK
6
CONTINUOUS
10
203.019
20
-71.8049
11
203.076
21
-71.6173
0
LINE
8
BLACK
6
CONTINUOUS
10
203.076
20
-71.6173
11
203.169
21
-71.4444
0
LINE
8
BLACK
6
CONTINUOUS
10
203.169
20
-71.4444
11
203.293
21
-71.2929
0
LINE
8
BLACK
6
CONTINUOUS
10
203.293
20
-71.2929
11
203.444
21
-71.1685
0
LINE
8
BLACK
6
CONTINUOUS
10
203.444
20
-71.1685
11
203.617
21
-71.0761
0
LINE
8
BLACK
6
CONTINUOUS
10
203.617
20
-71.0761
11
203.805
21
-71.0192
0
LINE
8
BLACK
6
CONTINUOUS
10
203.805
20
-71.0192
11
204
21
-71
0
LINE
8
BLACK
6
CONTINUOUS
10
204
20
-71
11
204.195
21
-71.0192
0
LINE
8
BLACK
6
CONTINUOUS
10
204.195
20
-71.0192
11
204.383
21
-71.0761
0
LINE
8
BLACK
6
CONTINUOUS
10
204.383
20
-71.0761
11
204.556
21
-71.1685
0
LINE
8
BLACK
6
CONTINUOUS
10
204.556
20
-71.1685
11
204.707
21
-71.2929
0
LINE
8
BLACK
6
CONTINUOUS
10
204.707
20
-71.2929
11
204.721
21
-71.31
0
LINE
8
BLACK
6
CONTINUOUS
10
204.721
20
-71.31
11
206.449
21
-71.31
0
LINE
8
BLACK
6
CONTINUOUS
10
206.449
20
-71.31
11
207.91
21
-69.8493
0
LINE
8
BLACK
6
CONTINUOUS
10
207.91
20
-69.8493
11
207.91
21
-67.1036
0
LINE
8
BLACK
6
CONTINUOUS
10
207.91
20
-67.1036
11
207.88
21
-67.018
0
LINE
8
BLACK
6
CONTINUOUS
10
207.88
20
-67.018
11
207.86
21
-66.84
0
LINE
8
BLACK
6
CONTINUOUS
10
207.86
20
-66.84
11
207.88
21
-66.662
0
LINE
8
BLACK
6
CONTINUOUS
10
207.88
20
-66.662
11
207.939
21
-66.4929
0
LINE
8
BLACK
6
CONTINUOUS
10
207.939
20
-66.4929
11
208.035
21
-66.3412
0
LINE
8
BLACK
6
CONTINUOUS
10
208.035
20
-66.3412
11
208.161
21
-66.2145
0
LINE
8
BLACK
6
CONTINUOUS
10
208.161
20
-66.2145
11
208.313
21
-66.1192
0
LINE
8
BLACK
6
CONTINUOUS
10
208.313
20
-66.1192
11
208.482
21
-66.0601
0
LINE
8
BLACK
6
CONTINUOUS
10
208.482
20
-66.0601
11
208.66
21
-66.04
0
LINE
8
BLACK
6
CONTINUOUS
10
208.66
20
-66.04
11
208.838
21
-66.0601
0
LINE
8
BLACK
6
CONTINUOUS
10
208.838
20
-66.0601
11
208.924
21
-66.09
0
LINE
8
BLACK
6
CONTINUOUS
10
208.924
20
-66.09
11
213.596
21
-66.09
0
LINE
8
BLACK
6
CONTINUOUS
10
213.596
20
-66.09
11
213.682
21
-66.0601
0
LINE
8
BLACK
6
CONTINUOUS
10
213.682
20
-66.0601
11
213.86
21
-66.04
0
LINE
8
BLACK
6
CONTINUOUS
10
213.86
20
-66.04
11
214.038
21
-66.0601
0
LINE
8
BLACK
6
CONTINUOUS
10
178.795
20
-68.4792
11
178.983
21
-68.5361
0
LINE
8
BLACK
6
CONTINUOUS
10
178.983
20
-68.5361
11
179.156
21
-68.6285
0
LINE
8
BLACK
6
CONTINUOUS
10
179.156
20
-68.6285
11
179.307
21
-68.7529
0
LINE
8
BLACK
6
CONTINUOUS
10
179.307
20
-68.7529
11
179.431
21
-68.9044
0
LINE
8
BLACK
6
CONTINUOUS
10
179.431
20
-68.9044
11
179.524
21
-69.0773
0
LINE
8
BLACK
6
CONTINUOUS
10
179.524
20
-69.0773
11
179.581
21
-69.2649
0
LINE
8
BLACK
6
CONTINUOUS
10
179.581
20
-69.2649
11
179.6
21
-69.46
0
LINE
8
BLACK
6
CONTINUOUS
10
179.6
20
-69.46
11
179.581
21
-69.6551
0
LINE
8
BLACK
6
CONTINUOUS
10
179.581
20
-69.6551
11
179.524
21
-69.8427
0
LINE
8
BLACK
6
CONTINUOUS
10
179.524
20
-69.8427
11
179.431
21
-70.0156
0
LINE
8
BLACK
6
CONTINUOUS
10
179.431
20
-70.0156
11
179.307
21
-70.1671
0
LINE
8
BLACK
6
CONTINUOUS
10
179.307
20
-70.1671
11
179.156
21
-70.2915
0
LINE
8
BLACK
6
CONTINUOUS
10
179.156
20
-70.2915
11
178.983
21
-70.3839
0
LINE
8
BLACK
6
CONTINUOUS
10
178.983
20
-70.3839
11
178.795
21
-70.4408
0
LINE
8
BLACK
6
CONTINUOUS
10
178.795
20
-70.4408
11
178.6
21
-70.46
0
LINE
8
BLACK
6
CONTINUOUS
10
178.6
20
-70.46
11
178.405
21
-70.4408
0
LINE
8
BLACK
6
CONTINUOUS
10
178.405
20
-70.4408
11
178.217
21
-70.3839
0
LINE
8
BLACK
6
CONTINUOUS
10
178.217
20
-70.3839
11
178.044
21
-70.2915
0
LINE
8
BLACK
6
CONTINUOUS
10
178.044
20
-70.2915
11
177.893
21
-70.1671
0
LINE
8
BLACK
6
CONTINUOUS
10
177.893
20
-70.1671
11
177.769
21
-70.0156
0
LINE
8
BLACK
6
CONTINUOUS
10
177.769
20
-70.0156
11
177.676
21
-69.8427
0
LINE
8
BLACK
6
CONTINUOUS
10
177.676
20
-69.8427
11
177.619
21
-69.6551
0
LINE
8
BLACK
6
CONTINUOUS
10
177.619
20
-69.6551
11
177.6
21
-69.46
0
LINE
8
BLACK
6
CONTINUOUS
10
177.6
20
-69.46
11
177.619
21
-69.2649
0
LINE
8
BLACK
6
CONTINUOUS
10
177.619
20
-69.2649
11
177.676
21
-69.0773
0
LINE
8
BLACK
6
CONTINUOUS
10
177.676
20
-69.0773
11
177.769
21
-68.9044
0
LINE
8
BLACK
6
CONTINUOUS
10
177.769
20
-68.9044
11
177.893
21
-68.7529
0
LINE
8
BLACK
6
CONTINUOUS
10
177.893
20
-68.7529
11
178.044
21
-68.6285
0
LINE
8
BLACK
6
CONTINUOUS
10
178.044
20
-68.6285
11
178.217
21
-68.5361
0
LINE
8
BLACK
6
CONTINUOUS
10
178.217
20
-68.5361
11
178.405
21
-68.4792
0
LINE
8
BLACK
6
CONTINUOUS
10
178.405
20
-68.4792
11
178.6
21
-68.46
0
LINE
8
BLACK
6
CONTINUOUS
10
178.6
20
-68.46
11
178.795
21
-68.4792
0
LINE
8
BLACK
6
CONTINUOUS
10
204.195
20
-68.4792
11
204.383
21
-68.5361
0
LINE
8
BLACK
6
CONTINUOUS
10
204.383
20
-68.5361
11
204.556
21
-68.6285
0
LINE
8
BLACK
6
CONTINUOUS
10
204.556
20
-68.6285
11
204.707
21
-68.7529
0
LINE
8
BLACK
6
CONTINUOUS
10
204.707
20
-68.7529
11
204.831
21
-68.9044
0
LINE
8
BLACK
6
CONTINUOUS
10
204.831
20
-68.9044
11
204.924
21
-69.0773
0
LINE
8
BLACK
6
CONTINUOUS
10
204.924
20
-69.0773
11
204.981
21
-69.2649
0
LINE
8
BLACK
6
CONTINUOUS
10
204.981
20
-69.2649
11
205
21
-69.46
0
LINE
8
BLACK
6
CONTINUOUS
10
205
20
-69.46
11
204.981
21
-69.6551
0
LINE
8
BLACK
6
CONTINUOUS
10
204.981
20
-69.6551
11
204.924
21
-69.8427
0
LINE
8
BLACK
6
CONTINUOUS
10
204.924
20
-69.8427
11
204.831
21
-70.0156
0
LINE
8
BLACK
6
CONTINUOUS
10
204.831
20
-70.0156
11
204.707
21
-70.1671
0
LINE
8
BLACK
6
CONTINUOUS
10
204.707
20
-70.1671
11
204.556
21
-70.2915
0
LINE
8
BLACK
6
CONTINUOUS
10
204.556
20
-70.2915
11
204.383
21
-70.3839
0
LINE
8
BLACK
6
CONTINUOUS
10
204.383
20
-70.3839
11
204.195
21
-70.4408
0
LINE
8
BLACK
6
CONTINUOUS
10
204.195
20
-70.4408
11
204
21
-70.46
0
LINE
8
BLACK
6
CONTINUOUS
10
204
20
-70.46
11
203.805
21
-70.4408
0
LINE
8
BLACK
6
CONTINUOUS
10
203.805
20
-70.4408
11
203.617
21
-70.3839
0
LINE
8
BLACK
6
CONTINUOUS
10
203.617
20
-70.3839
11
203.444
21
-70.2915
0
LINE
8
BLACK
6
CONTINUOUS
10
203.444
20
-70.2915
11
203.293
21
-70.1671
0
LINE
8
BLACK
6
CONTINUOUS
10
203.293
20
-70.1671
11
203.169
21
-70.0156
0
LINE
8
BLACK
6
CONTINUOUS
10
203.169
20
-70.0156
11
203.076
21
-69.8427
0
LINE
8
BLACK
6
CONTINUOUS
10
203.076
20
-69.8427
11
203.019
21
-69.6551
0
LINE
8
BLACK
6
CONTINUOUS
10
203.019
20
-69.6551
11
203
21
-69.46
0
LINE
8
BLACK
6
CONTINUOUS
10
203
20
-69.46
11
203.019
21
-69.2649
0
LINE
8
BLACK
6
CONTINUOUS
10
203.019
20
-69.2649
11
203.076
21
-69.0773
0
LINE
8
BLACK
6
CONTINUOUS
10
203.076
20
-69.0773
11
203.169
21
-68.9044
0
LINE
8
BLACK
6
CONTINUOUS
10
203.169
20
-68.9044
11
203.293
21
-68.7529
0
LINE
8
BLACK
6
CONTINUOUS
10
203.293
20
-68.7529
11
203.444
21
-68.6285
0
LINE
8
BLACK
6
CONTINUOUS
10
203.444
20
-68.6285
11
203.617
21
-68.5361
0
LINE
8
BLACK
6
CONTINUOUS
10
203.617
20
-68.5361
11
203.805
21
-68.4792
0
LINE
8
BLACK
6
CONTINUOUS
10
203.805
20
-68.4792
11
204
21
-68.46
0
LINE
8
BLACK
6
CONTINUOUS
10
204
20
-68.46
11
204.195
21
-68.4792
0
LINE
8
BLACK
6
CONTINUOUS
10
178.795
20
-65.9392
11
178.983
21
-65.9961
0
LINE
8
BLACK
6
CONTINUOUS
10
178.983
20
-65.9961
11
179.156
21
-66.0885
0
LINE
8
BLACK
6
CONTINUOUS
10
179.156
20
-66.0885
11
179.307
21
-66.2129
0
LINE
8
BLACK
6
CONTINUOUS
10
179.307
20
-66.2129
11
179.431
21
-66.3644
0
LINE
8
BLACK
6
CONTINUOUS
10
179.431
20
-66.3644
11
179.524
21
-66.5373
0
LINE
8
BLACK
6
CONTINUOUS
10
179.524
20
-66.5373
11
179.581
21
-66.7249
0
LINE
8
BLACK
6
CONTINUOUS
10
179.581
20
-66.7249
11
179.6
21
-66.92
0
LINE
8
BLACK
6
CONTINUOUS
10
179.6
20
-66.92
11
179.581
21
-67.1151
0
LINE
8
BLACK
6
CONTINUOUS
10
179.581
20
-67.1151
11
179.524
21
-67.3027
0
LINE
8
BLACK
6
CONTINUOUS
10
179.524
20
-67.3027
11
179.431
21
-67.4756
0
LINE
8
BLACK
6
CONTINUOUS
10
179.431
20
-67.4756
11
179.307
21
-67.6271
0
LINE
8
BLACK
6
CONTINUOUS
10
179.307
20
-67.6271
11
179.156
21
-67.7515
0
LINE
8
BLACK
6
CONTINUOUS
10
179.156
20
-67.7515
11
178.983
21
-67.8439
0
LINE
8
BLACK
6
CONTINUOUS
10
178.983
20
-67.8439
11
178.795
21
-67.9008
0
LINE
8
BLACK
6
CONTINUOUS
10
178.795
20
-67.9008
11
178.6
21
-67.92
0
LINE
8
BLACK
6
CONTINUOUS
10
178.6
20
-67.92
11
178.405
21
-67.9008
0
LINE
8
BLACK
6
CONTINUOUS
10
178.405
20
-67.9008
11
178.217
21
-67.8439
0
LINE
8
BLACK
6
CONTINUOUS
10
178.217
20
-67.8439
11
178.044
21
-67.7515
0
LINE
8
BLACK
6
CONTINUOUS
10
178.044
20
-67.7515
11
177.893
21
-67.6271
0
LINE
8
BLACK
6
CONTINUOUS
10
177.893
20
-67.6271
11
177.769
21
-67.4756
0
LINE
8
BLACK
6
CONTINUOUS
10
177.769
20
-67.4756
11
177.676
21
-67.3027
0
LINE
8
BLACK
6
CONTINUOUS
10
177.676
20
-67.3027
11
177.619
21
-67.1151
0
LINE
8
BLACK
6
CONTINUOUS
10
177.619
20
-67.1151
11
177.6
21
-66.92
0
LINE
8
BLACK
6
CONTINUOUS
10
177.6
20
-66.92
11
177.619
21
-66.7249
0
LINE
8
BLACK
6
CONTINUOUS
10
177.619
20
-66.7249
11
177.676
21
-66.5373
0
LINE
8
BLACK
6
CONTINUOUS
10
177.676
20
-66.5373
11
177.769
21
-66.3644
0
LINE
8
BLACK
6
CONTINUOUS
10
177.769
20
-66.3644
11
177.893
21
-66.2129
0
LINE
8
BLACK
6
CONTINUOUS
10
177.893
20
-66.2129
11
178.044
21
-66.0885
0
LINE
8
BLACK
6
CONTINUOUS
10
178.044
20
-66.0885
11
178.217
21
-65.9961
0
LINE
8
BLACK
6
CONTINUOUS
10
178.217
20
-65.9961
11
178.405
21
-65.9392
0
LINE
8
BLACK
6
CONTINUOUS
10
178.405
20
-65.9392
11
178.6
21
-65.92
0
LINE
8
BLACK
6
CONTINUOUS
10
178.6
20
-65.92
11
178.795
21
-65.9392
0
LINE
8
BLACK
6
CONTINUOUS
10
204.195
20
-65.9392
11
204.383
21
-65.9961
0
LINE
8
BLACK
6
CONTINUOUS
10
204.383
20
-65.9961
11
204.556
21
-66.0885
0
LINE
8
BLACK
6
CONTINUOUS
10
204.556
20
-66.0885
11
204.707
21
-66.2129
0
LINE
8
BLACK
6
CONTINUOUS
10
204.707
20
-66.2129
11
204.831
21
-66.3644
0
LINE
8
BLACK
6
CONTINUOUS
10
204.831
20
-66.3644
11
204.924
21
-66.5373
0
LINE
8
BLACK
6
CONTINUOUS
10
204.924
20
-66.5373
11
204.981
21
-66.7249
0
LINE
8
BLACK
6
CONTINUOUS
10
204.981
20
-66.7249
11
205
21
-66.92
0
LINE
8
BLACK
6
CONTINUOUS
10
205
20
-66.92
11
204.981
21
-67.1151
0
LINE
8
BLACK
6
CONTINUOUS
10
204.981
20
-67.1151
11
204.924
21
-67.3027
0
LINE
8
BLACK
6
CONTINUOUS
10
204.924
20
-67.3027
11
204.831
21
-67.4756
0
LINE
8
BLACK
6
CONTINUOUS
10
204.831
20
-67.4756
11
204.707
21
-67.6271
0
LINE
8
BLACK
6
CONTINUOUS
10
204.707
20
-67.6271
11
204.556
21
-67.7515
0
LINE
8
BLACK
6
CONTINUOUS
10
204.556
20
-67.7515
11
204.383
21
-67.8439
0
LINE
8
BLACK
6
CONTINUOUS
10
204.383
20
-67.8439
11
204.195
21
-67.9008
0
LINE
8
BLACK
6
CONTINUOUS
10
204.195
20
-67.9008
11
204
21
-67.92
0
LINE
8
BLACK
6
CONTINUOUS
10
204
20
-67.92
11
203.805
21
-67.9008
0
LINE
8
BLACK
6
CONTINUOUS
10
203.805
20
-67.9008
11
203.617
21
-67.8439
0
LINE
8
BLACK
6
CONTINUOUS
10
203.617
20
-67.8439
11
203.444
21
-67.7515
0
LINE
8
BLACK
6
CONTINUOUS
10
203.444
20
-67.7515
11
203.293
21
-67.6271
0
LINE
8
BLACK
6
CONTINUOUS
10
203.293
20
-67.6271
11
203.169
21
-67.4756
0
LINE
8
BLACK
6
CONTINUOUS
10
203.169
20
-67.4756
11
203.076
21
-67.3027
0
LINE
8
BLACK
6
CONTINUOUS
10
203.076
20
-67.3027
11
203.019
21
-67.1151
0
LINE
8
BLACK
6
CONTINUOUS
10
203.019
20
-67.1151
11
203
21
-66.92
0
LINE
8
BLACK
6
CONTINUOUS
10
203
20
-66.92
11
203.019
21
-66.7249
0
LINE
8
BLACK
6
CONTINUOUS
10
203.019
20
-66.7249
11
203.076
21
-66.5373
0
LINE
8
BLACK
6
CONTINUOUS
10
203.076
20
-66.5373
11
203.169
21
-66.3644
0
LINE
8
BLACK
6
CONTINUOUS
10
203.169
20
-66.3644
11
203.293
21
-66.2129
0
LINE
8
BLACK
6
CONTINUOUS
10
203.293
20
-66.2129
11
203.444
21
-66.0885
0
LINE
8
BLACK
6
CONTINUOUS
10
203.444
20
-66.0885
11
203.617
21
-65.9961
0
LINE
8
BLACK
6
CONTINUOUS
10
203.617
20
-65.9961
11
203.805
21
-65.9392
0
LINE
8
BLACK
6
CONTINUOUS
10
203.805
20
-65.9392
11
204
21
-65.92
0
LINE
8
BLACK
6
CONTINUOUS
10
204
20
-65.92
11
204.195
21
-65.9392
0
LINE
8
BLACK
6
CONTINUOUS
10
178.795
20
-63.3992
11
178.983
21
-63.4561
0
LINE
8
BLACK
6
CONTINUOUS
10
178.983
20
-63.4561
11
179.156
21
-63.5485
0
LINE
8
BLACK
6
CONTINUOUS
10
179.156
20
-63.5485
11
179.307
21
-63.6729
0
LINE
8
BLACK
6
CONTINUOUS
10
179.307
20
-63.6729
11
179.431
21
-63.8244
0
LINE
8
BLACK
6
CONTINUOUS
10
179.431
20
-63.8244
11
179.524
21
-63.9973
0
LINE
8
BLACK
6
CONTINUOUS
10
179.524
20
-63.9973
11
179.581
21
-64.1849
0
LINE
8
BLACK
6
CONTINUOUS
10
179.581
20
-64.1849
11
179.6
21
-64.38
0
LINE
8
BLACK
6
CONTINUOUS
10
179.6
20
-64.38
11
179.581
21
-64.5751
0
LINE
8
BLACK
6
CONTINUOUS
10
179.581
20
-64.5751
11
179.524
21
-64.7627
0
LINE
8
BLACK
6
CONTINUOUS
10
179.524
20
-64.7627
11
179.431
21
-64.9356
0
LINE
8
BLACK
6
CONTINUOUS
10
179.431
20
-64.9356
11
179.307
21
-65.0871
0
LINE
8
BLACK
6
CONTINUOUS
10
179.307
20
-65.0871
11
179.156
21
-65.2115
0
LINE
8
BLACK
6
CONTINUOUS
10
179.156
20
-65.2115
11
178.983
21
-65.3039
0
LINE
8
BLACK
6
CONTINUOUS
10
178.983
20
-65.3039
11
178.795
21
-65.3608
0
LINE
8
BLACK
6
CONTINUOUS
10
178.795
20
-65.3608
11
178.6
21
-65.38
0
LINE
8
BLACK
6
CONTINUOUS
10
178.6
20
-65.38
11
178.405
21
-65.3608
0
LINE
8
BLACK
6
CONTINUOUS
10
178.405
20
-65.3608
11
178.217
21
-65.3039
0
LINE
8
BLACK
6
CONTINUOUS
10
178.217
20
-65.3039
11
178.044
21
-65.2115
0
LINE
8
BLACK
6
CONTINUOUS
10
178.044
20
-65.2115
11
177.893
21
-65.0871
0
LINE
8
BLACK
6
CONTINUOUS
10
177.893
20
-65.0871
11
177.769
21
-64.9356
0
LINE
8
BLACK
6
CONTINUOUS
10
177.769
20
-64.9356
11
177.676
21
-64.7627
0
LINE
8
BLACK
6
CONTINUOUS
10
177.676
20
-64.7627
11
177.619
21
-64.5751
0
LINE
8
BLACK
6
CONTINUOUS
10
177.619
20
-64.5751
11
177.6
21
-64.38
0
LINE
8
BLACK
6
CONTINUOUS
10
177.6
20
-64.38
11
177.619
21
-64.1849
0
LINE
8
BLACK
6
CONTINUOUS
10
177.619
20
-64.1849
11
177.676
21
-63.9973
0
LINE
8
BLACK
6
CONTINUOUS
10
177.676
20
-63.9973
11
177.769
21
-63.8244
0
LINE
8
BLACK
6
CONTINUOUS
10
177.769
20
-63.8244
11
177.893
21
-63.6729
0
LINE
8
BLACK
6
CONTINUOUS
10
177.893
20
-63.6729
11
178.044
21
-63.5485
0
LINE
8
BLACK
6
CONTINUOUS
10
178.044
20
-63.5485
11
178.217
21
-63.4561
0
LINE
8
BLACK
6
CONTINUOUS
10
178.217
20
-63.4561
11
178.405
21
-63.3992
0
LINE
8
BLACK
6
CONTINUOUS
10
178.405
20
-63.3992
11
178.6
21
-63.38
0
LINE
8
BLACK
6
CONTINUOUS
10
178.6
20
-63.38
11
178.795
21
-63.3992
0
LINE
8
BLACK
6
CONTINUOUS
10
215.223
20
-50.8916
11
215.385
21
-50.9639
0
LINE
8
BLACK
6
CONTINUOUS
10
215.385
20
-50.9639
11
215.529
21
-51.0683
0
LINE
8
BLACK
6
CONTINUOUS
10
215.529
20
-51.0683
11
215.648
21
-51.2004
0
LINE
8
BLACK
6
CONTINUOUS
10
215.648
20
-51.2004
11
215.737
21
-51.3543
0
LINE
8
BLACK
6
CONTINUOUS
10
215.737
20
-51.3543
11
215.791
21
-51.5233
0
LINE
8
BLACK
6
CONTINUOUS
10
215.791
20
-51.5233
11
215.81
21
-51.7
0
LINE
8
BLACK
6
CONTINUOUS
10
215.81
20
-51.7
11
215.791
21
-51.8767
0
LINE
8
BLACK
6
CONTINUOUS
10
215.791
20
-51.8767
11
215.737
21
-52.0457
0
LINE
8
BLACK
6
CONTINUOUS
10
215.737
20
-52.0457
11
215.71
21
-52.0916
0
LINE
8
BLACK
6
CONTINUOUS
10
215.71
20
-52.0916
11
215.71
21
-56.86
0
LINE
8
BLACK
6
CONTINUOUS
10
215.71
20
-56.86
11
215.707
21
-56.9145
0
LINE
8
BLACK
6
CONTINUOUS
10
215.707
20
-56.9145
11
215.707
21
-56.9254
0
LINE
8
BLACK
6
CONTINUOUS
10
215.707
20
-56.9254
11
215.706
21
-56.9318
0
LINE
8
BLACK
6
CONTINUOUS
10
215.706
20
-56.9318
11
215.705
21
-56.9471
0
LINE
8
BLACK
6
CONTINUOUS
10
215.705
20
-56.9471
11
215.687
21
-57.0213
0
LINE
8
BLACK
6
CONTINUOUS
10
215.687
20
-57.0213
11
215.672
21
-57.0959
0
LINE
8
BLACK
6
CONTINUOUS
10
215.672
20
-57.0959
11
215.667
21
-57.1058
0
LINE
8
BLACK
6
CONTINUOUS
10
215.667
20
-57.1058
11
215.665
21
-57.1165
0
LINE
8
BLACK
6
CONTINUOUS
10
215.665
20
-57.1165
11
215.631
21
-57.1846
0
LINE
8
BLACK
6
CONTINUOUS
10
215.631
20
-57.1846
11
215.598
21
-57.2537
0
LINE
8
BLACK
6
CONTINUOUS
10
215.598
20
-57.2537
11
215.592
21
-57.2623
0
LINE
8
BLACK
6
CONTINUOUS
10
215.592
20
-57.2623
11
215.587
21
-57.2721
0
LINE
8
BLACK
6
CONTINUOUS
10
215.587
20
-57.2721
11
215.538
21
-57.3305
0
LINE
8
BLACK
6
CONTINUOUS
10
215.538
20
-57.3305
11
215.49
21
-57.3903
0
LINE
8
BLACK
6
CONTINUOUS
10
215.49
20
-57.3903
11
207.97
21
-64.9103
0
LINE
8
BLACK
6
CONTINUOUS
10
207.97
20
-64.9103
11
207.93
21
-64.9466
0
LINE
8
BLACK
6
CONTINUOUS
10
207.93
20
-64.9466
11
207.922
21
-64.9545
0
LINE
8
BLACK
6
CONTINUOUS
10
207.922
20
-64.9545
11
207.917
21
-64.9581
0
LINE
8
BLACK
6
CONTINUOUS
10
207.917
20
-64.9581
11
207.905
21
-64.9683
0
LINE
8
BLACK
6
CONTINUOUS
10
207.905
20
-64.9683
11
207.84
21
-65.0083
0
LINE
8
BLACK
6
CONTINUOUS
10
207.84
20
-65.0083
11
207.777
21
-65.0502
0
LINE
8
BLACK
6
CONTINUOUS
10
207.777
20
-65.0502
11
207.766
21
-65.054
0
LINE
8
BLACK
6
CONTINUOUS
10
207.766
20
-65.054
11
207.757
21
-65.0597
0
LINE
8
BLACK
6
CONTINUOUS
10
207.757
20
-65.0597
11
207.685
21
-65.0837
0
LINE
8
BLACK
6
CONTINUOUS
10
207.685
20
-65.0837
11
207.613
21
-65.1098
0
LINE
8
BLACK
6
CONTINUOUS
10
207.613
20
-65.1098
11
207.602
21
-65.1111
0
LINE
8
BLACK
6
CONTINUOUS
10
207.602
20
-65.1111
11
207.592
21
-65.1145
0
LINE
8
BLACK
6
CONTINUOUS
10
207.592
20
-65.1145
11
207.516
21
-65.1211
0
LINE
8
BLACK
6
CONTINUOUS
10
207.516
20
-65.1211
11
207.44
21
-65.13
0
LINE
8
BLACK
6
CONTINUOUS
10
207.44
20
-65.13
11
204.655
21
-65.13
0
LINE
8
BLACK
6
CONTINUOUS
10
204.655
20
-65.13
11
204.556
21
-65.2115
0
LINE
8
BLACK
6
CONTINUOUS
10
204.556
20
-65.2115
11
204.383
21
-65.3039
0
LINE
8
BLACK
6
CONTINUOUS
10
204.383
20
-65.3039
11
204.195
21
-65.3608
0
LINE
8
BLACK
6
CONTINUOUS
10
204.195
20
-65.3608
11
204
21
-65.38
0
LINE
8
BLACK
6
CONTINUOUS
10
204
20
-65.38
11
203.805
21
-65.3608
0
LINE
8
BLACK
6
CONTINUOUS
10
203.805
20
-65.3608
11
203.617
21
-65.3039
0
LINE
8
BLACK
6
CONTINUOUS
10
203.617
20
-65.3039
11
203.444
21
-65.2115
0
LINE
8
BLACK
6
CONTINUOUS
10
203.444
20
-65.2115
11
203.293
21
-65.0871
0
LINE
8
BLACK
6
CONTINUOUS
10
203.293
20
-65.0871
11
203.169
21
-64.9356
0
LINE
8
BLACK
6
CONTINUOUS
10
203.169
20
-64.9356
11
203.076
21
-64.7627
0
LINE
8
BLACK
6
CONTINUOUS
10
203.076
20
-64.7627
11
203.019
21
-64.5751
0
LINE
8
BLACK
6
CONTINUOUS
10
203.019
20
-64.5751
11
203
21
-64.38
0
LINE
8
BLACK
6
CONTINUOUS
10
203
20
-64.38
11
203.019
21
-64.1849
0
LINE
8
BLACK
6
CONTINUOUS
10
203.019
20
-64.1849
11
203.076
21
-63.9973
0
LINE
8
BLACK
6
CONTINUOUS
10
203.076
20
-63.9973
11
203.169
21
-63.8244
0
LINE
8
BLACK
6
CONTINUOUS
10
203.169
20
-63.8244
11
203.293
21
-63.6729
0
LINE
8
BLACK
6
CONTINUOUS
10
203.293
20
-63.6729
11
203.444
21
-63.5485
0
LINE
8
BLACK
6
CONTINUOUS
10
203.444
20
-63.5485
11
203.617
21
-63.4561
0
LINE
8
BLACK
6
CONTINUOUS
10
203.617
20
-63.4561
11
203.805
21
-63.3992
0
LINE
8
BLACK
6
CONTINUOUS
10
203.805
20
-63.3992
11
204
21
-63.38
0
LINE
8
BLACK
6
CONTINUOUS
10
204
20
-63.38
11
204.195
21
-63.3992
0
LINE
8
BLACK
6
CONTINUOUS
10
204.195
20
-63.3992
11
204.383
21
-63.4561
0
LINE
8
BLACK
6
CONTINUOUS
10
204.383
20
-63.4561
11
204.556
21
-63.5485
0
LINE
8
BLACK
6
CONTINUOUS
10
204.556
20
-63.5485
11
204.655
21
-63.63
0
LINE
8
BLACK
6
CONTINUOUS
10
204.655
20
-63.63
11
207.129
21
-63.63
0
LINE
8
BLACK
6
CONTINUOUS
10
207.129
20
-63.63
11
214.21
21
-56.5493
0
LINE
8
BLACK
6
CONTINUOUS
10
214.21
20
-56.5493
11
214.21
21
-52.0916
0
LINE
8
BLACK
6
CONTINUOUS
10
214.21
20
-52.0916
11
214.183
21
-52.0457
0
LINE
8
BLACK
6
CONTINUOUS
10
214.183
20
-52.0457
11
214.129
21
-51.8767
0
LINE
8
BLACK
6
CONTINUOUS
10
214.129
20
-51.8767
11
214.11
21
-51.7
0
LINE
8
BLACK
6
CONTINUOUS
10
214.11
20
-51.7
11
214.129
21
-51.5233
0
LINE
8
BLACK
6
CONTINUOUS
10
214.129
20
-51.5233
11
214.183
21
-51.3543
0
LINE
8
BLACK
6
CONTINUOUS
10
214.183
20
-51.3543
11
214.272
21
-51.2004
0
LINE
8
BLACK
6
CONTINUOUS
10
214.272
20
-51.2004
11
214.391
21
-51.0683
0
LINE
8
BLACK
6
CONTINUOUS
10
214.391
20
-51.0683
11
214.535
21
-50.9639
0
LINE
8
BLACK
6
CONTINUOUS
10
214.535
20
-50.9639
11
214.697
21
-50.8916
0
LINE
8
BLACK
6
CONTINUOUS
10
214.697
20
-50.8916
11
214.871
21
-50.8547
0
LINE
8
BLACK
6
CONTINUOUS
10
214.871
20
-50.8547
11
215.049
21
-50.8547
0
LINE
8
BLACK
6
CONTINUOUS
10
215.049
20
-50.8547
11
215.223
21
-50.8916
0
LINE
8
BLACK
6
CONTINUOUS
10
178.795
20
-60.8592
11
178.983
21
-60.9161
0
LINE
8
BLACK
6
CONTINUOUS
10
178.983
20
-60.9161
11
179.156
21
-61.0085
0
LINE
8
BLACK
6
CONTINUOUS
10
179.156
20
-61.0085
11
179.307
21
-61.1329
0
LINE
8
BLACK
6
CONTINUOUS
10
179.307
20
-61.1329
11
179.431
21
-61.2844
0
LINE
8
BLACK
6
CONTINUOUS
10
179.431
20
-61.2844
11
179.524
21
-61.4573
0
LINE
8
BLACK
6
CONTINUOUS
10
179.524
20
-61.4573
11
179.581
21
-61.6449
0
LINE
8
BLACK
6
CONTINUOUS
10
179.581
20
-61.6449
11
179.6
21
-61.84
0
LINE
8
BLACK
6
CONTINUOUS
10
179.6
20
-61.84
11
179.581
21
-62.0351
0
LINE
8
BLACK
6
CONTINUOUS
10
179.581
20
-62.0351
11
179.524
21
-62.2227
0
LINE
8
BLACK
6
CONTINUOUS
10
179.524
20
-62.2227
11
179.431
21
-62.3956
0
LINE
8
BLACK
6
CONTINUOUS
10
179.431
20
-62.3956
11
179.307
21
-62.5471
0
LINE
8
BLACK
6
CONTINUOUS
10
179.307
20
-62.5471
11
179.156
21
-62.6715
0
LINE
8
BLACK
6
CONTINUOUS
10
179.156
20
-62.6715
11
178.983
21
-62.7639
0
LINE
8
BLACK
6
CONTINUOUS
10
178.983
20
-62.7639
11
178.795
21
-62.8208
0
LINE
8
BLACK
6
CONTINUOUS
10
178.795
20
-62.8208
11
178.6
21
-62.84
0
LINE
8
BLACK
6
CONTINUOUS
10
178.6
20
-62.84
11
178.405
21
-62.8208
0
LINE
8
BLACK
6
CONTINUOUS
10
178.405
20
-62.8208
11
178.217
21
-62.7639
0
LINE
8
BLACK
6
CONTINUOUS
10
178.217
20
-62.7639
11
178.044
21
-62.6715
0
LINE
8
BLACK
6
CONTINUOUS
10
178.044
20
-62.6715
11
177.893
21
-62.5471
0
LINE
8
BLACK
6
CONTINUOUS
10
177.893
20
-62.5471
11
177.769
21
-62.3956
0
LINE
8
BLACK
6
CONTINUOUS
10
177.769
20
-62.3956
11
177.676
21
-62.2227
0
LINE
8
BLACK
6
CONTINUOUS
10
177.676
20
-62.2227
11
177.619
21
-62.0351
0
LINE
8
BLACK
6
CONTINUOUS
10
177.619
20
-62.0351
11
177.6
21
-61.84
0
LINE
8
BLACK
6
CONTINUOUS
10
177.6
20
-61.84
11
177.619
21
-61.6449
0
LINE
8
BLACK
6
CONTINUOUS
10
177.619
20
-61.6449
11
177.676
21
-61.4573
0
LINE
8
BLACK
6
CONTINUOUS
10
177.676
20
-61.4573
11
177.769
21
-61.2844
0
LINE
8
BLACK
6
CONTINUOUS
10
177.769
20
-61.2844
11
177.893
21
-61.1329
0
LINE
8
BLACK
6
CONTINUOUS
10
177.893
20
-61.1329
11
178.044
21
-61.0085
0
LINE
8
BLACK
6
CONTINUOUS
10
178.044
20
-61.0085
11
178.217
21
-60.9161
0
LINE
8
BLACK
6
CONTINUOUS
10
178.217
20
-60.9161
11
178.405
21
-60.8592
0
LINE
8
BLACK
6
CONTINUOUS
10
178.405
20
-60.8592
11
178.6
21
-60.84
0
LINE
8
BLACK
6
CONTINUOUS
10
178.6
20
-60.84
11
178.795
21
-60.8592
0
LINE
8
BLACK
6
CONTINUOUS
10
204.195
20
-60.8592
11
204.383
21
-60.9161
0
LINE
8
BLACK
6
CONTINUOUS
10
204.383
20
-60.9161
11
204.556
21
-61.0085
0
LINE
8
BLACK
6
CONTINUOUS
10
204.556
20
-61.0085
11
204.707
21
-61.1329
0
LINE
8
BLACK
6
CONTINUOUS
10
204.707
20
-61.1329
11
204.831
21
-61.2844
0
LINE
8
BLACK
6
CONTINUOUS
10
204.831
20
-61.2844
11
204.924
21
-61.4573
0
LINE
8
BLACK
6
CONTINUOUS
10
204.924
20
-61.4573
11
204.981
21
-61.6449
0
LINE
8
BLACK
6
CONTINUOUS
10
204.981
20
-61.6449
11
205
21
-61.84
0
LINE
8
BLACK
6
CONTINUOUS
10
205
20
-61.84
11
204.981
21
-62.0351
0
LINE
8
BLACK
6
CONTINUOUS
10
204.981
20
-62.0351
11
204.924
21
-62.2227
0
LINE
8
BLACK
6
CONTINUOUS
10
204.924
20
-62.2227
11
204.831
21
-62.3956
0
LINE
8
BLACK
6
CONTINUOUS
10
204.831
20
-62.3956
11
204.707
21
-62.5471
0
LINE
8
BLACK
6
CONTINUOUS
10
204.707
20
-62.5471
11
204.556
21
-62.6715
0
LINE
8
BLACK
6
CONTINUOUS
10
204.556
20
-62.6715
11
204.383
21
-62.7639
0
LINE
8
BLACK
6
CONTINUOUS
10
204.383
20
-62.7639
11
204.195
21
-62.8208
0
LINE
8
BLACK
6
CONTINUOUS
10
204.195
20
-62.8208
11
204
21
-62.84
0
LINE
8
BLACK
6
CONTINUOUS
10
204
20
-62.84
11
203.805
21
-62.8208
0
LINE
8
BLACK
6
CONTINUOUS
10
203.805
20
-62.8208
11
203.617
21
-62.7639
0
LINE
8
BLACK
6
CONTINUOUS
10
203.617
20
-62.7639
11
203.444
21
-62.6715
0
LINE
8
BLACK
6
CONTINUOUS
10
203.444
20
-62.6715
11
203.293
21
-62.5471
0
LINE
8
BLACK
6
CONTINUOUS
10
203.293
20
-62.5471
11
203.169
21
-62.3956
0
LINE
8
BLACK
6
CONTINUOUS
10
203.169
20
-62.3956
11
203.076
21
-62.2227
0
LINE
8
BLACK
6
CONTINUOUS
10
203.076
20
-62.2227
11
203.019
21
-62.0351
0
LINE
8
BLACK
6
CONTINUOUS
10
203.019
20
-62.0351
11
203
21
-61.84
0
LINE
8
BLACK
6
CONTINUOUS
10
203
20
-61.84
11
203.019
21
-61.6449
0
LINE
8
BLACK
6
CONTINUOUS
10
203.019
20
-61.6449
11
203.076
21
-61.4573
0
LINE
8
BLACK
6
CONTINUOUS
10
203.076
20
-61.4573
11
203.169
21
-61.2844
0
LINE
8
BLACK
6
CONTINUOUS
10
203.169
20
-61.2844
11
203.293
21
-61.1329
0
LINE
8
BLACK
6
CONTINUOUS
10
203.293
20
-61.1329
11
203.444
21
-61.0085
0
LINE
8
BLACK
6
CONTINUOUS
10
203.444
20
-61.0085
11
203.617
21
-60.9161
0
LINE
8
BLACK
6
CONTINUOUS
10
203.617
20
-60.9161
11
203.805
21
-60.8592
0
LINE
8
BLACK
6
CONTINUOUS
10
203.805
20
-60.8592
11
204
21
-60.84
0
LINE
8
BLACK
6
CONTINUOUS
10
204
20
-60.84
11
204.195
21
-60.8592
0
LINE
8
BLACK
6
CONTINUOUS
10
178.795
20
-58.3192
11
178.983
21
-58.3761
0
LINE
8
BLACK
6
CONTINUOUS
10
178.983
20
-58.3761
11
179.156
21
-58.4685
0
LINE
8
BLACK
6
CONTINUOUS
10
179.156
20
-58.4685
11
179.307
21
-58.5929
0
LINE
8
BLACK
6
CONTINUOUS
10
179.307
20
-58.5929
11
179.431
21
-58.7444
0
LINE
8
BLACK
6
CONTINUOUS
10
179.431
20
-58.7444
11
179.524
21
-58.9173
0
LINE
8
BLACK
6
CONTINUOUS
10
179.524
20
-58.9173
11
179.581
21
-59.1049
0
LINE
8
BLACK
6
CONTINUOUS
10
179.581
20
-59.1049
11
179.6
21
-59.3
0
LINE
8
BLACK
6
CONTINUOUS
10
179.6
20
-59.3
11
179.581
21
-59.4951
0
LINE
8
BLACK
6
CONTINUOUS
10
179.581
20
-59.4951
11
179.524
21
-59.6827
0
LINE
8
BLACK
6
CONTINUOUS
10
179.524
20
-59.6827
11
179.431
21
-59.8556
0
LINE
8
BLACK
6
CONTINUOUS
10
179.431
20
-59.8556
11
179.307
21
-60.0071
0
LINE
8
BLACK
6
CONTINUOUS
10
179.307
20
-60.0071
11
179.156
21
-60.1315
0
LINE
8
BLACK
6
CONTINUOUS
10
179.156
20
-60.1315
11
178.983
21
-60.2239
0
LINE
8
BLACK
6
CONTINUOUS
10
178.983
20
-60.2239
11
178.795
21
-60.2808
0
LINE
8
BLACK
6
CONTINUOUS
10
178.795
20
-60.2808
11
178.6
21
-60.3
0
LINE
8
BLACK
6
CONTINUOUS
10
178.6
20
-60.3
11
178.405
21
-60.2808
0
LINE
8
BLACK
6
CONTINUOUS
10
178.405
20
-60.2808
11
178.217
21
-60.2239
0
LINE
8
BLACK
6
CONTINUOUS
10
178.217
20
-60.2239
11
178.044
21
-60.1315
0
LINE
8
BLACK
6
CONTINUOUS
10
178.044
20
-60.1315
11
177.893
21
-60.0071
0
LINE
8
BLACK
6
CONTINUOUS
10
177.893
20
-60.0071
11
177.769
21
-59.8556
0
LINE
8
BLACK
6
CONTINUOUS
10
177.769
20
-59.8556
11
177.676
21
-59.6827
0
LINE
8
BLACK
6
CONTINUOUS
10
177.676
20
-59.6827
11
177.619
21
-59.4951
0
LINE
8
BLACK
6
CONTINUOUS
10
177.619
20
-59.4951
11
177.6
21
-59.3
0
LINE
8
BLACK
6
CONTINUOUS
10
177.6
20
-59.3
11
177.619
21
-59.1049
0
LINE
8
BLACK
6
CONTINUOUS
10
177.619
20
-59.1049
11
177.676
21
-58.9173
0
LINE
8
BLACK
6
CONTINUOUS
10
177.676
20
-58.9173
11
177.769
21
-58.7444
0
LINE
8
BLACK
6
CONTINUOUS
10
177.769
20
-58.7444
11
177.893
21
-58.5929
0
LINE
8
BLACK
6
CONTINUOUS
10
177.893
20
-58.5929
11
178.044
21
-58.4685
0
LINE
8
BLACK
6
CONTINUOUS
10
178.044
20
-58.4685
11
178.217
21
-58.3761
0
LINE
8
BLACK
6
CONTINUOUS
10
178.217
20
-58.3761
11
178.405
21
-58.3192
0
LINE
8
BLACK
6
CONTINUOUS
10
178.405
20
-58.3192
11
178.6
21
-58.3
0
LINE
8
BLACK
6
CONTINUOUS
10
178.6
20
-58.3
11
178.795
21
-58.3192
0
LINE
8
BLACK
6
CONTINUOUS
10
208.523
20
-53.3916
11
208.685
21
-53.4639
0
LINE
8
BLACK
6
CONTINUOUS
10
208.685
20
-53.4639
11
208.829
21
-53.5683
0
LINE
8
BLACK
6
CONTINUOUS
10
208.829
20
-53.5683
11
208.948
21
-53.7004
0
LINE
8
BLACK
6
CONTINUOUS
10
208.948
20
-53.7004
11
209.037
21
-53.8543
0
LINE
8
BLACK
6
CONTINUOUS
10
209.037
20
-53.8543
11
209.091
21
-54.0233
0
LINE
8
BLACK
6
CONTINUOUS
10
209.091
20
-54.0233
11
209.11
21
-54.2
0
LINE
8
BLACK
6
CONTINUOUS
10
209.11
20
-54.2
11
209.091
21
-54.3767
0
LINE
8
BLACK
6
CONTINUOUS
10
209.091
20
-54.3767
11
209.037
21
-54.5457
0
LINE
8
BLACK
6
CONTINUOUS
10
209.037
20
-54.5457
11
209.01
21
-54.5916
0
LINE
8
BLACK
6
CONTINUOUS
10
209.01
20
-54.5916
11
209.01
21
-58.76
0
LINE
8
BLACK
6
CONTINUOUS
10
209.01
20
-58.76
11
209.007
21
-58.8145
0
LINE
8
BLACK
6
CONTINUOUS
10
209.007
20
-58.8145
11
209.007
21
-58.8254
0
LINE
8
BLACK
6
CONTINUOUS
10
209.007
20
-58.8254
11
209.006
21
-58.8318
0
LINE
8
BLACK
6
CONTINUOUS
10
209.006
20
-58.8318
11
209.005
21
-58.8471
0
LINE
8
BLACK
6
CONTINUOUS
10
209.005
20
-58.8471
11
208.987
21
-58.9213
0
LINE
8
BLACK
6
CONTINUOUS
10
208.987
20
-58.9213
11
208.972
21
-58.9959
0
LINE
8
BLACK
6
CONTINUOUS
10
208.972
20
-58.9959
11
208.967
21
-59.0058
0
LINE
8
BLACK
6
CONTINUOUS
10
208.967
20
-59.0058
11
208.965
21
-59.0165
0
LINE
8
BLACK
6
CONTINUOUS
10
208.965
20
-59.0165
11
208.931
21
-59.0846
0
LINE
8
BLACK
6
CONTINUOUS
10
208.931
20
-59.0846
11
208.898
21
-59.1537
0
LINE
8
BLACK
6
CONTINUOUS
10
208.898
20
-59.1537
11
208.892
21
-59.1623
0
LINE
8
BLACK
6
CONTINUOUS
10
208.892
20
-59.1623
11
208.887
21
-59.1721
0
LINE
8
BLACK
6
CONTINUOUS
10
208.887
20
-59.1721
11
208.838
21
-59.2305
0
LINE
8
BLACK
6
CONTINUOUS
10
208.838
20
-59.2305
11
208.79
21
-59.2903
0
LINE
8
BLACK
6
CONTINUOUS
10
208.79
20
-59.2903
11
208.25
21
-59.8303
0
LINE
8
BLACK
6
CONTINUOUS
10
208.25
20
-59.8303
11
208.21
21
-59.8666
0
LINE
8
BLACK
6
CONTINUOUS
10
208.21
20
-59.8666
11
208.202
21
-59.8745
0
LINE
8
BLACK
6
CONTINUOUS
10
208.202
20
-59.8745
11
208.197
21
-59.8781
0
LINE
8
BLACK
6
CONTINUOUS
10
208.197
20
-59.8781
11
208.185
21
-59.8883
0
LINE
8
BLACK
6
CONTINUOUS
10
208.185
20
-59.8883
11
208.12
21
-59.9283
0
LINE
8
BLACK
6
CONTINUOUS
10
208.12
20
-59.9283
11
208.057
21
-59.9702
0
LINE
8
BLACK
6
CONTINUOUS
10
208.057
20
-59.9702
11
208.046
21
-59.974
0
LINE
8
BLACK
6
CONTINUOUS
10
208.046
20
-59.974
11
208.037
21
-59.9797
0
LINE
8
BLACK
6
CONTINUOUS
10
208.037
20
-59.9797
11
207.965
21
-60.0037
0
LINE
8
BLACK
6
CONTINUOUS
10
207.965
20
-60.0037
11
207.893
21
-60.0298
0
LINE
8
BLACK
6
CONTINUOUS
10
207.893
20
-60.0298
11
207.882
21
-60.0311
0
LINE
8
BLACK
6
CONTINUOUS
10
207.882
20
-60.0311
11
207.872
21
-60.0345
0
LINE
8
BLACK
6
CONTINUOUS
10
207.872
20
-60.0345
11
207.796
21
-60.0411
0
LINE
8
BLACK
6
CONTINUOUS
10
207.796
20
-60.0411
11
207.72
21
-60.05
0
LINE
8
BLACK
6
CONTINUOUS
10
207.72
20
-60.05
11
204.655
21
-60.05
0
LINE
8
BLACK
6
CONTINUOUS
10
204.655
20
-60.05
11
204.556
21
-60.1315
0
LINE
8
BLACK
6
CONTINUOUS
10
204.556
20
-60.1315
11
204.383
21
-60.2239
0
LINE
8
BLACK
6
CONTINUOUS
10
204.383
20
-60.2239
11
204.195
21
-60.2808
0
LINE
8
BLACK
6
CONTINUOUS
10
204.195
20
-60.2808
11
204
21
-60.3
0
LINE
8
BLACK
6
CONTINUOUS
10
204
20
-60.3
11
203.805
21
-60.2808
0
LINE
8
BLACK
6
CONTINUOUS
10
203.805
20
-60.2808
11
203.617
21
-60.2239
0
LINE
8
BLACK
6
CONTINUOUS
10
203.617
20
-60.2239
11
203.444
21
-60.1315
0
LINE
8
BLACK
6
CONTINUOUS
10
203.444
20
-60.1315
11
203.293
21
-60.0071
0
LINE
8
BLACK
6
CONTINUOUS
10
203.293
20
-60.0071
11
203.169
21
-59.8556
0
LINE
8
BLACK
6
CONTINUOUS
10
203.169
20
-59.8556
11
203.076
21
-59.6827
0
LINE
8
BLACK
6
CONTINUOUS
10
203.076
20
-59.6827
11
203.019
21
-59.4951
0
LINE
8
BLACK
6
CONTINUOUS
10
203.019
20
-59.4951
11
203
21
-59.3
0
LINE
8
BLACK
6
CONTINUOUS
10
203
20
-59.3
11
203.019
21
-59.1049
0
LINE
8
BLACK
6
CONTINUOUS
10
203.019
20
-59.1049
11
203.076
21
-58.9173
0
LINE
8
BLACK
6
CONTINUOUS
10
203.076
20
-58.9173
11
203.169
21
-58.7444
0
LINE
8
BLACK
6
CONTINUOUS
10
203.169
20
-58.7444
11
203.293
21
-58.5929
0
LINE
8
BLACK
6
CONTINUOUS
10
203.293
20
-58.5929
11
203.444
21
-58.4685
0
LINE
8
BLACK
6
CONTINUOUS
10
203.444
20
-58.4685
11
203.617
21
-58.3761
0
LINE
8
BLACK
6
CONTINUOUS
10
203.617
20
-58.3761
11
203.805
21
-58.3192
0
LINE
8
BLACK
6
CONTINUOUS
10
203.805
20
-58.3192
11
204
21
-58.3
0
LINE
8
BLACK
6
CONTINUOUS
10
204
20
-58.3
11
204.195
21
-58.3192
0
LINE
8
BLACK
6
CONTINUOUS
10
204.195
20
-58.3192
11
204.383
21
-58.3761
0
LINE
8
BLACK
6
CONTINUOUS
10
204.383
20
-58.3761
11
204.556
21
-58.4685
0
LINE
8
BLACK
6
CONTINUOUS
10
204.556
20
-58.4685
11
204.655
21
-58.55
0
LINE
8
BLACK
6
CONTINUOUS
10
204.655
20
-58.55
11
207.409
21
-58.55
0
LINE
8
BLACK
6
CONTINUOUS
10
207.409
20
-58.55
11
207.51
21
-58.4493
0
LINE
8
BLACK
6
CONTINUOUS
10
207.51
20
-58.4493
11
207.51
21
-54.5916
0
LINE
8
BLACK
6
CONTINUOUS
10
207.51
20
-54.5916
11
207.483
21
-54.5457
0
LINE
8
BLACK
6
CONTINUOUS
10
207.483
20
-54.5457
11
207.429
21
-54.3767
0
LINE
8
BLACK
6
CONTINUOUS
10
207.429
20
-54.3767
11
207.41
21
-54.2
0
LINE
8
BLACK
6
CONTINUOUS
10
207.41
20
-54.2
11
207.429
21
-54.0233
0
LINE
8
BLACK
6
CONTINUOUS
10
207.429
20
-54.0233
11
207.483
21
-53.8543
0
LINE
8
BLACK
6
CONTINUOUS
10
207.483
20
-53.8543
11
207.572
21
-53.7004
0
LINE
8
BLACK
6
CONTINUOUS
10
207.572
20
-53.7004
11
207.691
21
-53.5683
0
LINE
8
BLACK
6
CONTINUOUS
10
207.691
20
-53.5683
11
207.835
21
-53.4639
0
LINE
8
BLACK
6
CONTINUOUS
10
207.835
20
-53.4639
11
207.997
21
-53.3916
0
LINE
8
BLACK
6
CONTINUOUS
10
207.997
20
-53.3916
11
208.171
21
-53.3547
0
LINE
8
BLACK
6
CONTINUOUS
10
208.171
20
-53.3547
11
208.349
21
-53.3547
0
LINE
8
BLACK
6
CONTINUOUS
10
208.349
20
-53.3547
11
208.523
21
-53.3916
0
LINE
8
BLACK
6
CONTINUOUS
10
178.795
20
-55.7792
11
178.983
21
-55.8361
0
LINE
8
BLACK
6
CONTINUOUS
10
178.983
20
-55.8361
11
179.156
21
-55.9285
0
LINE
8
BLACK
6
CONTINUOUS
10
179.156
20
-55.9285
11
179.307
21
-56.0529
0
LINE
8
BLACK
6
CONTINUOUS
10
179.307
20
-56.0529
11
179.431
21
-56.2044
0
LINE
8
BLACK
6
CONTINUOUS
10
179.431
20
-56.2044
11
179.524
21
-56.3773
0
LINE
8
BLACK
6
CONTINUOUS
10
179.524
20
-56.3773
11
179.581
21
-56.5649
0
LINE
8
BLACK
6
CONTINUOUS
10
179.581
20
-56.5649
11
179.6
21
-56.76
0
LINE
8
BLACK
6
CONTINUOUS
10
179.6
20
-56.76
11
179.581
21
-56.9551
0
LINE
8
BLACK
6
CONTINUOUS
10
179.581
20
-56.9551
11
179.524
21
-57.1427
0
LINE
8
BLACK
6
CONTINUOUS
10
179.524
20
-57.1427
11
179.431
21
-57.3156
0
LINE
8
BLACK
6
CONTINUOUS
10
179.431
20
-57.3156
11
179.307
21
-57.4671
0
LINE
8
BLACK
6
CONTINUOUS
10
179.307
20
-57.4671
11
179.156
21
-57.5915
0
LINE
8
BLACK
6
CONTINUOUS
10
179.156
20
-57.5915
11
178.983
21
-57.6839
0
LINE
8
BLACK
6
CONTINUOUS
10
178.983
20
-57.6839
11
178.795
21
-57.7408
0
LINE
8
BLACK
6
CONTINUOUS
10
178.795
20
-57.7408
11
178.6
21
-57.76
0
LINE
8
BLACK
6
CONTINUOUS
10
178.6
20
-57.76
11
178.405
21
-57.7408
0
LINE
8
BLACK
6
CONTINUOUS
10
178.405
20
-57.7408
11
178.217
21
-57.6839
0
LINE
8
BLACK
6
CONTINUOUS
10
178.217
20
-57.6839
11
178.044
21
-57.5915
0
LINE
8
BLACK
6
CONTINUOUS
10
178.044
20
-57.5915
11
177.893
21
-57.4671
0
LINE
8
BLACK
6
CONTINUOUS
10
177.893
20
-57.4671
11
177.769
21
-57.3156
0
LINE
8
BLACK
6
CONTINUOUS
10
177.769
20
-57.3156
11
177.676
21
-57.1427
0
LINE
8
BLACK
6
CONTINUOUS
10
177.676
20
-57.1427
11
177.619
21
-56.9551
0
LINE
8
BLACK
6
CONTINUOUS
10
177.619
20
-56.9551
11
177.6
21
-56.76
0
LINE
8
BLACK
6
CONTINUOUS
10
177.6
20
-56.76
11
177.619
21
-56.5649
0
LINE
8
BLACK
6
CONTINUOUS
10
177.619
20
-56.5649
11
177.676
21
-56.3773
0
LINE
8
BLACK
6
CONTINUOUS
10
177.676
20
-56.3773
11
177.769
21
-56.2044
0
LINE
8
BLACK
6
CONTINUOUS
10
177.769
20
-56.2044
11
177.893
21
-56.0529
0
LINE
8
BLACK
6
CONTINUOUS
10
177.893
20
-56.0529
11
178.044
21
-55.9285
0
LINE
8
BLACK
6
CONTINUOUS
10
178.044
20
-55.9285
11
178.217
21
-55.8361
0
LINE
8
BLACK
6
CONTINUOUS
10
178.217
20
-55.8361
11
178.405
21
-55.7792
0
LINE
8
BLACK
6
CONTINUOUS
10
178.405
20
-55.7792
11
178.6
21
-55.76
0
LINE
8
BLACK
6
CONTINUOUS
10
178.6
20
-55.76
11
178.795
21
-55.7792
0
LINE
8
BLACK
6
CONTINUOUS
10
204.195
20
-55.7792
11
204.383
21
-55.8361
0
LINE
8
BLACK
6
CONTINUOUS
10
204.383
20
-55.8361
11
204.556
21
-55.9285
0
LINE
8
BLACK
6
CONTINUOUS
10
204.556
20
-55.9285
11
204.707
21
-56.0529
0
LINE
8
BLACK
6
CONTINUOUS
10
204.707
20
-56.0529
11
204.831
21
-56.2044
0
LINE
8
BLACK
6
CONTINUOUS
10
204.831
20
-56.2044
11
204.924
21
-56.3773
0
LINE
8
BLACK
6
CONTINUOUS
10
204.924
20
-56.3773
11
204.981
21
-56.5649
0
LINE
8
BLACK
6
CONTINUOUS
10
204.981
20
-56.5649
11
205
21
-56.76
0
LINE
8
BLACK
6
CONTINUOUS
10
205
20
-56.76
11
204.981
21
-56.9551
0
LINE
8
BLACK
6
CONTINUOUS
10
204.981
20
-56.9551
11
204.924
21
-57.1427
0
LINE
8
BLACK
6
CONTINUOUS
10
204.924
20
-57.1427
11
204.831
21
-57.3156
0
LINE
8
BLACK
6
CONTINUOUS
10
204.831
20
-57.3156
11
204.707
21
-57.4671
0
LINE
8
BLACK
6
CONTINUOUS
10
204.707
20
-57.4671
11
204.556
21
-57.5915
0
LINE
8
BLACK
6
CONTINUOUS
10
204.556
20
-57.5915
11
204.383
21
-57.6839
0
LINE
8
BLACK
6
CONTINUOUS
10
204.383
20
-57.6839
11
204.195
21
-57.7408
0
LINE
8
BLACK
6
CONTINUOUS
10
204.195
20
-57.7408
11
204
21
-57.76
0
LINE
8
BLACK
6
CONTINUOUS
10
204
20
-57.76
11
203.805
21
-57.7408
0
LINE
8
BLACK
6
CONTINUOUS
10
203.805
20
-57.7408
11
203.617
21
-57.6839
0
LINE
8
BLACK
6
CONTINUOUS
10
203.617
20
-57.6839
11
203.444
21
-57.5915
0
LINE
8
BLACK
6
CONTINUOUS
10
203.444
20
-57.5915
11
203.293
21
-57.4671
0
LINE
8
BLACK
6
CONTINUOUS
10
203.293
20
-57.4671
11
203.169
21
-57.3156
0
LINE
8
BLACK
6
CONTINUOUS
10
203.169
20
-57.3156
11
203.076
21
-57.1427
0
LINE
8
BLACK
6
CONTINUOUS
10
203.076
20
-57.1427
11
203.019
21
-56.9551
0
LINE
8
BLACK
6
CONTINUOUS
10
203.019
20
-56.9551
11
203
21
-56.76
0
LINE
8
BLACK
6
CONTINUOUS
10
203
20
-56.76
11
203.019
21
-56.5649
0
LINE
8
BLACK
6
CONTINUOUS
10
203.019
20
-56.5649
11
203.076
21
-56.3773
0
LINE
8
BLACK
6
CONTINUOUS
10
203.076
20
-56.3773
11
203.169
21
-56.2044
0
LINE
8
BLACK
6
CONTINUOUS
10
203.169
20
-56.2044
11
203.293
21
-56.0529
0
LINE
8
BLACK
6
CONTINUOUS
10
203.293
20
-56.0529
11
203.444
21
-55.9285
0
LINE
8
BLACK
6
CONTINUOUS
10
203.444
20
-55.9285
11
203.617
21
-55.8361
0
LINE
8
BLACK
6
CONTINUOUS
10
203.617
20
-55.8361
11
203.805
21
-55.7792
0
LINE
8
BLACK
6
CONTINUOUS
10
203.805
20
-55.7792
11
204
21
-55.76
0
LINE
8
BLACK
6
CONTINUOUS
10
204
20
-55.76
11
204.195
21
-55.7792
0
LINE
8
BLACK
6
CONTINUOUS
10
178.795
20
-53.2392
11
178.983
21
-53.2961
0
LINE
8
BLACK
6
CONTINUOUS
10
178.983
20
-53.2961
11
179.156
21
-53.3885
0
LINE
8
BLACK
6
CONTINUOUS
10
179.156
20
-53.3885
11
179.307
21
-53.5129
0
LINE
8
BLACK
6
CONTINUOUS
10
179.307
20
-53.5129
11
179.431
21
-53.6644
0
LINE
8
BLACK
6
CONTINUOUS
10
179.431
20
-53.6644
11
179.524
21
-53.8373
0
LINE
8
BLACK
6
CONTINUOUS
10
179.524
20
-53.8373
11
179.581
21
-54.0249
0
LINE
8
BLACK
6
CONTINUOUS
10
179.581
20
-54.0249
11
179.6
21
-54.22
0
LINE
8
BLACK
6
CONTINUOUS
10
179.6
20
-54.22
11
179.581
21
-54.4151
0
LINE
8
BLACK
6
CONTINUOUS
10
179.581
20
-54.4151
11
179.524
21
-54.6027
0
LINE
8
BLACK
6
CONTINUOUS
10
179.524
20
-54.6027
11
179.431
21
-54.7756
0
LINE
8
BLACK
6
CONTINUOUS
10
179.431
20
-54.7756
11
179.307
21
-54.9271
0
LINE
8
BLACK
6
CONTINUOUS
10
179.307
20
-54.9271
11
179.156
21
-55.0515
0
LINE
8
BLACK
6
CONTINUOUS
10
179.156
20
-55.0515
11
178.983
21
-55.1439
0
LINE
8
BLACK
6
CONTINUOUS
10
178.983
20
-55.1439
11
178.795
21
-55.2008
0
LINE
8
BLACK
6
CONTINUOUS
10
178.795
20
-55.2008
11
178.6
21
-55.22
0
LINE
8
BLACK
6
CONTINUOUS
10
178.6
20
-55.22
11
178.405
21
-55.2008
0
LINE
8
BLACK
6
CONTINUOUS
10
178.405
20
-55.2008
11
178.217
21
-55.1439
0
LINE
8
BLACK
6
CONTINUOUS
10
178.217
20
-55.1439
11
178.044
21
-55.0515
0
LINE
8
BLACK
6
CONTINUOUS
10
178.044
20
-55.0515
11
177.893
21
-54.9271
0
LINE
8
BLACK
6
CONTINUOUS
10
177.893
20
-54.9271
11
177.769
21
-54.7756
0
LINE
8
BLACK
6
CONTINUOUS
10
177.769
20
-54.7756
11
177.676
21
-54.6027
0
LINE
8
BLACK
6
CONTINUOUS
10
177.676
20
-54.6027
11
177.619
21
-54.4151
0
LINE
8
BLACK
6
CONTINUOUS
10
177.619
20
-54.4151
11
177.6
21
-54.22
0
LINE
8
BLACK
6
CONTINUOUS
10
177.6
20
-54.22
11
177.619
21
-54.0249
0
LINE
8
BLACK
6
CONTINUOUS
10
177.619
20
-54.0249
11
177.676
21
-53.8373
0
LINE
8
BLACK
6
CONTINUOUS
10
177.676
20
-53.8373
11
177.769
21
-53.6644
0
LINE
8
BLACK
6
CONTINUOUS
10
177.769
20
-53.6644
11
177.893
21
-53.5129
0
LINE
8
BLACK
6
CONTINUOUS
10
177.893
20
-53.5129
11
178.044
21
-53.3885
0
LINE
8
BLACK
6
CONTINUOUS
10
178.044
20
-53.3885
11
178.217
21
-53.2961
0
LINE
8
BLACK
6
CONTINUOUS
10
178.217
20
-53.2961
11
178.405
21
-53.2392
0
LINE
8
BLACK
6
CONTINUOUS
10
178.405
20
-53.2392
11
178.6
21
-53.22
0
LINE
8
BLACK
6
CONTINUOUS
10
178.6
20
-53.22
11
178.795
21
-53.2392
0
LINE
8
BLACK
6
CONTINUOUS
10
204.195
20
-53.2392
11
204.383
21
-53.2961
0
LINE
8
BLACK
6
CONTINUOUS
10
204.383
20
-53.2961
11
204.556
21
-53.3885
0
LINE
8
BLACK
6
CONTINUOUS
10
204.556
20
-53.3885
11
204.707
21
-53.5129
0
LINE
8
BLACK
6
CONTINUOUS
10
204.707
20
-53.5129
11
204.831
21
-53.6644
0
LINE
8
BLACK
6
CONTINUOUS
10
204.831
20
-53.6644
11
204.924
21
-53.8373
0
LINE
8
BLACK
6
CONTINUOUS
10
204.924
20
-53.8373
11
204.981
21
-54.0249
0
LINE
8
BLACK
6
CONTINUOUS
10
204.981
20
-54.0249
11
205
21
-54.22
0
LINE
8
BLACK
6
CONTINUOUS
10
205
20
-54.22
11
204.981
21
-54.4151
0
LINE
8
BLACK
6
CONTINUOUS
10
204.981
20
-54.4151
11
204.924
21
-54.6027
0
LINE
8
BLACK
6
CONTINUOUS
10
204.924
20
-54.6027
11
204.831
21
-54.7756
0
LINE
8
BLACK
6
CONTINUOUS
10
204.831
20
-54.7756
11
204.707
21
-54.9271
0
LINE
8
BLACK
6
CONTINUOUS
10
204.707
20
-54.9271
11
204.556
21
-55.0515
0
LINE
8
BLACK
6
CONTINUOUS
10
204.556
20
-55.0515
11
204.383
21
-55.1439
0
LINE
8
BLACK
6
CONTINUOUS
10
204.383
20
-55.1439
11
204.195
21
-55.2008
0
LINE
8
BLACK
6
CONTINUOUS
10
204.195
20
-55.2008
11
204
21
-55.22
0
LINE
8
BLACK
6
CONTINUOUS
10
204
20
-55.22
11
203.805
21
-55.2008
0
LINE
8
BLACK
6
CONTINUOUS
10
203.805
20
-55.2008
11
203.617
21
-55.1439
0
LINE
8
BLACK
6
CONTINUOUS
10
203.617
20
-55.1439
11
203.444
21
-55.0515
0
LINE
8
BLACK
6
CONTINUOUS
10
203.444
20
-55.0515
11
203.293
21
-54.9271
0
LINE
8
BLACK
6
CONTINUOUS
10
203.293
20
-54.9271
11
203.169
21
-54.7756
0
LINE
8
BLACK
6
CONTINUOUS
10
203.169
20
-54.7756
11
203.076
21
-54.6027
0
LINE
8
BLACK
6
CONTINUOUS
10
203.076
20
-54.6027
11
203.019
21
-54.4151
0
LINE
8
BLACK
6
CONTINUOUS
10
203.019
20
-54.4151
11
203
21
-54.22
0
LINE
8
BLACK
6
CONTINUOUS
10
203
20
-54.22
11
203.019
21
-54.0249
0
LINE
8
BLACK
6
CONTINUOUS
10
203.019
20
-54.0249
11
203.076
21
-53.8373
0
LINE
8
BLACK
6
CONTINUOUS
10
203.076
20
-53.8373
11
203.169
21
-53.6644
0
LINE
8
BLACK
6
CONTINUOUS
10
203.169
20
-53.6644
11
203.293
21
-53.5129
0
LINE
8
BLACK
6
CONTINUOUS
10
203.293
20
-53.5129
11
203.444
21
-53.3885
0
LINE
8
BLACK
6
CONTINUOUS
10
203.444
20
-53.3885
11
203.617
21
-53.2961
0
LINE
8
BLACK
6
CONTINUOUS
10
203.617
20
-53.2961
11
203.805
21
-53.2392
0
LINE
8
BLACK
6
CONTINUOUS
10
203.805
20
-53.2392
11
204
21
-53.22
0
LINE
8
BLACK
6
CONTINUOUS
10
204
20
-53.22
11
204.195
21
-53.2392
0
LINE
8
BLACK
6
CONTINUOUS
10
178.795
20
-50.6992
11
178.983
21
-50.7561
0
LINE
8
BLACK
6
CONTINUOUS
10
178.983
20
-50.7561
11
179.156
21
-50.8485
0
LINE
8
BLACK
6
CONTINUOUS
10
179.156
20
-50.8485
11
179.307
21
-50.9729
0
LINE
8
BLACK
6
CONTINUOUS
10
179.307
20
-50.9729
11
179.431
21
-51.1244
0
LINE
8
BLACK
6
CONTINUOUS
10
179.431
20
-51.1244
11
179.524
21
-51.2973
0
LINE
8
BLACK
6
CONTINUOUS
10
179.524
20
-51.2973
11
179.581
21
-51.4849
0
LINE
8
BLACK
6
CONTINUOUS
10
179.581
20
-51.4849
11
179.6
21
-51.68
0
LINE
8
BLACK
6
CONTINUOUS
10
179.6
20
-51.68
11
179.581
21
-51.8751
0
LINE
8
BLACK
6
CONTINUOUS
10
179.581
20
-51.8751
11
179.524
21
-52.0627
0
LINE
8
BLACK
6
CONTINUOUS
10
179.524
20
-52.0627
11
179.431
21
-52.2356
0
LINE
8
BLACK
6
CONTINUOUS
10
179.431
20
-52.2356
11
179.307
21
-52.3871
0
LINE
8
BLACK
6
CONTINUOUS
10
179.307
20
-52.3871
11
179.156
21
-52.5115
0
LINE
8
BLACK
6
CONTINUOUS
10
179.156
20
-52.5115
11
178.983
21
-52.6039
0
LINE
8
BLACK
6
CONTINUOUS
10
178.983
20
-52.6039
11
178.795
21
-52.6608
0
LINE
8
BLACK
6
CONTINUOUS
10
178.795
20
-52.6608
11
178.6
21
-52.68
0
LINE
8
BLACK
6
CONTINUOUS
10
178.6
20
-52.68
11
178.405
21
-52.6608
0
LINE
8
BLACK
6
CONTINUOUS
10
178.405
20
-52.6608
11
178.217
21
-52.6039
0
LINE
8
BLACK
6
CONTINUOUS
10
178.217
20
-52.6039
11
178.044
21
-52.5115
0
LINE
8
BLACK
6
CONTINUOUS
10
178.044
20
-52.5115
11
177.893
21
-52.3871
0
LINE
8
BLACK
6
CONTINUOUS
10
177.893
20
-52.3871
11
177.769
21
-52.2356
0
LINE
8
BLACK
6
CONTINUOUS
10
177.769
20
-52.2356
11
177.676
21
-52.0627
0
LINE
8
BLACK
6
CONTINUOUS
10
177.676
20
-52.0627
11
177.619
21
-51.8751
0
LINE
8
BLACK
6
CONTINUOUS
10
177.619
20
-51.8751
11
177.6
21
-51.68
0
LINE
8
BLACK
6
CONTINUOUS
10
177.6
20
-51.68
11
177.619
21
-51.4849
0
LINE
8
BLACK
6
CONTINUOUS
10
177.619
20
-51.4849
11
177.676
21
-51.2973
0
LINE
8
BLACK
6
CONTINUOUS
10
177.676
20
-51.2973
11
177.769
21
-51.1244
0
LINE
8
BLACK
6
CONTINUOUS
10
177.769
20
-51.1244
11
177.893
21
-50.9729
0
LINE
8
BLACK
6
CONTINUOUS
10
177.893
20
-50.9729
11
178.044
21
-50.8485
0
LINE
8
BLACK
6
CONTINUOUS
10
178.044
20
-50.8485
11
178.217
21
-50.7561
0
LINE
8
BLACK
6
CONTINUOUS
10
178.217
20
-50.7561
11
178.405
21
-50.6992
0
LINE
8
BLACK
6
CONTINUOUS
10
178.405
20
-50.6992
11
178.6
21
-50.68
0
LINE
8
BLACK
6
CONTINUOUS
10
178.6
20
-50.68
11
178.795
21
-50.6992
0
LINE
8
BLACK
6
CONTINUOUS
10
204.195
20
-50.6992
11
204.383
21
-50.7561
0
LINE
8
BLACK
6
CONTINUOUS
10
204.383
20
-50.7561
11
204.556
21
-50.8485
0
LINE
8
BLACK
6
CONTINUOUS
10
204.556
20
-50.8485
11
204.655
21
-50.93
0
LINE
8
BLACK
6
CONTINUOUS
10
204.655
20
-50.93
11
207.827
21
-50.93
0
LINE
8
BLACK
6
CONTINUOUS
10
207.827
20
-50.93
11
207.835
21
-50.9239
0
LINE
8
BLACK
6
CONTINUOUS
10
207.835
20
-50.9239
11
207.997
21
-50.8516
0
LINE
8
BLACK
6
CONTINUOUS
10
207.997
20
-50.8516
11
208.171
21
-50.8147
0
LINE
8
BLACK
6
CONTINUOUS
10
208.171
20
-50.8147
11
208.349
21
-50.8147
0
LINE
8
BLACK
6
CONTINUOUS
10
208.349
20
-50.8147
11
208.523
21
-50.8516
0
LINE
8
BLACK
6
CONTINUOUS
10
208.523
20
-50.8516
11
208.685
21
-50.9239
0
LINE
8
BLACK
6
CONTINUOUS
10
208.685
20
-50.9239
11
208.829
21
-51.0283
0
LINE
8
BLACK
6
CONTINUOUS
10
208.829
20
-51.0283
11
208.948
21
-51.1604
0
LINE
8
BLACK
6
CONTINUOUS
10
208.948
20
-51.1604
11
209.037
21
-51.3143
0
LINE
8
BLACK
6
CONTINUOUS
10
209.037
20
-51.3143
11
209.091
21
-51.4833
0
LINE
8
BLACK
6
CONTINUOUS
10
209.091
20
-51.4833
11
209.11
21
-51.66
0
LINE
8
BLACK
6
CONTINUOUS
10
209.11
20
-51.66
11
209.091
21
-51.8367
0
LINE
8
BLACK
6
CONTINUOUS
10
209.091
20
-51.8367
11
209.037
21
-52.0057
0
LINE
8
BLACK
6
CONTINUOUS
10
209.037
20
-52.0057
11
208.948
21
-52.1596
0
LINE
8
BLACK
6
CONTINUOUS
10
208.948
20
-52.1596
11
208.829
21
-52.2917
0
LINE
8
BLACK
6
CONTINUOUS
10
208.829
20
-52.2917
11
208.685
21
-52.3961
0
LINE
8
BLACK
6
CONTINUOUS
10
208.685
20
-52.3961
11
208.523
21
-52.4684
0
LINE
8
BLACK
6
CONTINUOUS
10
208.523
20
-52.4684
11
208.349
21
-52.5053
0
LINE
8
BLACK
6
CONTINUOUS
10
208.349
20
-52.5053
11
208.171
21
-52.5053
0
LINE
8
BLACK
6
CONTINUOUS
10
208.171
20
-52.5053
11
207.997
21
-52.4684
0
LINE
8
BLACK
6
CONTINUOUS
10
207.997
20
-52.4684
11
207.911
21
-52.43
0
LINE
8
BLACK
6
CONTINUOUS
10
207.911
20
-52.43
11
204.655
21
-52.43
0
LINE
8
BLACK
6
CONTINUOUS
10
204.655
20
-52.43
11
204.556
21
-52.5115
0
LINE
8
BLACK
6
CONTINUOUS
10
204.556
20
-52.5115
11
204.383
21
-52.6039
0
LINE
8
BLACK
6
CONTINUOUS
10
204.383
20
-52.6039
11
204.195
21
-52.6608
0
LINE
8
BLACK
6
CONTINUOUS
10
204.195
20
-52.6608
11
204
21
-52.68
0
LINE
8
BLACK
6
CONTINUOUS
10
204
20
-52.68
11
203.805
21
-52.6608
0
LINE
8
BLACK
6
CONTINUOUS
10
203.805
20
-52.6608
11
203.617
21
-52.6039
0
LINE
8
BLACK
6
CONTINUOUS
10
203.617
20
-52.6039
11
203.444
21
-52.5115
0
LINE
8
BLACK
6
CONTINUOUS
10
203.444
20
-52.5115
11
203.293
21
-52.3871
0
LINE
8
BLACK
6
CONTINUOUS
10
203.293
20
-52.3871
11
203.169
21
-52.2356
0
LINE
8
BLACK
6
CONTINUOUS
10
203.169
20
-52.2356
11
203.076
21
-52.0627
0
LINE
8
BLACK
6
CONTINUOUS
10
203.076
20
-52.0627
11
203.019
21
-51.8751
0
LINE
8
BLACK
6
CONTINUOUS
10
203.019
20
-51.8751
11
203
21
-51.68
0
LINE
8
BLACK
6
CONTINUOUS
10
203
20
-51.68
11
203.019
21
-51.4849
0
LINE
8
BLACK
6
CONTINUOUS
10
203.019
20
-51.4849
11
203.076
21
-51.2973
0
LINE
8
BLACK
6
CONTINUOUS
10
203.076
20
-51.2973
11
203.169
21
-51.1244
0
LINE
8
BLACK
6
CONTINUOUS
10
203.169
20
-51.1244
11
203.293
21
-50.9729
0
LINE
8
BLACK
6
CONTINUOUS
10
203.293
20
-50.9729
11
203.444
21
-50.8485
0
LINE
8
BLACK
6
CONTINUOUS
10
203.444
20
-50.8485
11
203.617
21
-50.7561
0
LINE
8
BLACK
6
CONTINUOUS
10
203.617
20
-50.7561
11
203.805
21
-50.6992
0
LINE
8
BLACK
6
CONTINUOUS
10
203.805
20
-50.6992
11
204
21
-50.68
0
LINE
8
BLACK
6
CONTINUOUS
10
204
20
-50.68
11
204.195
21
-50.6992
0
LINE
8
BLACK
6
CONTINUOUS
10
178.795
20
-48.1592
11
178.983
21
-48.2161
0
LINE
8
BLACK
6
CONTINUOUS
10
178.983
20
-48.2161
11
179.156
21
-48.3085
0
LINE
8
BLACK
6
CONTINUOUS
10
179.156
20
-48.3085
11
179.307
21
-48.4329
0
LINE
8
BLACK
6
CONTINUOUS
10
179.307
20
-48.4329
11
179.431
21
-48.5844
0
LINE
8
BLACK
6
CONTINUOUS
10
179.431
20
-48.5844
11
179.524
21
-48.7573
0
LINE
8
BLACK
6
CONTINUOUS
10
179.524
20
-48.7573
11
179.581
21
-48.9449
0
LINE
8
BLACK
6
CONTINUOUS
10
179.581
20
-48.9449
11
179.6
21
-49.14
0
LINE
8
BLACK
6
CONTINUOUS
10
179.6
20
-49.14
11
179.581
21
-49.3351
0
LINE
8
BLACK
6
CONTINUOUS
10
179.581
20
-49.3351
11
179.524
21
-49.5227
0
LINE
8
BLACK
6
CONTINUOUS
10
179.524
20
-49.5227
11
179.431
21
-49.6956
0
LINE
8
BLACK
6
CONTINUOUS
10
179.431
20
-49.6956
11
179.307
21
-49.8471
0
LINE
8
BLACK
6
CONTINUOUS
10
179.307
20
-49.8471
11
179.156
21
-49.9715
0
LINE
8
BLACK
6
CONTINUOUS
10
179.156
20
-49.9715
11
178.983
21
-50.0639
0
LINE
8
BLACK
6
CONTINUOUS
10
178.983
20
-50.0639
11
178.795
21
-50.1208
0
LINE
8
BLACK
6
CONTINUOUS
10
178.795
20
-50.1208
11
178.6
21
-50.14
0
LINE
8
BLACK
6
CONTINUOUS
10
178.6
20
-50.14
11
178.405
21
-50.1208
0
LINE
8
BLACK
6
CONTINUOUS
10
178.405
20
-50.1208
11
178.217
21
-50.0639
0
LINE
8
BLACK
6
CONTINUOUS
10
178.217
20
-50.0639
11
178.044
21
-49.9715
0
LINE
8
BLACK
6
CONTINUOUS
10
178.044
20
-49.9715
11
177.893
21
-49.8471
0
LINE
8
BLACK
6
CONTINUOUS
10
177.893
20
-49.8471
11
177.769
21
-49.6956
0
LINE
8
BLACK
6
CONTINUOUS
10
177.769
20
-49.6956
11
177.676
21
-49.5227
0
LINE
8
BLACK
6
CONTINUOUS
10
177.676
20
-49.5227
11
177.619
21
-49.3351
0
LINE
8
BLACK
6
CONTINUOUS
10
177.619
20
-49.3351
11
177.6
21
-49.14
0
LINE
8
BLACK
6
CONTINUOUS
10
177.6
20
-49.14
11
177.619
21
-48.9449
0
LINE
8
BLACK
6
CONTINUOUS
10
177.619
20
-48.9449
11
177.676
21
-48.7573
0
LINE
8
BLACK
6
CONTINUOUS
10
177.676
20
-48.7573
11
177.769
21
-48.5844
0
LINE
8
BLACK
6
CONTINUOUS
10
177.769
20
-48.5844
11
177.893
21
-48.4329
0
LINE
8
BLACK
6
CONTINUOUS
10
177.893
20
-48.4329
11
178.044
21
-48.3085
0
LINE
8
BLACK
6
CONTINUOUS
10
178.044
20
-48.3085
11
178.217
21
-48.2161
0
LINE
8
BLACK
6
CONTINUOUS
10
178.217
20
-48.2161
11
178.405
21
-48.1592
0
LINE
8
BLACK
6
CONTINUOUS
10
178.405
20
-48.1592
11
178.6
21
-48.14
0
LINE
8
BLACK
6
CONTINUOUS
10
178.6
20
-48.14
11
178.795
21
-48.1592
0
LINE
8
BLACK
6
CONTINUOUS
10
204.195
20
-48.1592
11
204.383
21
-48.2161
0
LINE
8
BLACK
6
CONTINUOUS
10
204.383
20
-48.2161
11
204.556
21
-48.3085
0
LINE
8
BLACK
6
CONTINUOUS
10
204.556
20
-48.3085
11
204.707
21
-48.4329
0
LINE
8
BLACK
6
CONTINUOUS
10
204.707
20
-48.4329
11
204.831
21
-48.5844
0
LINE
8
BLACK
6
CONTINUOUS
10
204.831
20
-48.5844
11
204.924
21
-48.7573
0
LINE
8
BLACK
6
CONTINUOUS
10
204.924
20
-48.7573
11
204.981
21
-48.9449
0
LINE
8
BLACK
6
CONTINUOUS
10
204.981
20
-48.9449
11
205
21
-49.14
0
LINE
8
BLACK
6
CONTINUOUS
10
205
20
-49.14
11
204.981
21
-49.3351
0
LINE
8
BLACK
6
CONTINUOUS
10
204.981
20
-49.3351
11
204.924
21
-49.5227
0
LINE
8
BLACK
6
CONTINUOUS
10
204.924
20
-49.5227
11
204.831
21
-49.6956
0
LINE
8
BLACK
6
CONTINUOUS
10
204.831
20
-49.6956
11
204.707
21
-49.8471
0
LINE
8
BLACK
6
CONTINUOUS
10
204.707
20
-49.8471
11
204.556
21
-49.9715
0
LINE
8
BLACK
6
CONTINUOUS
10
204.556
20
-49.9715
11
204.383
21
-50.0639
0
LINE
8
BLACK
6
CONTINUOUS
10
204.383
20
-50.0639
11
204.195
21
-50.1208
0
LINE
8
BLACK
6
CONTINUOUS
10
204.195
20
-50.1208
11
204
21
-50.14
0
LINE
8
BLACK
6
CONTINUOUS
10
204
20
-50.14
11
203.805
21
-50.1208
0
LINE
8
BLACK
6
CONTINUOUS
10
203.805
20
-50.1208
11
203.617
21
-50.0639
0
LINE
8
BLACK
6
CONTINUOUS
10
203.617
20
-50.0639
11
203.444
21
-49.9715
0
LINE
8
BLACK
6
CONTINUOUS
10
203.444
20
-49.9715
11
203.293
21
-49.8471
0
LINE
8
BLACK
6
CONTINUOUS
10
203.293
20
-49.8471
11
203.169
21
-49.6956
0
LINE
8
BLACK
6
CONTINUOUS
10
203.169
20
-49.6956
11
203.076
21
-49.5227
0
LINE
8
BLACK
6
CONTINUOUS
10
203.076
20
-49.5227
11
203.019
21
-49.3351
0
LINE
8
BLACK
6
CONTINUOUS
10
203.019
20
-49.3351
11
203
21
-49.14
0
LINE
8
BLACK
6
CONTINUOUS
10
203
20
-49.14
11
203.019
21
-48.9449
0
LINE
8
BLACK
6
CONTINUOUS
10
203.019
20
-48.9449
11
203.076
21
-48.7573
0
LINE
8
BLACK
6
CONTINUOUS
10
203.076
20
-48.7573
11
203.169
21
-48.5844
0
LINE
8
BLACK
6
CONTINUOUS
10
203.169
20
-48.5844
11
203.293
21
-48.4329
0
LINE
8
BLACK
6
CONTINUOUS
10
203.293
20
-48.4329
11
203.444
21
-48.3085
0
LINE
8
BLACK
6
CONTINUOUS
10
203.444
20
-48.3085
11
203.617
21
-48.2161
0
LINE
8
BLACK
6
CONTINUOUS
10
203.617
20
-48.2161
11
203.805
21
-48.1592
0
LINE
8
BLACK
6
CONTINUOUS
10
203.805
20
-48.1592
11
204
21
-48.14
0
LINE
8
BLACK
6
CONTINUOUS
10
204
20
-48.14
11
204.195
21
-48.1592
0
LINE
8
BLACK
6
CONTINUOUS
10
172.368
20
-40.5459
11
172.603
21
-40.6263
0
LINE
8
BLACK
6
CONTINUOUS
10
172.603
20
-40.6263
11
172.82
21
-40.7443
0
LINE
8
BLACK
6
CONTINUOUS
10
172.82
20
-40.7443
11
173.016
21
-40.8964
0
LINE
8
BLACK
6
CONTINUOUS
10
173.016
20
-40.8964
11
173.184
21
-41.0787
0
LINE
8
BLACK
6
CONTINUOUS
10
173.184
20
-41.0787
11
173.319
21
-41.2861
0
LINE
8
BLACK
6
CONTINUOUS
10
173.319
20
-41.2861
11
173.419
21
-41.513
0
LINE
8
BLACK
6
CONTINUOUS
10
173.419
20
-41.513
11
173.48
21
-41.7531
0
LINE
8
BLACK
6
CONTINUOUS
10
173.48
20
-41.7531
11
173.5
21
-42
0
LINE
8
BLACK
6
CONTINUOUS
10
173.5
20
-42
11
173.48
21
-42.2469
0
LINE
8
BLACK
6
CONTINUOUS
10
173.48
20
-42.2469
11
173.419
21
-42.487
0
LINE
8
BLACK
6
CONTINUOUS
10
173.419
20
-42.487
11
173.319
21
-42.7139
0
LINE
8
BLACK
6
CONTINUOUS
10
173.319
20
-42.7139
11
173.184
21
-42.9213
0
LINE
8
BLACK
6
CONTINUOUS
10
173.184
20
-42.9213
11
173.016
21
-43.1036
0
LINE
8
BLACK
6
CONTINUOUS
10
173.016
20
-43.1036
11
172.82
21
-43.2557
0
LINE
8
BLACK
6
CONTINUOUS
10
172.82
20
-43.2557
11
172.603
21
-43.3737
0
LINE
8
BLACK
6
CONTINUOUS
10
172.603
20
-43.3737
11
172.368
21
-43.4541
0
LINE
8
BLACK
6
CONTINUOUS
10
172.368
20
-43.4541
11
172.124
21
-43.4949
0
LINE
8
BLACK
6
CONTINUOUS
10
172.124
20
-43.4949
11
171.876
21
-43.4949
0
LINE
8
BLACK
6
CONTINUOUS
10
171.876
20
-43.4949
11
171.632
21
-43.4541
0
LINE
8
BLACK
6
CONTINUOUS
10
171.632
20
-43.4541
11
171.397
21
-43.3737
0
LINE
8
BLACK
6
CONTINUOUS
10
171.397
20
-43.3737
11
171.18
21
-43.2557
0
LINE
8
BLACK
6
CONTINUOUS
10
171.18
20
-43.2557
11
170.984
21
-43.1036
0
LINE
8
BLACK
6
CONTINUOUS
10
170.984
20
-43.1036
11
170.816
21
-42.9213
0
LINE
8
BLACK
6
CONTINUOUS
10
170.816
20
-42.9213
11
170.681
21
-42.7139
0
LINE
8
BLACK
6
CONTINUOUS
10
170.681
20
-42.7139
11
170.581
21
-42.487
0
LINE
8
BLACK
6
CONTINUOUS
10
170.581
20
-42.487
11
170.52
21
-42.2469
0
LINE
8
BLACK
6
CONTINUOUS
10
170.52
20
-42.2469
11
170.5
21
-42
0
LINE
8
BLACK
6
CONTINUOUS
10
170.5
20
-42
11
170.52
21
-41.7531
0
LINE
8
BLACK
6
CONTINUOUS
10
170.52
20
-41.7531
11
170.581
21
-41.513
0
LINE
8
BLACK
6
CONTINUOUS
10
170.581
20
-41.513
11
170.681
21
-41.2861
0
LINE
8
BLACK
6
CONTINUOUS
10
170.681
20
-41.2861
11
170.816
21
-41.0787
0
LINE
8
BLACK
6
CONTINUOUS
10
170.816
20
-41.0787
11
170.984
21
-40.8964
0
LINE
8
BLACK
6
CONTINUOUS
10
170.984
20
-40.8964
11
171.18
21
-40.7443
0
LINE
8
BLACK
6
CONTINUOUS
10
171.18
20
-40.7443
11
171.397
21
-40.6263
0
LINE
8
BLACK
6
CONTINUOUS
10
171.397
20
-40.6263
11
171.632
21
-40.5459
0
LINE
8
BLACK
6
CONTINUOUS
10
171.632
20
-40.5459
11
171.876
21
-40.5051
0
LINE
8
BLACK
6
CONTINUOUS
10
171.876
20
-40.5051
11
172.124
21
-40.5051
0
LINE
8
BLACK
6
CONTINUOUS
10
172.124
20
-40.5051
11
172.368
21
-40.5459
0
LINE
8
BLACK
6
CONTINUOUS
10
228.368
20
-40.5459
11
228.603
21
-40.6263
0
LINE
8
BLACK
6
CONTINUOUS
10
228.603
20
-40.6263
11
228.82
21
-40.7443
0
LINE
8
BLACK
6
CONTINUOUS
10
228.82
20
-40.7443
11
229.016
21
-40.8964
0
LINE
8
BLACK
6
CONTINUOUS
10
229.016
20
-40.8964
11
229.184
21
-41.0787
0
LINE
8
BLACK
6
CONTINUOUS
10
229.184
20
-41.0787
11
229.319
21
-41.2861
0
LINE
8
BLACK
6
CONTINUOUS
10
229.319
20
-41.2861
11
229.419
21
-41.513
0
LINE
8
BLACK
6
CONTINUOUS
10
229.419
20
-41.513
11
229.48
21
-41.7531
0
LINE
8
BLACK
6
CONTINUOUS
10
229.48
20
-41.7531
11
229.5
21
-42
0
LINE
8
BLACK
6
CONTINUOUS
10
229.5
20
-42
11
229.48
21
-42.2469
0
LINE
8
BLACK
6
CONTINUOUS
10
229.48
20
-42.2469
11
229.419
21
-42.487
0
LINE
8
BLACK
6
CONTINUOUS
10
229.419
20
-42.487
11
229.319
21
-42.7139
0
LINE
8
BLACK
6
CONTINUOUS
10
229.319
20
-42.7139
11
229.184
21
-42.9213
0
LINE
8
BLACK
6
CONTINUOUS
10
229.184
20
-42.9213
11
229.016
21
-43.1036
0
LINE
8
BLACK
6
CONTINUOUS
10
229.016
20
-43.1036
11
228.82
21
-43.2557
0
LINE
8
BLACK
6
CONTINUOUS
10
228.82
20
-43.2557
11
228.603
21
-43.3737
0
LINE
8
BLACK
6
CONTINUOUS
10
228.603
20
-43.3737
11
228.368
21
-43.4541
0
LINE
8
BLACK
6
CONTINUOUS
10
228.368
20
-43.4541
11
228.124
21
-43.4949
0
LINE
8
BLACK
6
CONTINUOUS
10
228.124
20
-43.4949
11
227.876
21
-43.4949
0
LINE
8
BLACK
6
CONTINUOUS
10
227.876
20
-43.4949
11
227.632
21
-43.4541
0
LINE
8
BLACK
6
CONTINUOUS
10
227.632
20
-43.4541
11
227.397
21
-43.3737
0
LINE
8
BLACK
6
CONTINUOUS
10
227.397
20
-43.3737
11
227.18
21
-43.2557
0
LINE
8
BLACK
6
CONTINUOUS
10
227.18
20
-43.2557
11
226.984
21
-43.1036
0
LINE
8
BLACK
6
CONTINUOUS
10
226.984
20
-43.1036
11
226.816
21
-42.9213
0
LINE
8
BLACK
6
CONTINUOUS
10
226.816
20
-42.9213
11
226.681
21
-42.7139
0
LINE
8
BLACK
6
CONTINUOUS
10
226.681
20
-42.7139
11
226.581
21
-42.487
0
LINE
8
BLACK
6
CONTINUOUS
10
226.581
20
-42.487
11
226.52
21
-42.2469
0
LINE
8
BLACK
6
CONTINUOUS
10
226.52
20
-42.2469
11
226.5
21
-42
0
LINE
8
BLACK
6
CONTINUOUS
10
226.5
20
-42
11
226.52
21
-41.7531
0
LINE
8
BLACK
6
CONTINUOUS
10
226.52
20
-41.7531
11
226.581
21
-41.513
0
LINE
8
BLACK
6
CONTINUOUS
10
226.581
20
-41.513
11
226.681
21
-41.2861
0
LINE
8
BLACK
6
CONTINUOUS
10
226.681
20
-41.2861
11
226.816
21
-41.0787
0
LINE
8
BLACK
6
CONTINUOUS
10
226.816
20
-41.0787
11
226.984
21
-40.8964
0
LINE
8
BLACK
6
CONTINUOUS
10
226.984
20
-40.8964
11
227.18
21
-40.7443
0
LINE
8
BLACK
6
CONTINUOUS
10
227.18
20
-40.7443
11
227.397
21
-40.6263
0
LINE
8
BLACK
6
CONTINUOUS
10
227.397
20
-40.6263
11
227.632
21
-40.5459
0
LINE
8
BLACK
6
CONTINUOUS
10
227.632
20
-40.5459
11
227.876
21
-40.5051
0
LINE
8
BLACK
6
CONTINUOUS
10
227.876
20
-40.5051
11
228.124
21
-40.5051
0
LINE
8
BLACK
6
CONTINUOUS
10
228.124
20
-40.5051
11
228.368
21
-40.5459
0
CIRCLE
8
BLACK
10
228
20
-98
40
1.5
0
CIRCLE
8
BLACK
10
228
20
-42
40
1.5
0
CIRCLE
8
BLACK
10
172
20
-42
40
1.5
0
CIRCLE
8
BLACK
10
172
20
-98
40
1.5
  0
ENDSEC
  0
EOF
