M48
; DRILL file {KiCad 7.0.8} date Tue Nov 21 10:33:09 2023
; FORMAT={-:-/ absolute / metric / decimal}
; #@! TF.CreationDate,2023-11-21T10:33:09-05:00
; #@! TF.GenerationSoftware,Kicad,Pcbnew,7.0.8
; #@! TF.FileFunction,Plated,1,2,PTH
FMAT,2
METRIC
; #@! TA.AperFunction,Plated,PTH,ComponentDrill
T1C0.800
; #@! TA.AperFunction,Plated,PTH,ViaDrill
T2C3.000
%
G90
G05
T1
X178.6Y-49.14
X178.6Y-51.68
X178.6Y-54.22
X178.6Y-56.76
X178.6Y-59.3
X178.6Y-61.84
X178.6Y-64.38
X178.6Y-66.92
X178.6Y-69.46
X178.6Y-72.0
X178.6Y-74.54
X178.6Y-77.08
X178.6Y-79.62
X178.6Y-82.16
X178.6Y-84.7
X204.0Y-49.14
X204.0Y-51.68
X204.0Y-54.22
X204.0Y-56.76
X204.0Y-59.3
X204.0Y-61.84
X204.0Y-64.38
X204.0Y-66.92
X204.0Y-69.46
X204.0Y-72.0
X204.0Y-74.54
X204.0Y-77.08
X204.0Y-79.62
X204.0Y-82.16
X204.0Y-84.7
X208.26Y-46.58
X208.26Y-49.12
X208.26Y-51.66
X208.26Y-54.2
X208.66Y-66.84
X208.66Y-82.08
X209.66Y-89.1
X212.16Y-89.1
X213.86Y-66.84
X213.86Y-82.08
X214.96Y-46.62
X214.96Y-49.16
X214.96Y-51.7
X217.255Y-89.4
X217.255Y-91.9
X219.48Y-65.06
X222.02Y-65.06
X223.155Y-88.7
X224.56Y-65.06
X225.655Y-88.7
T2
X172.0Y-42.0
X172.0Y-98.0
X228.0Y-42.0
X228.0Y-98.0
T0
M30
